<svg width="134" height="134" viewBox="0 0 134 134" fill="none" xmlns="http://www.w3.org/2000/svg">
<mask id="mask0_16_6077" style="mask-type:luminance" maskUnits="userSpaceOnUse" x="0" y="0" width="134" height="134">
<path d="M0.682251 0.838501H133.682V133.839H0.682251V0.838501Z" fill="white"/>
</mask>
<g mask="url(#mask0_16_6077)">
<mask id="mask1_16_6077" style="mask-type:luminance" maskUnits="userSpaceOnUse" x="0" y="0" width="134" height="135">
<path d="M133.964 67.4791C133.964 69.6614 133.859 71.8385 133.646 74.0104C133.432 76.1823 133.109 78.3385 132.682 80.4791C132.26 82.6198 131.729 84.7343 131.094 86.8229C130.464 88.9166 129.729 90.9687 128.891 92.9843C128.057 95 127.125 96.9687 126.094 98.8958C125.068 100.818 123.948 102.687 122.734 104.505C121.521 106.318 120.224 108.068 118.839 109.755C117.453 111.443 115.99 113.057 114.448 114.604C112.901 116.146 111.286 117.609 109.599 118.995C107.911 120.38 106.161 121.677 104.349 122.891C102.531 124.104 100.661 125.224 98.7395 126.25C96.8125 127.281 94.8437 128.214 92.8281 129.047C90.8125 129.885 88.7552 130.62 86.6666 131.25C84.5781 131.885 82.4635 132.417 80.3229 132.839C78.1823 133.266 76.026 133.589 73.8541 133.802C71.6823 134.016 69.5052 134.12 67.3229 134.12C65.1406 134.12 62.9635 134.016 60.7916 133.802C58.6198 133.589 56.4635 133.266 54.3229 132.839C52.1823 132.417 50.0677 131.885 47.9791 131.25C45.8906 130.62 43.8385 129.885 41.8229 129.047C39.8073 128.214 37.8333 127.281 35.9114 126.25C33.9843 125.224 32.1145 124.104 30.302 122.891C28.4843 121.677 26.7343 120.38 25.0468 118.995C23.3593 117.609 21.7448 116.146 20.2031 114.604C18.6562 113.057 17.1927 111.443 15.8125 109.755C14.427 108.068 13.125 106.318 11.9166 104.505C10.7031 102.687 9.58329 100.818 8.55204 98.8958C7.526 96.9687 6.59371 95 5.75517 92.9843C4.92183 90.9687 4.18746 88.9166 3.55204 86.8229C2.92183 84.7343 2.39059 82.6198 1.9635 80.4791C1.53642 78.3385 1.21871 76.1823 1.00517 74.0104C0.791626 71.8385 0.682251 69.6614 0.682251 67.4791C0.682251 65.2968 0.791626 63.1198 1.00517 60.9479C1.21871 58.776 1.53642 56.6198 1.9635 54.4791C2.39059 52.3385 2.92183 50.2239 3.55204 48.1354C4.18746 46.0468 4.92183 43.9948 5.75517 41.9791C6.59371 39.9635 7.526 37.9895 8.55204 36.0677C9.58329 34.1406 10.7031 32.2708 11.9166 30.4583C13.125 28.6406 14.427 26.8906 15.8125 25.2031C17.1927 23.5156 18.6562 21.901 20.2031 20.3593C21.7448 18.8177 23.3593 17.3489 25.0468 15.9687C26.7343 14.5833 28.4843 13.2812 30.302 12.0729C32.1145 10.8593 33.9843 9.73954 35.9114 8.70829C37.8333 7.68225 39.8073 6.74996 41.8229 5.91142C43.8385 5.07808 45.8906 4.34371 47.9791 3.70829C50.0677 3.07808 52.1823 2.54683 54.3229 2.11975C56.4635 1.69267 58.6198 1.37496 60.7916 1.16142C62.9635 0.947876 65.1406 0.838501 67.3229 0.838501C69.5052 0.838501 71.6823 0.947876 73.8541 1.16142C76.026 1.37496 78.1823 1.69267 80.3229 2.11975C82.4635 2.54683 84.5781 3.07808 86.6666 3.70829C88.7552 4.34371 90.8125 5.07808 92.8281 5.91142C94.8437 6.74996 96.8125 7.68225 98.7395 8.70829C100.661 9.73954 102.531 10.8593 104.349 12.0729C106.161 13.2812 107.911 14.5833 109.599 15.9687C111.286 17.3489 112.901 18.8177 114.448 20.3593C115.99 21.901 117.453 23.5156 118.839 25.2031C120.224 26.8906 121.521 28.6406 122.734 30.4583C123.948 32.2708 125.068 34.1406 126.094 36.0677C127.125 37.9895 128.057 39.9635 128.891 41.9791C129.729 43.9948 130.464 46.0468 131.094 48.1354C131.729 50.2239 132.26 52.3385 132.682 54.4791C133.109 56.6198 133.432 58.776 133.646 60.9479C133.859 63.1198 133.964 65.2968 133.964 67.4791Z" fill="white"/>
</mask>
<g mask="url(#mask1_16_6077)">
<path d="M0.682251 0.838501V133.839H133.682V0.838501H0.682251Z" fill="url(#paint0_linear_16_6077)"/>
</g>
</g>
<mask id="mask2_16_6077" style="mask-type:luminance" maskUnits="userSpaceOnUse" x="33" y="34" width="66" height="67">
<path d="M33.9062 34.0416H98.9063V101H33.9062V34.0416Z" fill="white"/>
</mask>
<g mask="url(#mask2_16_6077)">
<path d="M81.375 51.6615H93.6823C94.6563 51.6615 95.4375 50.8698 95.4375 49.9063V44.6302H97.1979C98.1667 44.6302 98.9531 43.8385 98.9531 42.875V35.8333C98.9531 34.8594 98.1615 34.0781 97.1979 34.0781H90.1615C89.1927 34.0781 88.4063 34.8698 88.4063 35.8333V42.8646C88.4063 43.8385 89.1979 44.6198 90.1615 44.6198H91.9219V48.1406H79.6198C78.6458 48.1406 77.8646 48.9323 77.8646 49.8958V55.3646C77.6406 55.1302 77.3958 54.9063 77.151 54.6875C74.9167 52.7292 72.0521 51.6615 69.0781 51.6615C68.4792 51.6615 67.8958 51.7031 67.3229 51.7917V44.6302H69.0781C70.0521 44.6302 70.8333 43.8385 70.8333 42.875V35.8333C70.8333 34.8594 70.0417 34.0781 69.0781 34.0781H62.0469C61.0729 34.0781 60.2917 34.8698 60.2917 35.8333V42.8646C60.2917 43.8385 61.0833 44.6198 62.0469 44.6198H63.8021V52.8542C61.1458 54.1146 58.9896 56.3125 57.7969 59.0938C56.8854 58.8333 55.9531 58.7031 55.0156 58.7031V49.9063C55.0156 48.9323 54.224 48.151 53.2604 48.151H40.9375V44.6302H42.6927C43.6667 44.6302 44.4479 43.8385 44.4479 42.875V35.8333C44.4479 34.8594 43.6563 34.0781 42.6927 34.0781H35.6615C34.6927 34.0781 33.9062 34.8698 33.9062 35.8333V42.8646C33.9062 43.8385 34.6927 44.6198 35.6615 44.6198H37.4167V49.8958C37.4167 50.8698 38.2083 51.651 39.1719 51.651H51.4792V59.2865C49.1302 60.1094 47.125 61.7604 45.8542 63.9583C41.1719 64.1406 37.4167 68.0104 37.4167 72.75C37.4167 77.0938 40.6667 80.8125 44.9792 81.4219C45.4219 81.5 45.8177 81.5417 46.2135 81.5417H51.4896V83.2969H39.1823C38.2083 83.2969 37.4219 84.0885 37.4219 85.0521V90.3281H35.6615C34.6927 90.3385 33.9062 91.1302 33.9062 92.1042V99.1354C33.9062 100.109 34.6927 100.891 35.6615 100.891H42.6927C43.6667 100.891 44.4479 100.099 44.4479 99.1354V92.1042C44.4479 91.1302 43.6563 90.349 42.6927 90.349H40.9375V86.8281H53.2448C54.2187 86.8281 55 86.0365 55 85.0729V81.5521H63.7865V90.3385H62.0313C61.0573 90.3385 60.276 91.1302 60.276 92.0938V99.125C60.276 100.099 61.0625 100.88 62.0313 100.88H69.0625C70.0365 100.88 70.8177 100.089 70.8177 99.125V92.0938C70.8177 91.1198 70.026 90.3385 69.0625 90.3385H67.3073V81.5521H77.8594V85.0729C77.8594 86.0469 78.6458 86.8281 79.6146 86.8281H91.9219V90.349H90.1615C89.1927 90.349 88.4063 91.1406 88.4063 92.1042V99.1354C88.4063 100.109 89.1979 100.891 90.1615 100.891H97.1979C98.1667 100.891 98.9531 100.099 98.9531 99.1354V92.1042C98.9531 91.1302 98.1615 90.349 97.1979 90.349H95.4375V85.0729C95.4375 84.099 94.651 83.3177 93.6823 83.3177H81.375V81.5625C84.9583 81.5625 88.2708 79.7708 90.224 76.7604C92.2344 73.6875 92.474 69.8854 90.9115 66.349C90.599 65.6458 90.1198 64.9583 89.5365 64.3698C86.7917 61.6042 83.9323 60.3177 80.8542 60.474C80.8542 60.4687 80.8542 60.4688 80.849 60.4583H81.3698V51.6615H81.375ZM91.9271 37.599H95.4375V41.1198H91.9219V37.599H91.9271ZM63.7917 37.599H67.3125V41.1198H63.7917V37.599ZM37.4219 37.599H40.9427V41.1198H37.4219V37.599ZM40.9375 97.3802H37.4219V93.8594H40.9427V97.3802H40.9375ZM67.3125 97.3802H63.7917V93.8594H67.3125V97.3802ZM95.4375 97.3802H91.9219V93.8594H95.4375V97.3802ZM87.0417 66.8385C87.3281 67.125 87.5573 67.4479 87.6979 67.7604C88.7708 70.1927 88.6146 72.7656 87.276 74.8229C85.974 76.8333 83.7656 78.0208 81.375 78.0208H46.2135C46.0313 78.0208 45.8281 78.0052 45.5781 77.9531C45.5521 77.9427 45.526 77.9427 45.5 77.9427C42.901 77.5885 40.9375 75.3542 40.9375 72.75C40.9375 69.8333 43.3021 67.474 46.2135 67.474C46.2552 67.474 46.3594 67.4896 46.4479 67.5C46.5417 67.5156 46.6354 67.526 46.7396 67.5313C47.5052 67.6094 48.2344 67.1823 48.5313 66.474C49.6458 63.875 52.1823 62.1979 55 62.1979C56.0313 62.1979 57.0677 62.4479 58.0729 62.9427C58.5521 63.1771 59.1094 63.1875 59.5885 62.9583C60.0677 62.7344 60.4219 62.3073 60.5521 61.7969C61.5365 57.8958 65.0365 55.1667 69.0625 55.1667C73.3802 55.1667 77.1198 58.3906 77.7448 62.6667C77.8125 63.151 78.0833 63.5781 78.4844 63.8542C78.8802 64.1354 79.3802 64.2292 79.8542 64.125C81.5833 63.7708 83.9583 63.7344 87.0417 66.8385Z" fill="white"/>
</g>
<defs>
<linearGradient id="paint0_linear_16_6077" x1="133.684" y1="133.84" x2="0.683511" y2="0.840094" gradientUnits="userSpaceOnUse">
<stop stop-color="#B2D6DD"/>
<stop offset="0.25" stop-color="#B2D6DD"/>
<stop offset="0.3125" stop-color="#B2D6DD"/>
<stop offset="0.34375" stop-color="#B2D6DD"/>
<stop offset="0.351562" stop-color="#B2D6DD"/>
<stop offset="0.359375" stop-color="#B1D7DC"/>
<stop offset="0.367188" stop-color="#B1D7DC"/>
<stop offset="0.375" stop-color="#B1D8DB"/>
<stop offset="0.382812" stop-color="#B0D8DB"/>
<stop offset="0.390625" stop-color="#B0D9DA"/>
<stop offset="0.398438" stop-color="#B0D9DA"/>
<stop offset="0.40625" stop-color="#AFDAD9"/>
<stop offset="0.414062" stop-color="#AFDAD9"/>
<stop offset="0.421875" stop-color="#AFDBD8"/>
<stop offset="0.429688" stop-color="#AFDBD8"/>
<stop offset="0.4375" stop-color="#AEDCD7"/>
<stop offset="0.445313" stop-color="#AEDCD7"/>
<stop offset="0.453125" stop-color="#AEDDD6"/>
<stop offset="0.460938" stop-color="#ADDDD6"/>
<stop offset="0.46875" stop-color="#ADDED5"/>
<stop offset="0.476563" stop-color="#ADDED5"/>
<stop offset="0.484375" stop-color="#ACDFD4"/>
<stop offset="0.492188" stop-color="#ACDFD4"/>
<stop offset="0.5" stop-color="#ABE0D2"/>
<stop offset="0.507812" stop-color="#ABE0D2"/>
<stop offset="0.515625" stop-color="#ABE1D2"/>
<stop offset="0.523438" stop-color="#ABE1D1"/>
<stop offset="0.53125" stop-color="#AAE2D1"/>
<stop offset="0.539062" stop-color="#AAE2D0"/>
<stop offset="0.546875" stop-color="#AAE2D0"/>
<stop offset="0.554688" stop-color="#A9E3CF"/>
<stop offset="0.5625" stop-color="#A9E3CF"/>
<stop offset="0.570312" stop-color="#A9E4CE"/>
<stop offset="0.578125" stop-color="#A8E4CE"/>
<stop offset="0.585938" stop-color="#A8E5CD"/>
<stop offset="0.59375" stop-color="#A8E5CD"/>
<stop offset="0.601562" stop-color="#A7E6CC"/>
<stop offset="0.609375" stop-color="#A7E6CC"/>
<stop offset="0.617188" stop-color="#A7E7CB"/>
<stop offset="0.625" stop-color="#A6E7CB"/>
<stop offset="0.632812" stop-color="#A6E8CA"/>
<stop offset="0.640625" stop-color="#A6E8CA"/>
<stop offset="0.648438" stop-color="#A5E9C9"/>
<stop offset="0.65625" stop-color="#A5E9C9"/>
<stop offset="0.664062" stop-color="#A5EAC8"/>
<stop offset="0.671875" stop-color="#A5EAC8"/>
<stop offset="0.6875" stop-color="#A4EBC7"/>
<stop offset="0.75" stop-color="#A4EBC7"/>
<stop offset="1" stop-color="#A4EBC7"/>
</linearGradient>
</defs>
</svg>
