<svg width="134" height="134" viewBox="0 0 134 134" fill="none" xmlns="http://www.w3.org/2000/svg">
<mask id="mask0_16_6075" style="mask-type:luminance" maskUnits="userSpaceOnUse" x="0" y="0" width="134" height="134">
<path d="M0.885376 0.880188H133.885V133.88H0.885376V0.880188Z" fill="white"/>
</mask>
<g mask="url(#mask0_16_6075)">
<mask id="mask1_16_6075" style="mask-type:luminance" maskUnits="userSpaceOnUse" x="0" y="0" width="135" height="135">
<path d="M134.167 67.5208C134.167 69.7031 134.062 71.8802 133.849 74.0521C133.635 76.2239 133.312 78.3802 132.885 80.5208C132.464 82.6614 131.932 84.776 131.297 86.8646C130.667 88.9531 129.932 91.0052 129.094 93.0208C128.26 95.0416 127.328 97.0104 126.297 98.9375C125.271 100.859 124.151 102.729 122.937 104.547C121.724 106.359 120.427 108.109 119.042 109.797C117.656 111.484 116.193 113.099 114.651 114.641C113.104 116.187 111.49 117.651 109.802 119.036C108.115 120.422 106.365 121.719 104.552 122.932C102.734 124.146 100.865 125.266 98.9427 126.292C97.0156 127.323 95.0468 128.255 93.0312 129.089C91.0156 129.922 88.9583 130.656 86.8698 131.292C84.7812 131.927 82.6666 132.453 80.526 132.88C78.3854 133.307 76.2291 133.625 74.0573 133.839C71.8854 134.057 69.7083 134.161 67.526 134.161C65.3437 134.161 63.1666 134.057 60.9948 133.839C58.8229 133.625 56.6666 133.307 54.526 132.88C52.3854 132.453 50.2708 131.927 48.1823 131.292C46.0937 130.656 44.0416 129.922 42.026 129.089C40.0104 128.255 38.0364 127.323 36.1145 126.292C34.1875 125.266 32.3177 124.146 30.5052 122.932C28.6875 121.719 26.9375 120.422 25.25 119.036C23.5625 117.651 21.9479 116.187 20.4062 114.641C18.8645 113.099 17.3958 111.484 16.0156 109.797C14.6302 108.109 13.3281 106.359 12.1198 104.547C10.9062 102.729 9.78642 100.859 8.75517 98.9375C7.72913 97.0104 6.79683 95.0416 5.95829 93.0208C5.12496 91.0052 4.39059 88.9531 3.75517 86.8646C3.12496 84.776 2.59371 82.6614 2.16663 80.5208C1.73954 78.3802 1.42183 76.2239 1.20829 74.0521C0.994751 71.8802 0.885376 69.7031 0.885376 67.5208C0.885376 65.3385 0.994751 63.1614 1.20829 60.9896C1.42183 58.8177 1.73954 56.6614 2.16663 54.5208C2.59371 52.3802 3.12496 50.2656 3.75517 48.1771C4.39059 46.0885 5.12496 44.0364 5.95829 42.0208C6.79683 40 7.72913 38.0312 8.75517 36.1094C9.78642 34.1823 10.9062 32.3125 12.1198 30.5C13.3281 28.6823 14.6302 26.9323 16.0156 25.2448C17.3958 23.5573 18.8645 21.9427 20.4062 20.401C21.9479 18.8541 23.5625 17.3906 25.25 16.0052C26.9375 14.625 28.6875 13.3229 30.5052 12.1094C32.3177 10.901 34.1875 9.77602 36.1145 8.74998C38.0364 7.71873 40.0104 6.78644 42.026 5.9531C44.0416 5.11977 46.0937 4.3854 48.1823 3.74998C50.2708 3.11456 52.3854 2.58852 54.526 2.16144C56.6666 1.73435 58.8229 1.41665 60.9948 1.2031C63.1666 0.989563 65.3437 0.880188 67.526 0.880188C69.7083 0.880188 71.8854 0.989563 74.0573 1.2031C76.2291 1.41665 78.3854 1.73435 80.526 2.16144C82.6666 2.58852 84.7812 3.11456 86.8698 3.74998C88.9583 4.3854 91.0156 5.11977 93.0312 5.9531C95.0468 6.78644 97.0156 7.71873 98.9427 8.74998C100.865 9.77602 102.734 10.901 104.552 12.1094C106.365 13.3229 108.115 14.625 109.802 16.0052C111.49 17.3906 113.104 18.8541 114.651 20.401C116.193 21.9427 117.656 23.5573 119.042 25.2448C120.427 26.9323 121.724 28.6823 122.937 30.5C124.151 32.3125 125.271 34.1823 126.297 36.1094C127.328 38.0312 128.26 40 129.094 42.0208C129.932 44.0364 130.667 46.0885 131.297 48.1771C131.932 50.2656 132.464 52.3802 132.885 54.5208C133.312 56.6614 133.635 58.8177 133.849 60.9896C134.062 63.1614 134.167 65.3385 134.167 67.5208Z" fill="white"/>
</mask>
<g mask="url(#mask1_16_6075)">
<path d="M0.885376 0.880188V133.88H133.885V0.880188H0.885376Z" fill="url(#paint0_linear_16_6075)"/>
</g>
</g>
<mask id="mask2_16_6075" style="mask-type:luminance" maskUnits="userSpaceOnUse" x="41" y="64" width="55" height="39">
<path d="M41.3334 63.9999H96V102.953H41.3334V63.9999Z" fill="white"/>
</mask>
<g mask="url(#mask2_16_6075)">
<path d="M91.6094 97.901C91.6094 98.8177 90.8646 99.5521 89.9583 99.5521H78.375C77.4583 99.5521 76.7292 98.8073 76.7292 97.901V80.7291C76.7292 77.9896 74.5052 75.7708 71.7708 75.7708H65.1458C62.4063 75.7708 60.1875 77.9896 60.1875 80.7291V97.901C60.1875 98.8177 59.4427 99.5521 58.5365 99.5521H46.9115C45.9948 99.5521 45.2656 98.8073 45.2656 97.901V64.8021H41.9531V97.901C41.9531 100.641 44.1771 102.865 46.9115 102.865H58.4948C61.2344 102.865 63.4531 100.641 63.4531 97.901V80.7291C63.4531 79.8125 64.2031 79.0833 65.1042 79.0833H71.724C72.6458 79.0833 73.375 79.8281 73.375 80.7291V97.901C73.375 100.641 75.599 102.865 78.3333 102.865H89.9167C92.6563 102.865 94.875 100.641 94.875 97.901V64.8021H91.5625L91.6094 97.901Z" fill="white"/>
</g>
<mask id="mask3_16_6075" style="mask-type:luminance" maskUnits="userSpaceOnUse" x="32" y="33" width="73" height="34">
<path d="M32.5938 33.9531H104.594V66.6667H32.5938V33.9531Z" fill="white"/>
</mask>
<g mask="url(#mask3_16_6075)">
<path d="M71.6562 35.5886C69.776 33.9844 67.0677 33.9844 65.1875 35.5886L32.5937 63.5417L34.7448 66.0521L67.3541 38.099C67.9843 37.5677 68.8854 37.5677 69.5052 38.099L102.115 66.0521L104.266 63.5417L71.6562 35.5886Z" fill="white"/>
</g>
<defs>
<linearGradient id="paint0_linear_16_6075" x1="133.887" y1="133.88" x2="0.886716" y2="0.88037" gradientUnits="userSpaceOnUse">
<stop stop-color="#B2D6DD"/>
<stop offset="0.25" stop-color="#B2D6DD"/>
<stop offset="0.3125" stop-color="#B2D6DD"/>
<stop offset="0.34375" stop-color="#B2D6DD"/>
<stop offset="0.351563" stop-color="#B2D6DD"/>
<stop offset="0.359375" stop-color="#B1D7DC"/>
<stop offset="0.367188" stop-color="#B1D7DC"/>
<stop offset="0.375" stop-color="#B1D8DB"/>
<stop offset="0.382813" stop-color="#B0D8DB"/>
<stop offset="0.390625" stop-color="#B0D9DA"/>
<stop offset="0.398438" stop-color="#B0D9DA"/>
<stop offset="0.40625" stop-color="#AFDAD9"/>
<stop offset="0.414062" stop-color="#AFDAD9"/>
<stop offset="0.421875" stop-color="#AFDBD8"/>
<stop offset="0.429688" stop-color="#AFDBD8"/>
<stop offset="0.4375" stop-color="#AEDCD7"/>
<stop offset="0.445313" stop-color="#AEDCD7"/>
<stop offset="0.453125" stop-color="#AEDDD6"/>
<stop offset="0.460938" stop-color="#ADDDD6"/>
<stop offset="0.46875" stop-color="#ADDED5"/>
<stop offset="0.476563" stop-color="#ADDED5"/>
<stop offset="0.484375" stop-color="#ACDFD4"/>
<stop offset="0.492188" stop-color="#ACDFD4"/>
<stop offset="0.5" stop-color="#ABE0D2"/>
<stop offset="0.507812" stop-color="#ABE0D2"/>
<stop offset="0.515625" stop-color="#ABE1D2"/>
<stop offset="0.523438" stop-color="#ABE1D1"/>
<stop offset="0.53125" stop-color="#AAE2D1"/>
<stop offset="0.539063" stop-color="#AAE2D0"/>
<stop offset="0.546875" stop-color="#AAE2D0"/>
<stop offset="0.554688" stop-color="#A9E3CF"/>
<stop offset="0.5625" stop-color="#A9E3CF"/>
<stop offset="0.570312" stop-color="#A9E4CE"/>
<stop offset="0.578125" stop-color="#A8E4CE"/>
<stop offset="0.585938" stop-color="#A8E5CD"/>
<stop offset="0.59375" stop-color="#A8E5CD"/>
<stop offset="0.601562" stop-color="#A7E6CC"/>
<stop offset="0.609375" stop-color="#A7E6CC"/>
<stop offset="0.617188" stop-color="#A7E7CB"/>
<stop offset="0.625" stop-color="#A6E7CB"/>
<stop offset="0.632813" stop-color="#A6E8CA"/>
<stop offset="0.640625" stop-color="#A6E8CA"/>
<stop offset="0.648438" stop-color="#A5E9C9"/>
<stop offset="0.65625" stop-color="#A5E9C9"/>
<stop offset="0.664062" stop-color="#A5EAC8"/>
<stop offset="0.671875" stop-color="#A5EAC8"/>
<stop offset="0.6875" stop-color="#A4EBC7"/>
<stop offset="0.75" stop-color="#A4EBC7"/>
<stop offset="1" stop-color="#A4EBC7"/>
</linearGradient>
</defs>
</svg>
