<svg width="134" height="134" viewBox="0 0 134 134" fill="none" xmlns="http://www.w3.org/2000/svg">
<mask id="mask0_19_6083" style="mask-type:luminance" maskUnits="userSpaceOnUse" x="0" y="0" width="134" height="134">
<path d="M0.786438 0.348969H133.786V133.349H0.786438V0.348969Z" fill="white"/>
</mask>
<g mask="url(#mask0_19_6083)">
<mask id="mask1_19_6083" style="mask-type:luminance" maskUnits="userSpaceOnUse" x="0" y="0" width="135" height="134">
<path d="M134.068 66.9896C134.068 69.1719 133.958 71.349 133.745 73.5208C133.531 75.6927 133.214 77.849 132.786 79.9896C132.359 82.1302 131.828 84.2448 131.198 86.3333C130.562 88.4219 129.828 90.474 128.995 92.4896C128.156 94.5052 127.224 96.4792 126.198 98.4011C125.167 100.328 124.047 102.198 122.833 104.01C121.625 105.828 120.323 107.578 118.937 109.266C117.557 110.953 116.094 112.568 114.547 114.109C113.005 115.651 111.391 117.115 109.703 118.5C108.016 119.885 106.266 121.182 104.448 122.396C102.635 123.609 100.766 124.729 98.8385 125.76C96.9166 126.786 94.9427 127.719 92.9271 128.557C90.9114 129.391 88.8594 130.125 86.7708 130.76C84.6823 131.391 82.5677 131.922 80.4271 132.349C78.2864 132.776 76.1302 133.094 73.9583 133.307C71.7864 133.521 69.6094 133.63 67.4271 133.63C65.2448 133.63 63.0677 133.521 60.8958 133.307C58.7239 133.094 56.5677 132.776 54.4271 132.349C52.2864 131.922 50.1719 131.391 48.0833 130.76C45.9948 130.125 43.9375 129.391 41.9219 128.557C39.9062 127.719 37.9375 126.786 36.0104 125.76C34.0885 124.729 32.2187 123.609 30.401 122.396C28.5885 121.182 26.8385 119.885 25.151 118.5C23.4635 117.115 21.8489 115.651 20.3021 114.109C18.7604 112.568 17.2969 110.953 15.9114 109.266C14.526 107.578 13.2291 105.828 12.0156 104.01C10.8021 102.198 9.68227 100.328 8.65623 98.4011C7.62498 96.4792 6.69269 94.5052 5.85935 92.4896C5.02081 90.474 4.28644 88.4219 3.65623 86.3333C3.02081 84.2448 2.48956 82.1302 2.06769 79.9896C1.64061 77.849 1.31769 75.6927 1.10415 73.5208C0.890605 71.349 0.786438 69.1719 0.786438 66.9896C0.786438 64.8073 0.890605 62.6302 1.10415 60.4583C1.31769 58.2813 1.64061 56.125 2.06769 53.9844C2.48956 51.8438 3.02081 49.7292 3.65623 47.6406C4.28644 45.5521 5.02081 43.5 5.85935 41.4844C6.69269 39.4688 7.62498 37.5 8.65623 35.5729C9.68227 33.6511 10.8021 31.7813 12.0156 29.9636C13.2291 28.1511 14.526 26.4011 15.9114 24.7136C17.2969 23.0261 18.7604 21.4115 20.3021 19.8646C21.8489 18.3229 23.4635 16.8594 25.151 15.474C26.8385 14.0886 28.5885 12.7917 30.401 11.5781C32.2187 10.3646 34.0885 9.2448 36.0104 8.21355C37.9375 7.18751 39.9062 6.25522 41.9219 5.42189C43.9375 4.58334 45.9948 3.84897 48.0833 3.21876C50.1719 2.58334 52.2864 2.05209 54.4271 1.63022C56.5677 1.20314 58.7239 0.880218 60.8958 0.666677C63.0677 0.453136 65.2448 0.348969 67.4271 0.348969C69.6094 0.348969 71.7864 0.453136 73.9583 0.666677C76.1302 0.880218 78.2864 1.20314 80.4271 1.63022C82.5677 2.05209 84.6823 2.58334 86.7708 3.21876C88.8594 3.84897 90.9114 4.58334 92.9271 5.42189C94.9427 6.25522 96.9166 7.18751 98.8385 8.21355C100.766 9.2448 102.635 10.3646 104.448 11.5781C106.266 12.7917 108.016 14.0886 109.703 15.474C111.391 16.8594 113.005 18.3229 114.547 19.8646C116.094 21.4115 117.557 23.0261 118.937 24.7136C120.323 26.4011 121.625 28.1511 122.833 29.9636C124.047 31.7813 125.167 33.6511 126.198 35.5729C127.224 37.5 128.156 39.4688 128.995 41.4844C129.828 43.5 130.562 45.5521 131.198 47.6406C131.828 49.7292 132.359 51.8438 132.786 53.9844C133.214 56.125 133.531 58.2813 133.745 60.4583C133.958 62.6302 134.068 64.8073 134.068 66.9896Z" fill="white"/>
</mask>
<g mask="url(#mask1_19_6083)">
<path d="M0.786438 0.348969V133.349H133.786V0.348969H0.786438Z" fill="url(#paint0_linear_19_6083)"/>
</g>
</g>
<path d="M94.1927 65.9739H54.0313V44.9271C54.0313 37.5573 60.0365 31.5469 67.4115 31.5469C74.7865 31.5469 80.7969 37.5573 80.7969 44.9271V56.401H84.6198V44.9271C84.6355 35.4531 76.9219 27.7239 67.4271 27.7239C57.9323 27.7239 50.2084 35.4531 50.2084 44.9271V65.9739H40.6459C37.4844 65.9739 34.9115 68.5469 34.9115 71.7135V102.318C34.9115 105.479 37.4844 108.052 40.6459 108.052H94.1927C97.3594 108.052 99.9271 105.479 99.9271 102.318V71.7135C99.948 68.5469 97.3594 65.9739 94.1927 65.9739ZM96.1198 102.318C96.1198 103.375 95.2709 104.229 94.2084 104.229H40.6459C39.5886 104.229 38.7344 103.375 38.7344 102.318V71.7135C38.7344 70.651 39.5886 69.7969 40.6459 69.7969H94.1927C95.2552 69.7969 96.1042 70.651 96.1042 71.7135V102.318H96.1198Z" fill="white"/>
<path d="M67.4271 75.5365C64.2657 75.5365 61.6927 78.1042 61.6927 81.2709C61.6927 83.7605 63.3021 85.8959 65.5157 86.6823V96.5782H69.3386V86.6823C71.573 85.8959 73.1667 83.7761 73.1667 81.2709C73.1667 78.1042 70.5938 75.5365 67.4271 75.5365ZM67.4271 83.1823C66.3698 83.1823 65.5157 82.3282 65.5157 81.2709C65.5157 80.2084 66.3698 79.3594 67.4271 79.3594C68.4896 79.3594 69.3386 80.2084 69.3386 81.2709C69.3386 82.3282 68.474 83.1823 67.4271 83.1823Z" fill="white"/>
<defs>
<linearGradient id="paint0_linear_19_6083" x1="133.785" y1="133.347" x2="0.785209" y2="0.347185" gradientUnits="userSpaceOnUse">
<stop stop-color="#B2D6DD"/>
<stop offset="0.25" stop-color="#B2D6DD"/>
<stop offset="0.3125" stop-color="#B2D6DD"/>
<stop offset="0.34375" stop-color="#B2D6DD"/>
<stop offset="0.351562" stop-color="#B2D6DD"/>
<stop offset="0.359375" stop-color="#B1D7DC"/>
<stop offset="0.367188" stop-color="#B1D7DC"/>
<stop offset="0.375" stop-color="#B1D8DB"/>
<stop offset="0.382812" stop-color="#B0D8DB"/>
<stop offset="0.390625" stop-color="#B0D9DA"/>
<stop offset="0.398438" stop-color="#B0D9DA"/>
<stop offset="0.40625" stop-color="#AFDAD9"/>
<stop offset="0.414062" stop-color="#AFDAD9"/>
<stop offset="0.421875" stop-color="#AFDBD8"/>
<stop offset="0.429688" stop-color="#AFDBD8"/>
<stop offset="0.4375" stop-color="#AEDCD7"/>
<stop offset="0.445312" stop-color="#AEDCD7"/>
<stop offset="0.453125" stop-color="#AEDDD6"/>
<stop offset="0.460937" stop-color="#ADDDD6"/>
<stop offset="0.46875" stop-color="#ADDED5"/>
<stop offset="0.476562" stop-color="#ADDED5"/>
<stop offset="0.484375" stop-color="#ACDFD4"/>
<stop offset="0.492187" stop-color="#ACDFD4"/>
<stop offset="0.5" stop-color="#ABE0D3"/>
<stop offset="0.507812" stop-color="#ABE0D2"/>
<stop offset="0.515625" stop-color="#ABE1D2"/>
<stop offset="0.523438" stop-color="#ABE1D1"/>
<stop offset="0.53125" stop-color="#AAE2D1"/>
<stop offset="0.539062" stop-color="#AAE2D0"/>
<stop offset="0.546875" stop-color="#AAE2D0"/>
<stop offset="0.554688" stop-color="#A9E3CF"/>
<stop offset="0.5625" stop-color="#A9E3CF"/>
<stop offset="0.570312" stop-color="#A9E4CE"/>
<stop offset="0.578125" stop-color="#A8E4CE"/>
<stop offset="0.585938" stop-color="#A8E5CD"/>
<stop offset="0.59375" stop-color="#A8E5CD"/>
<stop offset="0.601562" stop-color="#A7E6CC"/>
<stop offset="0.609375" stop-color="#A7E6CC"/>
<stop offset="0.617188" stop-color="#A7E7CB"/>
<stop offset="0.625" stop-color="#A6E7CB"/>
<stop offset="0.632812" stop-color="#A6E8CA"/>
<stop offset="0.640625" stop-color="#A6E8CA"/>
<stop offset="0.648438" stop-color="#A5E9C9"/>
<stop offset="0.65625" stop-color="#A5E9C9"/>
<stop offset="0.664062" stop-color="#A5EAC8"/>
<stop offset="0.671875" stop-color="#A5EAC8"/>
<stop offset="0.6875" stop-color="#A4EBC7"/>
<stop offset="0.75" stop-color="#A4EBC7"/>
<stop offset="1" stop-color="#A4EBC7"/>
</linearGradient>
</defs>
</svg>
