<svg width="149" height="138" viewBox="0 0 149 138" fill="none" xmlns="http://www.w3.org/2000/svg">
<mask id="mask0_16_6071" style="mask-type:luminance" maskUnits="userSpaceOnUse" x="9" y="4" width="134" height="134">
<path d="M9.88538 4.875H142.885V137.875H9.88538V4.875Z" fill="white"/>
</mask>
<g mask="url(#mask0_16_6071)">
<mask id="mask1_16_6071" style="mask-type:luminance" maskUnits="userSpaceOnUse" x="9" y="4" width="135" height="135">
<path d="M143.167 71.5156C143.167 73.6979 143.062 75.875 142.849 78.0469C142.635 80.2188 142.312 82.375 141.885 84.5156C141.464 86.6563 140.932 88.7708 140.297 90.8594C139.667 92.9479 138.932 95.0052 138.094 97.0208C137.26 99.0365 136.328 101.005 135.297 102.932C134.271 104.854 133.151 106.724 131.937 108.542C130.724 110.354 129.427 112.104 128.042 113.792C126.656 115.479 125.193 117.094 123.651 118.641C122.104 120.182 120.49 121.646 118.802 123.031C117.115 124.417 115.365 125.714 113.552 126.927C111.734 128.141 109.865 129.26 107.943 130.286C106.016 131.318 104.047 132.25 102.031 133.083C100.016 133.922 97.9583 134.656 95.8698 135.286C93.7812 135.922 91.6666 136.453 89.526 136.875C87.3854 137.302 85.2291 137.625 83.0573 137.839C80.8854 138.052 78.7083 138.156 76.526 138.156C74.3437 138.156 72.1666 138.052 69.9948 137.839C67.8229 137.625 65.6666 137.302 63.526 136.875C61.3854 136.453 59.2708 135.922 57.1823 135.286C55.0937 134.656 53.0416 133.922 51.026 133.083C49.0104 132.25 47.0364 131.318 45.1145 130.286C43.1875 129.26 41.3177 128.141 39.5052 126.927C37.6875 125.714 35.9375 124.417 34.25 123.031C32.5625 121.646 30.9479 120.182 29.4062 118.641C27.8645 117.094 26.3958 115.479 25.0156 113.792C23.6302 112.104 22.3281 110.354 21.1198 108.542C19.9062 106.724 18.7864 104.854 17.7552 102.932C16.7291 101.005 15.7968 99.0365 14.9583 97.0208C14.125 95.0052 13.3906 92.9479 12.7552 90.8594C12.125 88.7708 11.5937 86.6563 11.1666 84.5156C10.7395 82.375 10.4218 80.2188 10.2083 78.0469C9.99475 75.875 9.88538 73.6979 9.88538 71.5156C9.88538 69.3333 9.99475 67.1563 10.2083 64.9844C10.4218 62.8125 10.7395 60.6563 11.1666 58.5156C11.5937 56.375 12.125 54.2604 12.7552 52.1719C13.3906 50.0833 14.125 48.0313 14.9583 46.0156C15.7968 44 16.7291 42.026 17.7552 40.1042C18.7864 38.1771 19.9062 36.3073 21.1198 34.4948C22.3281 32.6771 23.6302 30.9271 25.0156 29.2396C26.3958 27.5521 27.8645 25.9375 29.4062 24.3958C30.9479 22.8542 32.5625 21.3854 34.25 20.0052C35.9375 18.6198 37.6875 17.3177 39.5052 16.1094C41.3177 14.8958 43.1875 13.776 45.1145 12.7448C47.0364 11.7187 49.0104 10.7865 51.026 9.94792C53.0416 9.11458 55.0937 8.38021 57.1823 7.74479C59.2708 7.11458 61.3854 6.58333 63.526 6.15625C65.6666 5.72917 67.8229 5.41146 69.9948 5.19792C72.1666 4.98437 74.3437 4.875 76.526 4.875C78.7083 4.875 80.8854 4.98437 83.0573 5.19792C85.2291 5.41146 87.3854 5.72917 89.526 6.15625C91.6666 6.58333 93.7812 7.11458 95.8698 7.74479C97.9583 8.38021 100.016 9.11458 102.031 9.94792C104.047 10.7865 106.016 11.7187 107.943 12.7448C109.865 13.776 111.734 14.8958 113.552 16.1094C115.365 17.3177 117.115 18.6198 118.802 20.0052C120.49 21.3854 122.104 22.8542 123.651 24.3958C125.193 25.9375 126.656 27.5521 128.042 29.2396C129.427 30.9271 130.724 32.6771 131.937 34.4948C133.151 36.3073 134.271 38.1771 135.297 40.1042C136.328 42.026 137.26 44 138.094 46.0156C138.932 48.0313 139.667 50.0833 140.297 52.1719C140.932 54.2604 141.464 56.375 141.885 58.5156C142.312 60.6563 142.635 62.8125 142.849 64.9844C143.062 67.1563 143.167 69.3333 143.167 71.5156Z" fill="white"/>
</mask>
<g mask="url(#mask1_16_6071)">
<path d="M9.88538 4.875V137.875H142.885V4.875H9.88538Z" fill="url(#paint0_linear_16_6071)"/>
</g>
</g>
<mask id="mask2_16_6071" style="mask-type:luminance" maskUnits="userSpaceOnUse" x="68" y="96" width="18" height="8">
<path d="M68.3334 96H85.6667V103.073H68.3334V96Z" fill="white"/>
</mask>
<g mask="url(#mask2_16_6071)">
<path d="M77.427 100.224C75.0833 100.224 72.9687 98.8333 72.0208 96.6823L69.3229 97.8594C70.7343 101.078 73.9114 103.167 77.427 103.167C80.9948 103.167 84.1875 101.052 85.5729 97.7708L82.8645 96.6146C81.927 98.8073 79.802 100.224 77.427 100.224Z" fill="white"/>
</g>
<mask id="mask3_16_6071" style="mask-type:luminance" maskUnits="userSpaceOnUse" x="47" y="38" width="60" height="57">
<path d="M47.8959 38.0729H106.896V94.6667H47.8959V38.0729Z" fill="white"/>
</mask>
<g mask="url(#mask3_16_6071)">
<path d="M106.375 90.25L98.5937 83.7656C98.2552 83.4792 98.0625 83.0781 98.0625 82.6354V64.8386C98.0625 59.1458 95.7916 53.8438 91.6666 49.9115C89.2448 47.6042 86.3645 45.9688 83.25 45.0625C83.3177 44.6094 83.3437 44.1563 83.302 43.6771C83.0833 41.1563 81.2291 39.0208 78.7916 38.474C77 38.0729 75.1614 38.4896 73.7448 39.6146C72.3437 40.7448 71.5416 42.4167 71.5416 44.2188C71.5416 44.5156 71.5937 44.7917 71.6302 45.0729C63.0208 47.6458 56.7968 55.7604 56.7968 65.3854V82.6198C56.7968 83.0625 56.5989 83.4792 56.2604 83.75L48.4791 90.2344C48.1458 90.5208 47.9479 90.9375 47.9479 91.3646V92.8438C47.9479 93.6615 48.6093 94.3229 49.427 94.3229H105.432C106.245 94.3229 106.906 93.6615 106.906 92.8438V91.3646C106.896 90.9375 106.703 90.5208 106.375 90.25ZM74.4739 44.2188C74.4739 43.3125 74.875 42.4792 75.5729 41.9115C76.2864 41.3386 77.1823 41.1302 78.1302 41.3386C79.3073 41.6146 80.2448 42.6875 80.3593 43.9219C80.375 44.0886 80.3489 44.2604 80.3333 44.4271C79.052 44.2448 77.7552 44.1823 76.4166 44.2344C75.7708 44.2604 75.1198 44.3229 74.4843 44.4271C74.5 44.349 74.4739 44.2865 74.4739 44.2188ZM51.7239 91.375L58.1406 86.0208C59.1562 85.1771 59.7395 83.9427 59.7395 82.6198V65.3854C59.7395 55.6198 67.1302 47.6198 76.5729 47.1771C81.4739 46.9427 86.1041 48.6823 89.6354 52.0417C93.1614 55.4115 95.1041 59.9531 95.1041 64.8386V82.6198C95.1041 83.9323 95.6875 85.1771 96.7031 86.0208L103.12 91.375H51.7239Z" fill="white"/>
</g>
<defs>
<linearGradient id="paint0_linear_16_6071" x1="142.887" y1="137.877" x2="9.88681" y2="4.87655" gradientUnits="userSpaceOnUse">
<stop stop-color="#B2D6DD"/>
<stop offset="0.25" stop-color="#B2D6DD"/>
<stop offset="0.3125" stop-color="#B2D6DD"/>
<stop offset="0.34375" stop-color="#B2D6DD"/>
<stop offset="0.351562" stop-color="#B2D6DD"/>
<stop offset="0.359375" stop-color="#B1D7DC"/>
<stop offset="0.367187" stop-color="#B1D7DC"/>
<stop offset="0.375" stop-color="#B1D8DB"/>
<stop offset="0.382812" stop-color="#B0D8DB"/>
<stop offset="0.390625" stop-color="#B0D9DA"/>
<stop offset="0.398438" stop-color="#B0D9DA"/>
<stop offset="0.40625" stop-color="#AFDAD9"/>
<stop offset="0.414062" stop-color="#AFDAD9"/>
<stop offset="0.421875" stop-color="#AFDBD8"/>
<stop offset="0.429687" stop-color="#AFDBD8"/>
<stop offset="0.4375" stop-color="#AEDCD7"/>
<stop offset="0.445312" stop-color="#AEDCD7"/>
<stop offset="0.453125" stop-color="#AEDDD6"/>
<stop offset="0.460937" stop-color="#ADDDD6"/>
<stop offset="0.46875" stop-color="#ADDED5"/>
<stop offset="0.476562" stop-color="#ADDED5"/>
<stop offset="0.484375" stop-color="#ACDFD4"/>
<stop offset="0.492188" stop-color="#ACDFD4"/>
<stop offset="0.5" stop-color="#ABE0D2"/>
<stop offset="0.507812" stop-color="#ABE0D2"/>
<stop offset="0.515625" stop-color="#ABE1D2"/>
<stop offset="0.523438" stop-color="#ABE1D1"/>
<stop offset="0.53125" stop-color="#AAE2D1"/>
<stop offset="0.539062" stop-color="#AAE2D0"/>
<stop offset="0.546875" stop-color="#AAE2D0"/>
<stop offset="0.554687" stop-color="#A9E3CF"/>
<stop offset="0.5625" stop-color="#A9E3CF"/>
<stop offset="0.570312" stop-color="#A9E4CE"/>
<stop offset="0.578125" stop-color="#A8E4CE"/>
<stop offset="0.585938" stop-color="#A8E5CD"/>
<stop offset="0.59375" stop-color="#A8E5CD"/>
<stop offset="0.601562" stop-color="#A7E6CC"/>
<stop offset="0.609375" stop-color="#A7E6CC"/>
<stop offset="0.617188" stop-color="#A7E7CB"/>
<stop offset="0.625" stop-color="#A6E7CB"/>
<stop offset="0.632812" stop-color="#A6E8CA"/>
<stop offset="0.640625" stop-color="#A6E8CA"/>
<stop offset="0.648437" stop-color="#A5E9C9"/>
<stop offset="0.65625" stop-color="#A5E9C9"/>
<stop offset="0.664062" stop-color="#A5EAC8"/>
<stop offset="0.671875" stop-color="#A5EAC8"/>
<stop offset="0.6875" stop-color="#A4EBC7"/>
<stop offset="0.75" stop-color="#A4EBC7"/>
<stop offset="1" stop-color="#A4EBC7"/>
</linearGradient>
</defs>
</svg>
