<svg xmlns="http://www.w3.org/2000/svg" xmlns:xlink="http://www.w3.org/1999/xlink" width="218" zoomAndPan="magnify" viewBox="0 0 163.5 163.499993" height="218" preserveAspectRatio="xMidYMid meet" version="1.0"><defs><clipPath id="6cf13a7a63"><path d="M 0.617188 0.507812 L 162.871094 0.507812 L 162.871094 162.761719 L 0.617188 162.761719 Z M 0.617188 0.507812 " clip-rule="nonzero"/></clipPath><clipPath id="3638e9ac11"><path d="M 162.859375 81.628906 C 162.859375 82.957031 162.824219 84.285156 162.761719 85.609375 C 162.695312 86.933594 162.597656 88.257812 162.46875 89.582031 C 162.335938 90.902344 162.175781 92.21875 161.980469 93.53125 C 161.785156 94.84375 161.558594 96.152344 161.300781 97.453125 C 161.039062 98.757812 160.75 100.050781 160.425781 101.339844 C 160.105469 102.628906 159.75 103.90625 159.363281 105.175781 C 158.980469 106.449219 158.5625 107.707031 158.117188 108.957031 C 157.667969 110.207031 157.191406 111.445312 156.683594 112.671875 C 156.175781 113.898438 155.636719 115.113281 155.070312 116.3125 C 154.5 117.511719 153.90625 118.699219 153.277344 119.871094 C 152.652344 121.039062 152 122.195312 151.316406 123.332031 C 150.632812 124.472656 149.925781 125.59375 149.1875 126.699219 C 148.449219 127.800781 147.683594 128.886719 146.894531 129.953125 C 146.101562 131.019531 145.285156 132.066406 144.445312 133.089844 C 143.601562 134.117188 142.734375 135.121094 141.84375 136.105469 C 140.953125 137.089844 140.035156 138.050781 139.097656 138.992188 C 138.160156 139.929688 137.199219 140.84375 136.214844 141.734375 C 135.230469 142.628906 134.226562 143.496094 133.199219 144.335938 C 132.171875 145.179688 131.125 145.996094 130.058594 146.785156 C 128.992188 147.578125 127.910156 148.339844 126.804688 149.078125 C 125.703125 149.816406 124.578125 150.527344 123.441406 151.207031 C 122.300781 151.890625 121.148438 152.546875 119.976562 153.171875 C 118.804688 153.796875 117.621094 154.394531 116.421875 154.960938 C 115.21875 155.527344 114.007812 156.066406 112.78125 156.574219 C 111.554688 157.082031 110.316406 157.5625 109.066406 158.007812 C 107.816406 158.457031 106.554688 158.871094 105.285156 159.257812 C 104.015625 159.640625 102.734375 159.996094 101.449219 160.320312 C 100.160156 160.640625 98.863281 160.933594 97.5625 161.191406 C 96.261719 161.449219 94.953125 161.675781 93.640625 161.871094 C 92.328125 162.066406 91.007812 162.230469 89.6875 162.359375 C 88.367188 162.488281 87.042969 162.585938 85.71875 162.652344 C 84.390625 162.71875 83.0625 162.75 81.738281 162.75 C 80.410156 162.75 79.082031 162.71875 77.757812 162.652344 C 76.429688 162.585938 75.105469 162.488281 73.785156 162.359375 C 72.464844 162.230469 71.148438 162.066406 69.832031 161.871094 C 68.519531 161.675781 67.210938 161.449219 65.910156 161.191406 C 64.609375 160.933594 63.3125 160.640625 62.027344 160.320312 C 60.738281 159.996094 59.457031 159.640625 58.1875 159.257812 C 56.917969 158.871094 55.65625 158.457031 54.40625 158.007812 C 53.15625 157.5625 51.917969 157.082031 50.691406 156.574219 C 49.464844 156.066406 48.253906 155.527344 47.054688 154.960938 C 45.851562 154.394531 44.667969 153.796875 43.496094 153.171875 C 42.324219 152.546875 41.171875 151.890625 40.03125 151.207031 C 38.894531 150.527344 37.773438 149.816406 36.667969 149.078125 C 35.5625 148.339844 34.480469 147.578125 33.414062 146.785156 C 32.347656 145.996094 31.300781 145.179688 30.273438 144.335938 C 29.246094 143.496094 28.242188 142.628906 27.257812 141.734375 C 26.277344 140.84375 25.3125 139.929688 24.375 138.992188 C 23.4375 138.050781 22.523438 137.089844 21.628906 136.105469 C 20.738281 135.121094 19.871094 134.117188 19.027344 133.089844 C 18.1875 132.066406 17.371094 131.019531 16.578125 129.953125 C 15.789062 128.886719 15.023438 127.800781 14.285156 126.699219 C 13.550781 125.59375 12.839844 124.472656 12.15625 123.332031 C 11.472656 122.195312 10.820312 121.039062 10.195312 119.871094 C 9.570312 118.699219 8.972656 117.511719 8.402344 116.3125 C 7.835938 115.113281 7.296875 113.898438 6.789062 112.671875 C 6.28125 111.445312 5.804688 110.207031 5.359375 108.957031 C 4.910156 107.707031 4.492188 106.449219 4.109375 105.175781 C 3.722656 103.90625 3.371094 102.628906 3.046875 101.339844 C 2.722656 100.050781 2.433594 98.757812 2.175781 97.453125 C 1.914062 96.152344 1.6875 94.84375 1.492188 93.53125 C 1.300781 92.21875 1.136719 90.902344 1.007812 89.582031 C 0.875 88.257812 0.777344 86.933594 0.714844 85.609375 C 0.648438 84.285156 0.617188 82.957031 0.617188 81.628906 C 0.617188 80.300781 0.648438 78.976562 0.714844 77.648438 C 0.777344 76.324219 0.875 75 1.007812 73.679688 C 1.136719 72.355469 1.300781 71.039062 1.492188 69.726562 C 1.6875 68.414062 1.914062 67.105469 2.175781 65.804688 C 2.433594 64.5 2.722656 63.207031 3.046875 61.917969 C 3.371094 60.628906 3.722656 59.351562 4.109375 58.082031 C 4.492188 56.808594 4.910156 55.550781 5.359375 54.300781 C 5.804688 53.050781 6.28125 51.8125 6.789062 50.585938 C 7.296875 49.359375 7.835938 48.144531 8.402344 46.945312 C 8.972656 45.746094 9.570312 44.558594 10.195312 43.390625 C 10.820312 42.21875 11.472656 41.0625 12.15625 39.925781 C 12.839844 38.785156 13.550781 37.664062 14.285156 36.5625 C 15.023438 35.457031 15.789062 34.371094 16.578125 33.304688 C 17.371094 32.238281 18.1875 31.191406 19.027344 30.167969 C 19.871094 29.140625 20.738281 28.136719 21.628906 27.152344 C 22.523438 26.167969 23.4375 25.207031 24.375 24.269531 C 25.3125 23.328125 26.277344 22.414062 27.257812 21.523438 C 28.242188 20.628906 29.246094 19.765625 30.273438 18.921875 C 31.300781 18.078125 32.347656 17.261719 33.414062 16.472656 C 34.480469 15.679688 35.5625 14.917969 36.667969 14.179688 C 37.773438 13.441406 38.894531 12.730469 40.03125 12.050781 C 41.171875 11.367188 42.324219 10.710938 43.496094 10.085938 C 44.667969 9.460938 45.851562 8.863281 47.054688 8.296875 C 48.253906 7.730469 49.464844 7.191406 50.691406 6.683594 C 51.917969 6.175781 53.15625 5.695312 54.40625 5.25 C 55.65625 4.804688 56.917969 4.386719 58.1875 4 C 59.457031 3.617188 60.738281 3.261719 62.027344 2.9375 C 63.3125 2.617188 64.609375 2.324219 65.910156 2.066406 C 67.210938 1.808594 68.519531 1.582031 69.832031 1.386719 C 71.148438 1.191406 72.464844 1.027344 73.785156 0.898438 C 75.105469 0.769531 76.429688 0.671875 77.757812 0.605469 C 79.082031 0.539062 80.410156 0.507812 81.738281 0.507812 C 83.0625 0.507812 84.390625 0.539062 85.71875 0.605469 C 87.042969 0.671875 88.367188 0.769531 89.6875 0.898438 C 91.007812 1.027344 92.328125 1.191406 93.640625 1.386719 C 94.953125 1.582031 96.261719 1.808594 97.5625 2.066406 C 98.863281 2.324219 100.160156 2.617188 101.449219 2.9375 C 102.734375 3.261719 104.015625 3.617188 105.285156 4 C 106.554688 4.386719 107.816406 4.804688 109.066406 5.25 C 110.316406 5.695312 111.554688 6.175781 112.78125 6.683594 C 114.007812 7.191406 115.21875 7.730469 116.421875 8.296875 C 117.621094 8.863281 118.804688 9.460938 119.976562 10.085938 C 121.148438 10.710938 122.300781 11.367188 123.441406 12.050781 C 124.578125 12.730469 125.703125 13.441406 126.804688 14.179688 C 127.910156 14.917969 128.992188 15.679688 130.058594 16.472656 C 131.125 17.261719 132.171875 18.078125 133.199219 18.921875 C 134.226562 19.765625 135.230469 20.628906 136.214844 21.523438 C 137.199219 22.414062 138.160156 23.328125 139.097656 24.269531 C 140.035156 25.207031 140.953125 26.167969 141.84375 27.152344 C 142.734375 28.136719 143.601562 29.140625 144.445312 30.167969 C 145.285156 31.191406 146.101562 32.238281 146.894531 33.304688 C 147.683594 34.371094 148.449219 35.457031 149.1875 36.5625 C 149.925781 37.664062 150.632812 38.785156 151.316406 39.925781 C 152 41.0625 152.652344 42.21875 153.277344 43.390625 C 153.90625 44.558594 154.5 45.746094 155.070312 46.945312 C 155.636719 48.144531 156.175781 49.359375 156.683594 50.585938 C 157.191406 51.8125 157.667969 53.050781 158.117188 54.300781 C 158.5625 55.550781 158.980469 56.808594 159.363281 58.082031 C 159.75 59.351562 160.105469 60.628906 160.425781 61.917969 C 160.75 63.207031 161.039062 64.5 161.300781 65.804688 C 161.558594 67.105469 161.785156 68.414062 161.980469 69.726562 C 162.175781 71.039062 162.335938 72.355469 162.46875 73.679688 C 162.597656 75 162.695312 76.324219 162.761719 77.648438 C 162.824219 78.976562 162.859375 80.300781 162.859375 81.628906 Z M 162.859375 81.628906 " clip-rule="nonzero"/></clipPath><linearGradient x1="499.999974" gradientTransform="matrix(0.324484, 0, 0, 0.324484, 0.615666, 0.507996)" y1="499.999974" x2="0.00000746142" gradientUnits="userSpaceOnUse" y2="0.00000746142" id="86017a6078"><stop stop-opacity="1" stop-color="rgb(69.799805%, 83.898926%, 86.698914%)" offset="0"/><stop stop-opacity="1" stop-color="rgb(69.799805%, 83.898926%, 86.698914%)" offset="0.25"/><stop stop-opacity="1" stop-color="rgb(69.799805%, 83.898926%, 86.698914%)" offset="0.3125"/><stop stop-opacity="1" stop-color="rgb(69.795227%, 83.905029%, 86.69281%)" offset="0.34375"/><stop stop-opacity="1" stop-color="rgb(69.726562%, 84.007263%, 86.585999%)" offset="0.351562"/><stop stop-opacity="1" stop-color="rgb(69.599915%, 84.197998%, 86.384583%)" offset="0.359375"/><stop stop-opacity="1" stop-color="rgb(69.473267%, 84.390259%, 86.183167%)" offset="0.367187"/><stop stop-opacity="1" stop-color="rgb(69.346619%, 84.580994%, 85.983276%)" offset="0.375"/><stop stop-opacity="1" stop-color="rgb(69.219971%, 84.773254%, 85.78186%)" offset="0.382812"/><stop stop-opacity="1" stop-color="rgb(69.091797%, 84.963989%, 85.58197%)" offset="0.390625"/><stop stop-opacity="1" stop-color="rgb(68.965149%, 85.15625%, 85.380554%)" offset="0.398438"/><stop stop-opacity="1" stop-color="rgb(68.838501%, 85.346985%, 85.180664%)" offset="0.40625"/><stop stop-opacity="1" stop-color="rgb(68.711853%, 85.539246%, 84.979248%)" offset="0.414062"/><stop stop-opacity="1" stop-color="rgb(68.585205%, 85.72998%, 84.779358%)" offset="0.421875"/><stop stop-opacity="1" stop-color="rgb(68.458557%, 85.922241%, 84.577942%)" offset="0.429687"/><stop stop-opacity="1" stop-color="rgb(68.331909%, 86.112976%, 84.378052%)" offset="0.4375"/><stop stop-opacity="1" stop-color="rgb(68.203735%, 86.305237%, 84.176636%)" offset="0.445312"/><stop stop-opacity="1" stop-color="rgb(68.077087%, 86.495972%, 83.976746%)" offset="0.453125"/><stop stop-opacity="1" stop-color="rgb(67.950439%, 86.688232%, 83.77533%)" offset="0.460937"/><stop stop-opacity="1" stop-color="rgb(67.823792%, 86.878967%, 83.575439%)" offset="0.46875"/><stop stop-opacity="1" stop-color="rgb(67.697144%, 87.069702%, 83.374023%)" offset="0.476562"/><stop stop-opacity="1" stop-color="rgb(67.570496%, 87.261963%, 83.174133%)" offset="0.484375"/><stop stop-opacity="1" stop-color="rgb(67.443848%, 87.452698%, 82.972717%)" offset="0.492188"/><stop stop-opacity="1" stop-color="rgb(67.315674%, 87.644958%, 82.772827%)" offset="0.5"/><stop stop-opacity="1" stop-color="rgb(67.253113%, 87.741089%, 82.672119%)" offset="0.5"/><stop stop-opacity="1" stop-color="rgb(67.189026%, 87.835693%, 82.571411%)" offset="0.507812"/><stop stop-opacity="1" stop-color="rgb(67.062378%, 88.027954%, 82.371521%)" offset="0.515625"/><stop stop-opacity="1" stop-color="rgb(66.93573%, 88.218689%, 82.170105%)" offset="0.523438"/><stop stop-opacity="1" stop-color="rgb(66.809082%, 88.41095%, 81.970215%)" offset="0.53125"/><stop stop-opacity="1" stop-color="rgb(66.682434%, 88.601685%, 81.768799%)" offset="0.539062"/><stop stop-opacity="1" stop-color="rgb(66.555786%, 88.793945%, 81.568909%)" offset="0.546875"/><stop stop-opacity="1" stop-color="rgb(66.427612%, 88.98468%, 81.367493%)" offset="0.554687"/><stop stop-opacity="1" stop-color="rgb(66.300964%, 89.176941%, 81.167603%)" offset="0.5625"/><stop stop-opacity="1" stop-color="rgb(66.174316%, 89.367676%, 80.966187%)" offset="0.570312"/><stop stop-opacity="1" stop-color="rgb(66.047668%, 89.559937%, 80.766296%)" offset="0.578125"/><stop stop-opacity="1" stop-color="rgb(65.921021%, 89.750671%, 80.56488%)" offset="0.585938"/><stop stop-opacity="1" stop-color="rgb(65.794373%, 89.941406%, 80.36499%)" offset="0.59375"/><stop stop-opacity="1" stop-color="rgb(65.667725%, 90.133667%, 80.163574%)" offset="0.601562"/><stop stop-opacity="1" stop-color="rgb(65.539551%, 90.324402%, 79.963684%)" offset="0.609375"/><stop stop-opacity="1" stop-color="rgb(65.412903%, 90.516663%, 79.762268%)" offset="0.617188"/><stop stop-opacity="1" stop-color="rgb(65.286255%, 90.707397%, 79.562378%)" offset="0.625"/><stop stop-opacity="1" stop-color="rgb(65.159607%, 90.899658%, 79.360962%)" offset="0.632812"/><stop stop-opacity="1" stop-color="rgb(65.032959%, 91.090393%, 79.161072%)" offset="0.640625"/><stop stop-opacity="1" stop-color="rgb(64.906311%, 91.282654%, 78.959656%)" offset="0.648437"/><stop stop-opacity="1" stop-color="rgb(64.779663%, 91.473389%, 78.759766%)" offset="0.65625"/><stop stop-opacity="1" stop-color="rgb(64.653015%, 91.665649%, 78.55835%)" offset="0.664062"/><stop stop-opacity="1" stop-color="rgb(64.524841%, 91.856384%, 78.356934%)" offset="0.671875"/><stop stop-opacity="1" stop-color="rgb(64.379883%, 92.076111%, 78.128052%)" offset="0.6875"/><stop stop-opacity="1" stop-color="rgb(64.299011%, 92.199707%, 77.999878%)" offset="0.75"/><stop stop-opacity="1" stop-color="rgb(64.299011%, 92.199707%, 77.999878%)" offset="1"/></linearGradient><clipPath id="30b13bc6b2"><path d="M 39.957031 37.878906 L 123.699219 37.878906 L 123.699219 125.359375 L 39.957031 125.359375 Z M 39.957031 37.878906 " clip-rule="nonzero"/></clipPath></defs><g clip-path="url(#6cf13a7a63)"><g clip-path="url(#3638e9ac11)"><path fill="url(#86017a6078)" d="M 0.617188 0.507812 L 0.617188 162.75 L 162.859375 162.75 L 162.859375 0.507812 Z M 0.617188 0.507812 " fill-rule="nonzero"/></g></g><g clip-path="url(#30b13bc6b2)"><path fill="#ffffff" d="M 108.429688 46.632812 L 104.367188 46.632812 L 104.367188 40.566406 C 104.367188 39.105469 103.179688 37.929688 101.730469 37.929688 C 100.269531 37.929688 99.09375 39.117188 99.09375 40.566406 L 99.09375 46.644531 L 62.871094 46.644531 L 62.871094 40.566406 C 62.871094 39.105469 61.683594 37.929688 60.234375 37.929688 C 58.773438 37.929688 57.597656 39.117188 57.597656 40.566406 L 57.597656 46.644531 L 55.039062 46.644531 C 46.707031 46.644531 39.957031 53.394531 39.957031 61.726562 L 39.957031 110.25 C 39.957031 118.578125 46.707031 125.332031 55.039062 125.332031 L 108.429688 125.332031 C 116.761719 125.332031 123.511719 118.578125 123.511719 110.25 L 123.511719 61.726562 C 123.523438 53.394531 116.761719 46.632812 108.429688 46.632812 Z M 99.082031 49.421875 L 99.082031 54.898438 C 99.082031 56.359375 100.269531 57.535156 101.71875 57.535156 C 103.179688 57.535156 104.355469 56.347656 104.355469 54.898438 L 104.355469 49.628906 C 106.042969 50.609375 107.1875 52.4375 107.1875 54.527344 C 107.1875 57.65625 104.648438 60.191406 101.523438 60.191406 C 98.398438 60.191406 95.859375 57.65625 95.859375 54.527344 C 95.882812 52.273438 97.1875 50.335938 99.082031 49.421875 Z M 57.589844 49.519531 L 57.589844 54.898438 C 57.589844 56.359375 58.773438 57.535156 60.222656 57.535156 C 61.683594 57.535156 62.859375 56.347656 62.859375 54.898438 L 62.859375 49.519531 C 64.65625 50.464844 65.875 52.351562 65.875 54.519531 C 65.875 57.644531 63.339844 60.179688 60.214844 60.179688 C 57.085938 60.179688 54.550781 57.644531 54.550781 54.519531 C 54.570312 52.351562 55.800781 50.464844 57.589844 49.519531 Z M 118.242188 110.238281 C 118.242188 115.648438 113.839844 120.039062 108.4375 120.039062 L 55.039062 120.039062 C 49.625 120.039062 45.238281 115.640625 45.238281 110.238281 L 45.238281 70.046875 L 118.242188 70.046875 Z M 118.242188 110.238281 " fill-opacity="1" fill-rule="nonzero"/></g><path fill="#ffffff" d="M 62.945312 85.265625 L 55.636719 85.265625 C 55.050781 85.265625 54.570312 84.785156 54.570312 84.195312 L 54.570312 76.886719 C 54.570312 76.300781 55.050781 75.820312 55.636719 75.820312 L 62.945312 75.820312 C 63.535156 75.820312 64.015625 76.300781 64.015625 76.886719 L 64.015625 84.195312 C 64.003906 84.785156 63.535156 85.265625 62.945312 85.265625 Z M 62.945312 85.265625 " fill-opacity="1" fill-rule="nonzero"/><path fill="#ffffff" d="M 62.945312 100.25 L 55.636719 100.25 C 55.050781 100.25 54.570312 99.769531 54.570312 99.183594 L 54.570312 91.875 C 54.570312 91.285156 55.050781 90.808594 55.636719 90.808594 L 62.945312 90.808594 C 63.535156 90.808594 64.015625 91.285156 64.015625 91.875 L 64.015625 99.183594 C 64.003906 99.78125 63.535156 100.25 62.945312 100.25 Z M 62.945312 100.25 " fill-opacity="1" fill-rule="nonzero"/><path fill="#ffffff" d="M 62.945312 115.246094 L 55.636719 115.246094 C 55.050781 115.246094 54.570312 114.769531 54.570312 114.179688 L 54.570312 106.871094 C 54.570312 106.285156 55.050781 105.804688 55.636719 105.804688 L 62.945312 105.804688 C 63.535156 105.804688 64.015625 106.285156 64.015625 106.871094 L 64.015625 114.191406 C 64.003906 114.769531 63.535156 115.246094 62.945312 115.246094 Z M 62.945312 115.246094 " fill-opacity="1" fill-rule="nonzero"/><path fill="#ffffff" d="M 77.933594 85.265625 L 70.625 85.265625 C 70.035156 85.265625 69.558594 84.785156 69.558594 84.195312 L 69.558594 76.886719 C 69.558594 76.300781 70.035156 75.820312 70.625 75.820312 L 77.933594 75.820312 C 78.519531 75.820312 79 76.300781 79 76.886719 L 79 84.195312 C 79 84.785156 78.519531 85.265625 77.933594 85.265625 Z M 77.933594 85.265625 " fill-opacity="1" fill-rule="nonzero"/><path fill="#ffffff" d="M 77.933594 100.25 L 70.625 100.25 C 70.035156 100.25 69.558594 99.769531 69.558594 99.183594 L 69.558594 91.875 C 69.558594 91.285156 70.035156 90.808594 70.625 90.808594 L 77.933594 90.808594 C 78.519531 90.808594 79 91.285156 79 91.875 L 79 99.183594 C 79 99.78125 78.519531 100.25 77.933594 100.25 Z M 77.933594 100.25 " fill-opacity="1" fill-rule="nonzero"/><path fill="#ffffff" d="M 77.933594 115.246094 L 70.625 115.246094 C 70.035156 115.246094 69.558594 114.769531 69.558594 114.179688 L 69.558594 106.871094 C 69.558594 106.285156 70.035156 105.804688 70.625 105.804688 L 77.933594 105.804688 C 78.519531 105.804688 79 106.285156 79 106.871094 L 79 114.191406 C 79 114.769531 78.519531 115.246094 77.933594 115.246094 Z M 77.933594 115.246094 " fill-opacity="1" fill-rule="nonzero"/><path fill="#ffffff" d="M 92.929688 85.265625 L 85.621094 85.265625 C 85.035156 85.265625 84.554688 84.785156 84.554688 84.195312 L 84.554688 76.886719 C 84.554688 76.300781 85.035156 75.820312 85.621094 75.820312 L 92.929688 75.820312 C 93.519531 75.820312 93.996094 76.300781 93.996094 76.886719 L 93.996094 84.195312 C 93.988281 84.785156 93.519531 85.265625 92.929688 85.265625 Z M 92.929688 85.265625 " fill-opacity="1" fill-rule="nonzero"/><path fill="#ffffff" d="M 92.929688 100.25 L 85.621094 100.25 C 85.035156 100.25 84.554688 99.769531 84.554688 99.183594 L 84.554688 91.875 C 84.554688 91.285156 85.035156 90.808594 85.621094 90.808594 L 92.929688 90.808594 C 93.519531 90.808594 93.996094 91.285156 93.996094 91.875 L 93.996094 99.183594 C 93.988281 99.78125 93.519531 100.25 92.929688 100.25 Z M 92.929688 100.25 " fill-opacity="1" fill-rule="nonzero"/><path fill="#ffffff" d="M 92.929688 115.246094 L 85.621094 115.246094 C 85.035156 115.246094 84.554688 114.769531 84.554688 114.179688 L 84.554688 106.871094 C 84.554688 106.285156 85.035156 105.804688 85.621094 105.804688 L 92.929688 105.804688 C 93.519531 105.804688 93.996094 106.285156 93.996094 106.871094 L 93.996094 114.191406 C 93.988281 114.769531 93.519531 115.246094 92.929688 115.246094 Z M 92.929688 115.246094 " fill-opacity="1" fill-rule="nonzero"/><path fill="#ffffff" d="M 107.925781 85.265625 L 100.621094 85.265625 C 100.03125 85.265625 99.550781 84.785156 99.550781 84.195312 L 99.550781 76.886719 C 99.550781 76.300781 100.03125 75.820312 100.621094 75.820312 L 107.925781 75.820312 C 108.515625 75.820312 108.996094 76.300781 108.996094 76.886719 L 108.996094 84.195312 C 108.984375 84.785156 108.503906 85.265625 107.925781 85.265625 Z M 107.925781 85.265625 " fill-opacity="1" fill-rule="nonzero"/><path fill="#ffffff" d="M 107.925781 100.25 L 100.621094 100.25 C 100.03125 100.25 99.550781 99.769531 99.550781 99.183594 L 99.550781 91.875 C 99.550781 91.285156 100.03125 90.808594 100.621094 90.808594 L 107.925781 90.808594 C 108.515625 90.808594 108.996094 91.285156 108.996094 91.875 L 108.996094 99.183594 C 108.984375 99.78125 108.503906 100.25 107.925781 100.25 Z M 107.925781 100.25 " fill-opacity="1" fill-rule="nonzero"/></svg>