<svg xmlns="http://www.w3.org/2000/svg" xmlns:xlink="http://www.w3.org/1999/xlink" width="205" zoomAndPan="magnify" viewBox="0 0 153.75 154.499995" height="206" preserveAspectRatio="xMidYMid meet" version="1.0"><defs><clipPath id="451d4c1990"><path d="M 0.339844 0.597656 L 153.378906 0.597656 L 153.378906 153.851562 L 0.339844 153.851562 Z M 0.339844 0.597656 " clip-rule="nonzero"/></clipPath><clipPath id="8ecede3b55"><path d="M 153.21875 77.035156 C 153.21875 78.289062 153.191406 79.539062 153.128906 80.789062 C 153.066406 82.035156 152.976562 83.285156 152.851562 84.527344 C 152.730469 85.773438 152.578125 87.015625 152.394531 88.253906 C 152.210938 89.492188 151.996094 90.722656 151.75 91.949219 C 151.507812 93.175781 151.234375 94.398438 150.929688 95.609375 C 150.625 96.824219 150.292969 98.027344 149.929688 99.226562 C 149.566406 100.421875 149.171875 101.609375 148.75 102.789062 C 148.332031 103.964844 147.878906 105.132812 147.402344 106.289062 C 146.921875 107.445312 146.414062 108.589844 145.882812 109.71875 C 145.347656 110.851562 144.785156 111.96875 144.195312 113.070312 C 143.605469 114.171875 142.988281 115.261719 142.34375 116.335938 C 141.703125 117.40625 141.03125 118.464844 140.335938 119.503906 C 139.644531 120.542969 138.921875 121.566406 138.175781 122.570312 C 137.433594 123.578125 136.664062 124.5625 135.867188 125.53125 C 135.074219 126.496094 134.257812 127.445312 133.417969 128.371094 C 132.578125 129.296875 131.714844 130.203125 130.832031 131.089844 C 129.945312 131.972656 129.039062 132.835938 128.113281 133.675781 C 127.1875 134.515625 126.238281 135.332031 125.273438 136.125 C 124.304688 136.917969 123.320312 137.6875 122.316406 138.433594 C 121.3125 139.179688 120.289062 139.898438 119.246094 140.59375 C 118.207031 141.289062 117.152344 141.957031 116.078125 142.601562 C 115.003906 143.246094 113.917969 143.859375 112.8125 144.449219 C 111.710938 145.039062 110.59375 145.601562 109.460938 146.136719 C 108.332031 146.671875 107.1875 147.179688 106.03125 147.660156 C 104.875 148.136719 103.710938 148.585938 102.53125 149.007812 C 101.355469 149.429688 100.167969 149.824219 98.96875 150.183594 C 97.773438 150.546875 96.566406 150.882812 95.351562 151.1875 C 94.140625 151.488281 92.917969 151.765625 91.691406 152.007812 C 90.464844 152.253906 89.234375 152.464844 87.996094 152.648438 C 86.757812 152.832031 85.515625 152.984375 84.273438 153.109375 C 83.027344 153.230469 81.78125 153.324219 80.53125 153.386719 C 79.28125 153.445312 78.03125 153.476562 76.78125 153.476562 C 75.527344 153.476562 74.277344 153.445312 73.03125 153.386719 C 71.78125 153.324219 70.53125 153.230469 69.289062 153.109375 C 68.042969 152.984375 66.800781 152.832031 65.5625 152.648438 C 64.328125 152.464844 63.09375 152.253906 61.867188 152.007812 C 60.640625 151.765625 59.421875 151.488281 58.207031 151.1875 C 56.992188 150.882812 55.789062 150.546875 54.589844 150.183594 C 53.394531 149.824219 52.207031 149.429688 51.027344 149.007812 C 49.851562 148.585938 48.683594 148.136719 47.527344 147.660156 C 46.371094 147.179688 45.230469 146.671875 44.097656 146.136719 C 42.964844 145.601562 41.851562 145.039062 40.746094 144.449219 C 39.644531 143.859375 38.554688 143.246094 37.480469 142.601562 C 36.410156 141.957031 35.351562 141.289062 34.3125 140.59375 C 33.273438 139.898438 32.25 139.179688 31.246094 138.433594 C 30.238281 137.6875 29.253906 136.917969 28.285156 136.125 C 27.320312 135.332031 26.371094 134.515625 25.445312 133.675781 C 24.519531 132.835938 23.613281 131.972656 22.730469 131.089844 C 21.84375 130.203125 20.980469 129.296875 20.140625 128.371094 C 19.300781 127.445312 18.484375 126.496094 17.691406 125.53125 C 16.898438 124.5625 16.128906 123.578125 15.382812 122.570312 C 14.636719 121.566406 13.917969 120.542969 13.222656 119.503906 C 12.527344 118.464844 11.859375 117.40625 11.214844 116.335938 C 10.570312 115.261719 9.957031 114.171875 9.367188 113.070312 C 8.777344 111.96875 8.214844 110.851562 7.679688 109.71875 C 7.144531 108.589844 6.636719 107.445312 6.160156 106.289062 C 5.679688 105.132812 5.230469 103.964844 4.808594 102.789062 C 4.386719 101.609375 3.996094 100.421875 3.632812 99.226562 C 3.269531 98.027344 2.933594 96.824219 2.628906 95.609375 C 2.328125 94.398438 2.054688 93.175781 1.808594 91.949219 C 1.566406 90.722656 1.351562 89.492188 1.167969 88.253906 C 0.984375 87.015625 0.832031 85.773438 0.707031 84.527344 C 0.585938 83.285156 0.492188 82.035156 0.433594 80.789062 C 0.371094 79.539062 0.339844 78.289062 0.339844 77.035156 C 0.339844 75.785156 0.371094 74.535156 0.433594 73.285156 C 0.492188 72.035156 0.585938 70.789062 0.707031 69.542969 C 0.832031 68.300781 0.984375 67.058594 1.167969 65.820312 C 1.351562 64.582031 1.566406 63.351562 1.808594 62.125 C 2.054688 60.898438 2.328125 59.675781 2.628906 58.464844 C 2.933594 57.25 3.269531 56.042969 3.632812 54.847656 C 3.996094 53.648438 4.386719 52.460938 4.808594 51.285156 C 5.230469 50.105469 5.679688 48.941406 6.160156 47.785156 C 6.636719 46.628906 7.144531 45.484375 7.679688 44.355469 C 8.214844 43.222656 8.777344 42.105469 9.367188 41.003906 C 9.957031 39.898438 10.570312 38.8125 11.214844 37.738281 C 11.859375 36.664062 12.527344 35.609375 13.222656 34.570312 C 13.917969 33.527344 14.636719 32.507812 15.382812 31.5 C 16.128906 30.496094 16.898438 29.511719 17.691406 28.542969 C 18.484375 27.578125 19.300781 26.628906 20.140625 25.703125 C 20.980469 24.777344 21.84375 23.871094 22.730469 22.984375 C 23.613281 22.101562 24.519531 21.238281 25.445312 20.398438 C 26.371094 19.558594 27.320312 18.742188 28.285156 17.949219 C 29.253906 17.152344 30.238281 16.382812 31.246094 15.640625 C 32.25 14.894531 33.273438 14.175781 34.3125 13.480469 C 35.351562 12.785156 36.410156 12.113281 37.480469 11.472656 C 38.554688 10.828125 39.644531 10.210938 40.746094 9.621094 C 41.851562 9.03125 42.964844 8.46875 44.097656 7.9375 C 45.230469 7.402344 46.371094 6.894531 47.527344 6.414062 C 48.683594 5.9375 49.851562 5.488281 51.027344 5.066406 C 52.207031 4.644531 53.394531 4.25 54.589844 3.886719 C 55.789062 3.523438 56.992188 3.191406 58.207031 2.886719 C 59.421875 2.582031 60.640625 2.308594 61.867188 2.066406 C 63.09375 1.820312 64.328125 1.609375 65.5625 1.425781 C 66.800781 1.242188 68.042969 1.085938 69.289062 0.964844 C 70.53125 0.84375 71.78125 0.75 73.03125 0.6875 C 74.277344 0.628906 75.527344 0.597656 76.78125 0.597656 C 78.03125 0.597656 79.28125 0.628906 80.53125 0.6875 C 81.78125 0.75 83.027344 0.84375 84.273438 0.964844 C 85.515625 1.085938 86.757812 1.242188 87.996094 1.425781 C 89.234375 1.609375 90.464844 1.820312 91.691406 2.066406 C 92.917969 2.308594 94.140625 2.582031 95.351562 2.886719 C 96.566406 3.191406 97.773438 3.523438 98.96875 3.886719 C 100.167969 4.25 101.355469 4.644531 102.53125 5.066406 C 103.710938 5.488281 104.875 5.9375 106.03125 6.414062 C 107.1875 6.894531 108.332031 7.402344 109.460938 7.9375 C 110.59375 8.46875 111.710938 9.03125 112.8125 9.621094 C 113.917969 10.210938 115.003906 10.828125 116.078125 11.472656 C 117.152344 12.113281 118.207031 12.785156 119.246094 13.480469 C 120.289062 14.175781 121.3125 14.894531 122.316406 15.640625 C 123.320312 16.382812 124.304688 17.152344 125.273438 17.949219 C 126.238281 18.742188 127.1875 19.558594 128.113281 20.398438 C 129.039062 21.238281 129.945312 22.101562 130.832031 22.984375 C 131.714844 23.871094 132.578125 24.777344 133.417969 25.703125 C 134.257812 26.628906 135.074219 27.578125 135.867188 28.542969 C 136.664062 29.511719 137.433594 30.496094 138.175781 31.5 C 138.921875 32.507812 139.644531 33.527344 140.335938 34.570312 C 141.03125 35.609375 141.703125 36.664062 142.34375 37.738281 C 142.988281 38.8125 143.605469 39.898438 144.195312 41.003906 C 144.785156 42.105469 145.347656 43.222656 145.882812 44.355469 C 146.414062 45.484375 146.921875 46.628906 147.402344 47.785156 C 147.878906 48.941406 148.332031 50.105469 148.75 51.285156 C 149.171875 52.460938 149.566406 53.648438 149.929688 54.847656 C 150.292969 56.042969 150.625 57.25 150.929688 58.464844 C 151.234375 59.675781 151.507812 60.898438 151.75 62.125 C 151.996094 63.351562 152.210938 64.582031 152.394531 65.820312 C 152.578125 67.058594 152.730469 68.300781 152.851562 69.542969 C 152.976562 70.789062 153.066406 72.035156 153.128906 73.285156 C 153.191406 74.535156 153.21875 75.785156 153.21875 77.035156 Z M 153.21875 77.035156 " clip-rule="nonzero"/></clipPath><linearGradient x1="499.999996" gradientTransform="matrix(0.30576, 0, 0, 0.30576, 0.339932, 0.596687)" y1="499.999996" x2="-0.00000292941" gradientUnits="userSpaceOnUse" y2="-0.00000292941" id="8ab2996535"><stop stop-opacity="1" stop-color="rgb(69.799805%, 83.898926%, 86.698914%)" offset="0"/><stop stop-opacity="1" stop-color="rgb(69.799805%, 83.898926%, 86.698914%)" offset="0.25"/><stop stop-opacity="1" stop-color="rgb(69.799805%, 83.898926%, 86.698914%)" offset="0.3125"/><stop stop-opacity="1" stop-color="rgb(69.795227%, 83.905029%, 86.69281%)" offset="0.34375"/><stop stop-opacity="1" stop-color="rgb(69.726562%, 84.007263%, 86.585999%)" offset="0.351562"/><stop stop-opacity="1" stop-color="rgb(69.599915%, 84.197998%, 86.384583%)" offset="0.359375"/><stop stop-opacity="1" stop-color="rgb(69.473267%, 84.390259%, 86.183167%)" offset="0.367187"/><stop stop-opacity="1" stop-color="rgb(69.346619%, 84.580994%, 85.983276%)" offset="0.375"/><stop stop-opacity="1" stop-color="rgb(69.219971%, 84.773254%, 85.78186%)" offset="0.382812"/><stop stop-opacity="1" stop-color="rgb(69.091797%, 84.963989%, 85.58197%)" offset="0.390625"/><stop stop-opacity="1" stop-color="rgb(68.965149%, 85.15625%, 85.380554%)" offset="0.398437"/><stop stop-opacity="1" stop-color="rgb(68.838501%, 85.346985%, 85.180664%)" offset="0.40625"/><stop stop-opacity="1" stop-color="rgb(68.711853%, 85.539246%, 84.979248%)" offset="0.414062"/><stop stop-opacity="1" stop-color="rgb(68.585205%, 85.72998%, 84.779358%)" offset="0.421875"/><stop stop-opacity="1" stop-color="rgb(68.458557%, 85.922241%, 84.577942%)" offset="0.429688"/><stop stop-opacity="1" stop-color="rgb(68.331909%, 86.112976%, 84.378052%)" offset="0.4375"/><stop stop-opacity="1" stop-color="rgb(68.203735%, 86.305237%, 84.176636%)" offset="0.445312"/><stop stop-opacity="1" stop-color="rgb(68.077087%, 86.495972%, 83.976746%)" offset="0.453125"/><stop stop-opacity="1" stop-color="rgb(67.950439%, 86.688232%, 83.77533%)" offset="0.460938"/><stop stop-opacity="1" stop-color="rgb(67.823792%, 86.878967%, 83.575439%)" offset="0.46875"/><stop stop-opacity="1" stop-color="rgb(67.697144%, 87.069702%, 83.374023%)" offset="0.476563"/><stop stop-opacity="1" stop-color="rgb(67.570496%, 87.261963%, 83.174133%)" offset="0.484375"/><stop stop-opacity="1" stop-color="rgb(67.443848%, 87.452698%, 82.972717%)" offset="0.492188"/><stop stop-opacity="1" stop-color="rgb(67.315674%, 87.644958%, 82.772827%)" offset="0.5"/><stop stop-opacity="1" stop-color="rgb(67.189026%, 87.835693%, 82.571411%)" offset="0.5"/><stop stop-opacity="1" stop-color="rgb(67.126465%, 87.931824%, 82.472229%)" offset="0.507812"/><stop stop-opacity="1" stop-color="rgb(67.062378%, 88.027954%, 82.371521%)" offset="0.515625"/><stop stop-opacity="1" stop-color="rgb(66.93573%, 88.218689%, 82.170105%)" offset="0.523438"/><stop stop-opacity="1" stop-color="rgb(66.809082%, 88.41095%, 81.970215%)" offset="0.53125"/><stop stop-opacity="1" stop-color="rgb(66.682434%, 88.601685%, 81.768799%)" offset="0.539062"/><stop stop-opacity="1" stop-color="rgb(66.555786%, 88.793945%, 81.568909%)" offset="0.546875"/><stop stop-opacity="1" stop-color="rgb(66.427612%, 88.98468%, 81.367493%)" offset="0.554688"/><stop stop-opacity="1" stop-color="rgb(66.300964%, 89.176941%, 81.167603%)" offset="0.5625"/><stop stop-opacity="1" stop-color="rgb(66.174316%, 89.367676%, 80.966187%)" offset="0.570312"/><stop stop-opacity="1" stop-color="rgb(66.047668%, 89.559937%, 80.766296%)" offset="0.578125"/><stop stop-opacity="1" stop-color="rgb(65.921021%, 89.750671%, 80.56488%)" offset="0.585937"/><stop stop-opacity="1" stop-color="rgb(65.794373%, 89.941406%, 80.36499%)" offset="0.59375"/><stop stop-opacity="1" stop-color="rgb(65.667725%, 90.133667%, 80.163574%)" offset="0.601562"/><stop stop-opacity="1" stop-color="rgb(65.539551%, 90.324402%, 79.963684%)" offset="0.609375"/><stop stop-opacity="1" stop-color="rgb(65.412903%, 90.516663%, 79.762268%)" offset="0.617187"/><stop stop-opacity="1" stop-color="rgb(65.286255%, 90.707397%, 79.562378%)" offset="0.625"/><stop stop-opacity="1" stop-color="rgb(65.159607%, 90.899658%, 79.360962%)" offset="0.632812"/><stop stop-opacity="1" stop-color="rgb(65.032959%, 91.090393%, 79.161072%)" offset="0.640625"/><stop stop-opacity="1" stop-color="rgb(64.906311%, 91.282654%, 78.959656%)" offset="0.648437"/><stop stop-opacity="1" stop-color="rgb(64.779663%, 91.473389%, 78.759766%)" offset="0.65625"/><stop stop-opacity="1" stop-color="rgb(64.653015%, 91.665649%, 78.55835%)" offset="0.664062"/><stop stop-opacity="1" stop-color="rgb(64.524841%, 91.856384%, 78.356934%)" offset="0.671875"/><stop stop-opacity="1" stop-color="rgb(64.379883%, 92.076111%, 78.128052%)" offset="0.6875"/><stop stop-opacity="1" stop-color="rgb(64.299011%, 92.199707%, 77.999878%)" offset="0.75"/><stop stop-opacity="1" stop-color="rgb(64.299011%, 92.199707%, 77.999878%)" offset="1"/></linearGradient><clipPath id="ee0f68474f"><path d="M 66 110 L 88 110 L 88 119.234375 L 66 119.234375 Z M 66 110 " clip-rule="nonzero"/></clipPath><clipPath id="3950ecddec"><path d="M 38.421875 35 L 115.421875 35 L 115.421875 108 L 38.421875 108 Z M 38.421875 35 " clip-rule="nonzero"/></clipPath></defs><g clip-path="url(#451d4c1990)"><g clip-path="url(#8ecede3b55)"><path fill="url(#8ab2996535)" d="M 0.339844 0.597656 L 0.339844 153.476562 L 153.21875 153.476562 L 153.21875 0.597656 Z M 0.339844 0.597656 " fill-rule="nonzero"/></g></g><g clip-path="url(#ee0f68474f)"><path fill="#ffffff" d="M 76.78125 115.492188 C 73.734375 115.492188 70.988281 113.6875 69.757812 110.890625 L 66.253906 112.425781 C 68.089844 116.605469 72.214844 119.316406 76.78125 119.316406 C 81.414062 119.316406 85.558594 116.570312 87.363281 112.308594 L 83.839844 110.808594 C 82.628906 113.65625 79.863281 115.492188 76.78125 115.492188 Z M 76.78125 115.492188 " fill-opacity="1" fill-rule="nonzero"/></g><g clip-path="url(#3950ecddec)"><path fill="#ffffff" d="M 114.386719 102.535156 L 104.277344 94.113281 C 103.839844 93.742188 103.585938 93.21875 103.585938 92.648438 L 103.585938 69.53125 C 103.585938 62.136719 100.636719 55.246094 95.28125 50.140625 C 92.128906 47.140625 88.390625 45.019531 84.347656 43.839844 C 84.429688 43.25 84.464844 42.660156 84.414062 42.035156 C 84.128906 38.769531 81.71875 35.988281 78.550781 35.28125 C 76.226562 34.757812 73.832031 35.296875 71.996094 36.761719 C 70.179688 38.230469 69.132812 40.402344 69.132812 42.742188 C 69.132812 43.132812 69.199219 43.484375 69.25 43.855469 C 58.0625 47.191406 49.976562 57.738281 49.976562 70.238281 L 49.976562 92.628906 C 49.976562 93.203125 49.726562 93.742188 49.285156 94.09375 L 39.179688 102.519531 C 38.738281 102.890625 38.488281 103.429688 38.488281 103.984375 L 38.488281 105.90625 C 38.488281 106.96875 39.347656 107.828125 40.40625 107.828125 L 113.15625 107.828125 C 114.21875 107.828125 115.078125 106.96875 115.078125 105.90625 L 115.078125 103.984375 C 115.058594 103.429688 114.808594 102.890625 114.386719 102.535156 Z M 72.941406 42.742188 C 72.941406 41.5625 73.464844 40.484375 74.371094 39.746094 C 75.300781 39.003906 76.460938 38.734375 77.691406 39.003906 C 79.226562 39.355469 80.4375 40.753906 80.589844 42.355469 C 80.605469 42.574219 80.574219 42.792969 80.554688 43.011719 C 78.886719 42.777344 77.203125 42.691406 75.46875 42.761719 C 74.625 42.792969 73.78125 42.878906 72.957031 43.011719 C 72.972656 42.914062 72.941406 42.828125 72.941406 42.742188 Z M 43.390625 104 L 51.730469 97.042969 C 53.042969 95.949219 53.800781 94.347656 53.800781 92.628906 L 53.800781 70.238281 C 53.800781 57.554688 63.40625 47.15625 75.671875 46.585938 C 82.039062 46.28125 88.054688 48.539062 92.636719 52.902344 C 97.21875 57.285156 99.746094 63.179688 99.746094 69.53125 L 99.746094 92.628906 C 99.746094 94.332031 100.503906 95.949219 101.816406 97.042969 L 110.15625 104 Z M 43.390625 104 " fill-opacity="1" fill-rule="nonzero"/></g></svg>