<svg xmlns="http://www.w3.org/2000/svg" xmlns:xlink="http://www.w3.org/1999/xlink" width="183" zoomAndPan="magnify" viewBox="0 0 137.25 137.249998" height="183" preserveAspectRatio="xMidYMid meet" version="1.0"><defs><clipPath id="4713c983a0"><path d="M 0.640625 0.40625 L 136.398438 0.40625 L 136.398438 136.164062 L 0.640625 136.164062 Z M 0.640625 0.40625 " clip-rule="nonzero"/></clipPath><clipPath id="dfbf212335"><path d="M 136.433594 68.300781 C 136.433594 69.410156 136.40625 70.523438 136.351562 71.632812 C 136.296875 72.742188 136.214844 73.851562 136.105469 74.957031 C 135.996094 76.0625 135.859375 77.164062 135.695312 78.261719 C 135.535156 79.363281 135.34375 80.457031 135.128906 81.546875 C 134.910156 82.636719 134.667969 83.71875 134.398438 84.796875 C 134.128906 85.875 133.832031 86.945312 133.507812 88.011719 C 133.1875 89.074219 132.835938 90.128906 132.464844 91.175781 C 132.089844 92.222656 131.6875 93.257812 131.265625 94.285156 C 130.839844 95.308594 130.386719 96.324219 129.914062 97.332031 C 129.4375 98.335938 128.9375 99.328125 128.414062 100.308594 C 127.890625 101.285156 127.34375 102.253906 126.773438 103.207031 C 126.199219 104.160156 125.605469 105.097656 124.988281 106.023438 C 124.371094 106.945312 123.734375 107.855469 123.070312 108.746094 C 122.410156 109.640625 121.726562 110.515625 121.019531 111.375 C 120.316406 112.234375 119.589844 113.074219 118.84375 113.898438 C 118.097656 114.722656 117.332031 115.523438 116.546875 116.3125 C 115.761719 117.097656 114.957031 117.863281 114.132812 118.609375 C 113.308594 119.355469 112.46875 120.082031 111.609375 120.785156 C 110.75 121.492188 109.875 122.175781 108.980469 122.835938 C 108.089844 123.496094 107.179688 124.136719 106.257812 124.753906 C 105.332031 125.371094 104.394531 125.964844 103.441406 126.539062 C 102.488281 127.109375 101.523438 127.65625 100.542969 128.179688 C 99.5625 128.703125 98.570312 129.203125 97.566406 129.679688 C 96.5625 130.152344 95.546875 130.605469 94.519531 131.027344 C 93.492188 131.453125 92.457031 131.855469 91.410156 132.226562 C 90.363281 132.601562 89.308594 132.953125 88.246094 133.273438 C 87.179688 133.597656 86.109375 133.894531 85.03125 134.164062 C 83.957031 134.433594 82.871094 134.675781 81.78125 134.894531 C 80.691406 135.109375 79.597656 135.300781 78.496094 135.460938 C 77.398438 135.625 76.296875 135.761719 75.191406 135.871094 C 74.085938 135.980469 72.976562 136.0625 71.867188 136.117188 C 70.757812 136.171875 69.648438 136.199219 68.535156 136.199219 C 67.425781 136.199219 66.3125 136.171875 65.203125 136.117188 C 64.09375 136.0625 62.988281 135.980469 61.878906 135.871094 C 60.773438 135.761719 59.671875 135.625 58.574219 135.460938 C 57.472656 135.300781 56.378906 135.109375 55.289062 134.894531 C 54.199219 134.675781 53.117188 134.433594 52.039062 134.164062 C 50.960938 133.894531 49.890625 133.597656 48.828125 133.273438 C 47.761719 132.953125 46.707031 132.601562 45.660156 132.226562 C 44.617188 131.855469 43.578125 131.453125 42.550781 131.027344 C 41.527344 130.605469 40.511719 130.152344 39.507812 129.679688 C 38.5 129.203125 37.507812 128.703125 36.53125 128.179688 C 35.550781 127.65625 34.582031 127.109375 33.628906 126.539062 C 32.675781 125.964844 31.738281 125.371094 30.8125 124.753906 C 29.890625 124.136719 28.980469 123.496094 28.089844 122.835938 C 27.195312 122.175781 26.320312 121.492188 25.460938 120.785156 C 24.601562 120.082031 23.761719 119.355469 22.9375 118.609375 C 22.117188 117.863281 21.3125 117.097656 20.527344 116.3125 C 19.738281 115.523438 18.972656 114.722656 18.226562 113.898438 C 17.480469 113.074219 16.753906 112.234375 16.050781 111.375 C 15.347656 110.515625 14.664062 109.640625 14 108.746094 C 13.339844 107.855469 12.699219 106.945312 12.082031 106.023438 C 11.464844 105.097656 10.871094 104.160156 10.296875 103.207031 C 9.726562 102.253906 9.179688 101.285156 8.65625 100.308594 C 8.132812 99.328125 7.632812 98.335938 7.15625 97.332031 C 6.683594 96.324219 6.234375 95.308594 5.808594 94.285156 C 5.382812 93.257812 4.980469 92.222656 4.609375 91.175781 C 4.234375 90.128906 3.886719 89.074219 3.5625 88.011719 C 3.238281 86.945312 2.945312 85.875 2.671875 84.796875 C 2.402344 83.71875 2.160156 82.636719 1.945312 81.546875 C 1.726562 80.457031 1.535156 79.363281 1.375 78.261719 C 1.210938 77.164062 1.074219 76.0625 0.964844 74.957031 C 0.855469 73.851562 0.773438 72.742188 0.722656 71.632812 C 0.667969 70.523438 0.640625 69.410156 0.640625 68.300781 C 0.640625 67.191406 0.667969 66.078125 0.722656 64.96875 C 0.773438 63.859375 0.855469 62.75 0.964844 61.644531 C 1.074219 60.539062 1.210938 59.4375 1.375 58.339844 C 1.535156 57.238281 1.726562 56.144531 1.945312 55.054688 C 2.160156 53.964844 2.402344 52.882812 2.671875 51.804688 C 2.945312 50.726562 3.238281 49.65625 3.5625 48.589844 C 3.886719 47.527344 4.234375 46.472656 4.609375 45.425781 C 4.980469 44.382812 5.382812 43.34375 5.808594 42.316406 C 6.234375 41.292969 6.683594 40.277344 7.15625 39.269531 C 7.632812 38.265625 8.132812 37.273438 8.65625 36.292969 C 9.179688 35.316406 9.726562 34.347656 10.296875 33.394531 C 10.871094 32.441406 11.464844 31.503906 12.082031 30.578125 C 12.699219 29.65625 13.339844 28.746094 14 27.855469 C 14.664062 26.960938 15.347656 26.085938 16.050781 25.226562 C 16.753906 24.367188 17.480469 23.527344 18.226562 22.703125 C 18.972656 21.882812 19.738281 21.078125 20.527344 20.289062 C 21.3125 19.503906 22.117188 18.738281 22.9375 17.992188 C 23.761719 17.246094 24.601562 16.519531 25.460938 15.816406 C 26.320312 15.109375 27.195312 14.429688 28.089844 13.765625 C 28.980469 13.105469 29.890625 12.464844 30.8125 11.847656 C 31.738281 11.230469 32.675781 10.636719 33.628906 10.0625 C 34.582031 9.492188 35.550781 8.945312 36.53125 8.421875 C 37.507812 7.898438 38.5 7.398438 39.507812 6.921875 C 40.511719 6.449219 41.527344 5.996094 42.550781 5.574219 C 43.578125 5.148438 44.617188 4.746094 45.660156 4.375 C 46.707031 4 47.761719 3.652344 48.828125 3.328125 C 49.890625 3.003906 50.960938 2.710938 52.039062 2.4375 C 53.117188 2.167969 54.199219 1.925781 55.289062 1.707031 C 56.378906 1.492188 57.472656 1.300781 58.574219 1.140625 C 59.671875 0.976562 60.773438 0.839844 61.878906 0.730469 C 62.988281 0.621094 64.09375 0.539062 65.203125 0.484375 C 66.3125 0.429688 67.425781 0.40625 68.535156 0.40625 C 69.648438 0.40625 70.757812 0.429688 71.867188 0.484375 C 72.976562 0.539062 74.085938 0.621094 75.191406 0.730469 C 76.296875 0.839844 77.398438 0.976562 78.496094 1.140625 C 79.597656 1.300781 80.691406 1.492188 81.78125 1.707031 C 82.871094 1.925781 83.957031 2.167969 85.03125 2.4375 C 86.109375 2.710938 87.179688 3.003906 88.246094 3.328125 C 89.308594 3.652344 90.363281 4 91.410156 4.375 C 92.457031 4.746094 93.492188 5.148438 94.519531 5.574219 C 95.546875 5.996094 96.5625 6.449219 97.566406 6.921875 C 98.570312 7.398438 99.5625 7.898438 100.542969 8.421875 C 101.523438 8.945312 102.488281 9.492188 103.441406 10.0625 C 104.394531 10.636719 105.332031 11.230469 106.257812 11.847656 C 107.179688 12.464844 108.089844 13.105469 108.980469 13.765625 C 109.875 14.429688 110.75 15.109375 111.609375 15.816406 C 112.46875 16.519531 113.308594 17.246094 114.132812 17.992188 C 114.957031 18.738281 115.761719 19.503906 116.546875 20.289062 C 117.332031 21.078125 118.097656 21.882812 118.84375 22.703125 C 119.589844 23.527344 120.316406 24.367188 121.019531 25.226562 C 121.726562 26.085938 122.410156 26.960938 123.070312 27.855469 C 123.734375 28.746094 124.371094 29.65625 124.988281 30.578125 C 125.605469 31.503906 126.199219 32.441406 126.773438 33.394531 C 127.34375 34.347656 127.890625 35.316406 128.414062 36.292969 C 128.9375 37.273438 129.4375 38.265625 129.914062 39.269531 C 130.386719 40.277344 130.839844 41.292969 131.265625 42.316406 C 131.6875 43.34375 132.089844 44.382812 132.464844 45.425781 C 132.835938 46.472656 133.1875 47.527344 133.507812 48.589844 C 133.832031 49.65625 134.128906 50.726562 134.398438 51.804688 C 134.667969 52.882812 134.910156 53.964844 135.128906 55.054688 C 135.34375 56.144531 135.535156 57.238281 135.695312 58.339844 C 135.859375 59.4375 135.996094 60.539062 136.105469 61.644531 C 136.214844 62.75 136.296875 63.859375 136.351562 64.96875 C 136.40625 66.078125 136.433594 67.191406 136.433594 68.300781 Z M 136.433594 68.300781 " clip-rule="nonzero"/></clipPath><linearGradient x1="499.871229" gradientTransform="matrix(0.271586, 0, 0, 0.271586, 0.639001, 0.404333)" y1="499.871229" x2="-0.00000995295" gradientUnits="userSpaceOnUse" y2="-0.00000995295" id="4ce3cabdae"><stop stop-opacity="1" stop-color="rgb(69.799805%, 83.898926%, 86.698914%)" offset="0"/><stop stop-opacity="1" stop-color="rgb(69.799805%, 83.898926%, 86.698914%)" offset="0.25"/><stop stop-opacity="1" stop-color="rgb(69.799805%, 83.898926%, 86.698914%)" offset="0.3125"/><stop stop-opacity="1" stop-color="rgb(69.793701%, 83.906555%, 86.689758%)" offset="0.34375"/><stop stop-opacity="1" stop-color="rgb(69.723511%, 84.011841%, 86.581421%)" offset="0.351562"/><stop stop-opacity="1" stop-color="rgb(69.596863%, 84.202576%, 86.380005%)" offset="0.359375"/><stop stop-opacity="1" stop-color="rgb(69.470215%, 84.394836%, 86.180115%)" offset="0.367187"/><stop stop-opacity="1" stop-color="rgb(69.343567%, 84.585571%, 85.978699%)" offset="0.375"/><stop stop-opacity="1" stop-color="rgb(69.216919%, 84.776306%, 85.778809%)" offset="0.382812"/><stop stop-opacity="1" stop-color="rgb(69.090271%, 84.968567%, 85.577393%)" offset="0.390625"/><stop stop-opacity="1" stop-color="rgb(68.963623%, 85.159302%, 85.377502%)" offset="0.398438"/><stop stop-opacity="1" stop-color="rgb(68.835449%, 85.351562%, 85.176086%)" offset="0.40625"/><stop stop-opacity="1" stop-color="rgb(68.708801%, 85.542297%, 84.976196%)" offset="0.414062"/><stop stop-opacity="1" stop-color="rgb(68.582153%, 85.734558%, 84.77478%)" offset="0.421875"/><stop stop-opacity="1" stop-color="rgb(68.455505%, 85.925293%, 84.57489%)" offset="0.429688"/><stop stop-opacity="1" stop-color="rgb(68.328857%, 86.116028%, 84.373474%)" offset="0.4375"/><stop stop-opacity="1" stop-color="rgb(68.202209%, 86.308289%, 84.173584%)" offset="0.445312"/><stop stop-opacity="1" stop-color="rgb(68.075562%, 86.499023%, 83.972168%)" offset="0.453125"/><stop stop-opacity="1" stop-color="rgb(67.948914%, 86.691284%, 83.772278%)" offset="0.460937"/><stop stop-opacity="1" stop-color="rgb(67.822266%, 86.882019%, 83.570862%)" offset="0.46875"/><stop stop-opacity="1" stop-color="rgb(67.694092%, 87.07428%, 83.370972%)" offset="0.476562"/><stop stop-opacity="1" stop-color="rgb(67.567444%, 87.265015%, 83.171082%)" offset="0.484375"/><stop stop-opacity="1" stop-color="rgb(67.440796%, 87.45575%, 82.969666%)" offset="0.492188"/><stop stop-opacity="1" stop-color="rgb(67.314148%, 87.64801%, 82.769775%)" offset="0.5"/><stop stop-opacity="1" stop-color="rgb(67.1875%, 87.838745%, 82.568359%)" offset="0.5"/><stop stop-opacity="1" stop-color="rgb(67.124939%, 87.934875%, 82.469177%)" offset="0.507812"/><stop stop-opacity="1" stop-color="rgb(67.060852%, 88.031006%, 82.368469%)" offset="0.515625"/><stop stop-opacity="1" stop-color="rgb(66.934204%, 88.221741%, 82.167053%)" offset="0.523437"/><stop stop-opacity="1" stop-color="rgb(66.807556%, 88.414001%, 81.967163%)" offset="0.53125"/><stop stop-opacity="1" stop-color="rgb(66.679382%, 88.604736%, 81.765747%)" offset="0.539062"/><stop stop-opacity="1" stop-color="rgb(66.552734%, 88.796997%, 81.565857%)" offset="0.546875"/><stop stop-opacity="1" stop-color="rgb(66.426086%, 88.987732%, 81.364441%)" offset="0.554688"/><stop stop-opacity="1" stop-color="rgb(66.299438%, 89.178467%, 81.164551%)" offset="0.5625"/><stop stop-opacity="1" stop-color="rgb(66.172791%, 89.370728%, 80.963135%)" offset="0.570312"/><stop stop-opacity="1" stop-color="rgb(66.046143%, 89.561462%, 80.763245%)" offset="0.578125"/><stop stop-opacity="1" stop-color="rgb(65.919495%, 89.753723%, 80.561829%)" offset="0.585938"/><stop stop-opacity="1" stop-color="rgb(65.792847%, 89.944458%, 80.361938%)" offset="0.59375"/><stop stop-opacity="1" stop-color="rgb(65.666199%, 90.136719%, 80.160522%)" offset="0.601562"/><stop stop-opacity="1" stop-color="rgb(65.538025%, 90.327454%, 79.960632%)" offset="0.609375"/><stop stop-opacity="1" stop-color="rgb(65.411377%, 90.518188%, 79.759216%)" offset="0.617187"/><stop stop-opacity="1" stop-color="rgb(65.284729%, 90.710449%, 79.559326%)" offset="0.625"/><stop stop-opacity="1" stop-color="rgb(65.158081%, 90.901184%, 79.35791%)" offset="0.632812"/><stop stop-opacity="1" stop-color="rgb(65.031433%, 91.093445%, 79.15802%)" offset="0.640625"/><stop stop-opacity="1" stop-color="rgb(64.904785%, 91.28418%, 78.956604%)" offset="0.648438"/><stop stop-opacity="1" stop-color="rgb(64.778137%, 91.47644%, 78.756714%)" offset="0.65625"/><stop stop-opacity="1" stop-color="rgb(64.651489%, 91.667175%, 78.555298%)" offset="0.664062"/><stop stop-opacity="1" stop-color="rgb(64.523315%, 91.85791%, 78.355408%)" offset="0.671875"/><stop stop-opacity="1" stop-color="rgb(64.379883%, 92.076111%, 78.128052%)" offset="0.6875"/><stop stop-opacity="1" stop-color="rgb(64.299011%, 92.199707%, 77.999878%)" offset="0.75"/><stop stop-opacity="1" stop-color="rgb(64.299011%, 92.199707%, 77.999878%)" offset="1"/></linearGradient><clipPath id="aa22500921"><path d="M 39.851562 32.941406 L 97.289062 32.941406 L 97.289062 103.804688 L 39.851562 103.804688 Z M 39.851562 32.941406 " clip-rule="nonzero"/></clipPath></defs><g clip-path="url(#4713c983a0)"><g clip-path="url(#dfbf212335)"><path fill="url(#4ce3cabdae)" d="M 0.640625 0.40625 L 0.640625 136.164062 L 136.398438 136.164062 L 136.398438 0.40625 Z M 0.640625 0.40625 " fill-rule="nonzero"/></g></g><g clip-path="url(#aa22500921)"><path fill="#ffffff" d="M 92.085938 66.617188 L 56.730469 66.617188 L 56.730469 48.089844 C 56.730469 41.597656 62.019531 36.308594 68.511719 36.308594 C 75.003906 36.308594 80.292969 41.597656 80.292969 48.089844 L 80.292969 58.1875 L 83.65625 58.1875 L 83.65625 48.089844 C 83.671875 39.746094 76.882812 32.941406 68.523438 32.941406 C 60.167969 32.941406 53.363281 39.746094 53.363281 48.089844 L 53.363281 66.617188 L 44.949219 66.617188 C 42.164062 66.617188 39.902344 68.878906 39.902344 71.664062 L 39.902344 98.605469 C 39.902344 101.390625 42.164062 103.652344 44.949219 103.652344 L 92.085938 103.652344 C 94.871094 103.652344 97.132812 101.390625 97.132812 98.605469 L 97.132812 71.664062 C 97.148438 68.878906 94.871094 66.617188 92.085938 66.617188 Z M 93.78125 98.605469 C 93.78125 99.539062 93.035156 100.289062 92.101562 100.289062 L 44.949219 100.289062 C 44.015625 100.289062 43.265625 99.539062 43.265625 98.605469 L 43.265625 71.664062 C 43.265625 70.730469 44.015625 69.980469 44.949219 69.980469 L 92.085938 69.980469 C 93.019531 69.980469 93.769531 70.730469 93.769531 71.664062 L 93.769531 98.605469 Z M 93.78125 98.605469 " fill-opacity="1" fill-rule="nonzero"/></g><path fill="#ffffff" d="M 68.523438 75.03125 C 65.738281 75.03125 63.476562 77.292969 63.476562 80.078125 C 63.476562 82.269531 64.890625 84.152344 66.84375 84.84375 L 66.84375 93.558594 L 70.207031 93.558594 L 70.207031 84.84375 C 72.171875 84.152344 73.574219 82.285156 73.574219 80.078125 C 73.574219 77.292969 71.3125 75.03125 68.523438 75.03125 Z M 68.523438 81.761719 C 67.589844 81.761719 66.84375 81.011719 66.84375 80.078125 C 66.84375 79.144531 67.589844 78.394531 68.523438 78.394531 C 69.457031 78.394531 70.207031 79.144531 70.207031 80.078125 C 70.207031 81.011719 69.445312 81.761719 68.523438 81.761719 Z M 68.523438 81.761719 " fill-opacity="1" fill-rule="nonzero"/></svg>