<svg width="801" height="463" viewBox="0 0 801 463" fill="none" xmlns="http://www.w3.org/2000/svg">
<path d="M58.8332 117.524C54.3593 117.524 50.0051 117.212 45.7707 116.587C41.5468 115.962 37.6301 115.035 34.0207 113.795C30.4061 112.545 27.2291 111.035 24.4791 109.253L29.3957 98.0451C32.5468 99.8784 35.677 101.358 38.7916 102.483C41.9009 103.597 45.177 104.399 48.6249 104.899C52.0832 105.389 55.7395 105.628 59.6041 105.628C65.4478 105.628 69.9791 104.92 73.1874 103.503C76.4061 102.087 78.0207 99.9357 78.0207 97.0451C78.0207 95.144 77.5259 93.7065 76.5416 92.7326C75.552 91.7482 74.1249 91.0138 72.2499 90.5242C70.3853 90.0242 68.1457 89.6076 65.5207 89.2742L49.0832 87.1076C41.3332 86.1232 35.5884 83.993 31.8541 80.7117C28.1145 77.4357 26.2499 73.0763 26.2499 67.6284C26.2499 63.1597 27.6353 59.3159 30.4166 56.1076C33.2082 52.8888 37.0936 50.4305 42.0832 48.7326C47.0676 47.0242 52.8801 46.1701 59.5207 46.1701C63.6457 46.1701 67.5937 46.4982 71.3749 47.1492C75.1509 47.8055 78.6093 48.769 81.7499 50.0451C84.9009 51.3263 87.6926 52.9149 90.1249 54.8159L85.1041 65.6492C81.3645 62.9565 77.4166 61.019 73.2499 59.8367C69.0832 58.6597 64.2759 58.0659 58.8332 58.0659C55.0832 58.0659 51.8436 58.3992 49.1249 59.0659C46.4009 59.7222 44.3332 60.6857 42.9166 61.9617C41.5103 63.243 40.8124 64.8315 40.8124 66.7326C40.8124 69.2899 41.8124 71.144 43.8124 72.2951C45.8124 73.4513 48.9061 74.3524 53.1041 75.0034L68.5624 77.1701C76.5051 78.2274 82.5103 80.3107 86.5832 83.4201C90.6509 86.5347 92.6874 90.8784 92.6874 96.4617C92.6874 100.795 91.3228 104.555 88.6041 107.733C85.8801 110.915 81.9687 113.347 76.8749 115.024C71.7916 116.691 65.7759 117.524 58.8332 117.524Z" fill="black" fill-opacity="0.2196"/>
<path d="M105.689 116.545V47.1492H120.355V116.545H105.689Z" fill="black" fill-opacity="0.2196"/>
<path d="M168.895 117.524C164.421 117.524 160.067 117.212 155.832 116.587C151.608 115.962 147.692 115.035 144.082 113.795C140.468 112.545 137.291 111.035 134.541 109.253L139.457 98.0451C142.608 99.8784 145.739 101.358 148.853 102.483C151.963 103.597 155.239 104.399 158.687 104.899C162.145 105.389 165.801 105.628 169.666 105.628C175.509 105.628 180.041 104.92 183.249 103.503C186.468 102.087 188.082 99.9357 188.082 97.0451C188.082 95.144 187.588 93.7065 186.603 92.7326C185.614 91.7482 184.187 91.0138 182.312 90.5242C180.447 90.0242 178.207 89.6076 175.582 89.2742L159.145 87.1076C151.395 86.1232 145.65 83.993 141.916 80.7117C138.176 77.4357 136.312 73.0763 136.312 67.6284C136.312 63.1597 137.697 59.3159 140.478 56.1076C143.27 52.8888 147.155 50.4305 152.145 48.7326C157.129 47.0242 162.942 46.1701 169.582 46.1701C173.707 46.1701 177.655 46.4982 181.437 47.1492C185.213 47.8055 188.671 48.769 191.812 50.0451C194.963 51.3263 197.754 52.9149 200.187 54.8159L195.166 65.6492C191.426 62.9565 187.478 61.019 183.312 59.8367C179.145 58.6597 174.338 58.0659 168.895 58.0659C165.145 58.0659 161.905 58.3992 159.187 59.0659C156.463 59.7222 154.395 60.6857 152.978 61.9617C151.572 63.243 150.874 64.8315 150.874 66.7326C150.874 69.2899 151.874 71.144 153.874 72.2951C155.874 73.4513 158.968 74.3524 163.166 75.0034L178.624 77.1701C186.567 78.2274 192.572 80.3107 196.645 83.4201C200.713 86.5347 202.749 90.8784 202.749 96.4617C202.749 100.795 201.384 104.555 198.666 107.733C195.942 110.915 192.03 113.347 186.937 115.024C181.853 116.691 175.838 117.524 168.895 117.524Z" fill="black" fill-opacity="0.2196"/>
<path d="M236.521 116.545V59.0659H206.5V47.1492H281.313V59.0659H251.292V116.545H236.521Z" fill="black" fill-opacity="0.2196"/>
<path d="M290.765 116.545V47.1492H348.245V58.5659H305.036V75.5867H344.995V87.0034H305.036V105.128H348.245V116.545H290.765Z" fill="black" fill-opacity="0.2196"/>
<path d="M363.802 116.545V47.1492H377.99L409.282 93.1076H406.719L437.74 47.1492H452.011V116.545H438.323V66.0451H439.615L412.24 105.712H403.469L376.011 65.9409H377.49V116.545H363.802Z" fill="black" fill-opacity="0.2196"/>
<path d="M461.67 116.545L500.149 47.1492H513.149L551.545 116.545H536.379L525.941 97.1492L532.629 101.587H480.358L487.066 97.1492L476.628 116.545H461.67ZM506.358 60.6284L488.837 93.6076L485.191 90.3576H527.816L524.17 93.6076L506.649 60.6284H506.358Z" fill="black" fill-opacity="0.2196"/>
<path d="M54.716 112.952C50.2421 112.952 45.8879 112.639 41.6535 112.014C37.4296 111.389 33.5129 110.462 29.9035 109.222C26.289 107.972 23.1119 106.462 20.3619 104.681L25.2785 93.4725C28.4296 95.3058 31.5598 96.785 34.6744 97.91C37.7838 99.0246 41.0598 99.8266 44.5077 100.327C47.966 100.816 51.6223 101.056 55.4869 101.056C61.3306 101.056 65.8619 100.347 69.0702 98.9308C72.289 97.5141 73.9035 95.3631 73.9035 92.4725C73.9035 90.5714 73.4088 89.1339 72.4244 88.16C71.4348 87.1756 70.0077 86.4412 68.1327 85.9516C66.2681 85.4516 64.0285 85.035 61.4035 84.7016L44.966 82.535C37.216 81.5506 31.4713 79.4204 27.7369 76.1391C23.9973 72.8631 22.1327 68.5037 22.1327 63.0558C22.1327 58.5871 23.5181 54.7433 26.2994 51.535C29.091 48.3162 32.9765 45.8579 37.966 44.16C42.9504 42.4516 48.7629 41.5975 55.4035 41.5975C59.5285 41.5975 63.4765 41.9256 67.2577 42.5766C71.0338 43.2329 74.4921 44.1964 77.6327 45.4725C80.7838 46.7537 83.5754 48.3423 86.0077 50.2433L80.9869 61.0766C77.2473 58.3839 73.2994 56.4464 69.1327 55.2641C64.966 54.0871 60.1588 53.4933 54.716 53.4933C50.966 53.4933 47.7265 53.8266 45.0077 54.4933C42.2838 55.1496 40.216 56.1131 38.7994 57.3891C37.3931 58.6704 36.6952 60.2589 36.6952 62.16C36.6952 64.7173 37.6952 66.5714 39.6952 67.7225C41.6952 68.8787 44.789 69.7798 48.9869 70.4308L64.4452 72.5975C72.3879 73.6548 78.3931 75.7381 82.466 78.8475C86.5338 81.9621 88.5702 86.3058 88.5702 91.8891C88.5702 96.2225 87.2056 99.9829 84.4869 103.16C81.7629 106.342 77.8515 108.775 72.7577 110.452C67.6744 112.118 61.6588 112.952 54.716 112.952Z" fill="#C3EBDA"/>
<path d="M101.571 111.972V42.5766H116.238V111.972H101.571Z" fill="#C3EBDA"/>
<path d="M164.778 112.952C160.304 112.952 155.95 112.639 151.715 112.014C147.491 111.389 143.575 110.462 139.965 109.222C136.351 107.972 133.173 106.462 130.423 104.681L135.34 93.4725C138.491 95.3058 141.621 96.785 144.736 97.91C147.845 99.0246 151.121 99.8266 154.569 100.327C158.028 100.816 161.684 101.056 165.548 101.056C171.392 101.056 175.923 100.347 179.132 98.9308C182.351 97.5141 183.965 95.3631 183.965 92.4725C183.965 90.5714 183.47 89.1339 182.486 88.16C181.496 87.1756 180.069 86.4412 178.194 85.9516C176.33 85.4516 174.09 85.035 171.465 84.7016L155.028 82.535C147.278 81.5506 141.533 79.4204 137.798 76.1391C134.059 72.8631 132.194 68.5037 132.194 63.0558C132.194 58.5871 133.58 54.7433 136.361 51.535C139.153 48.3162 143.038 45.8579 148.028 44.16C153.012 42.4516 158.825 41.5975 165.465 41.5975C169.59 41.5975 173.538 41.9256 177.319 42.5766C181.095 43.2329 184.554 44.1964 187.694 45.4725C190.845 46.7537 193.637 48.3423 196.069 50.2433L191.048 61.0766C187.309 58.3839 183.361 56.4464 179.194 55.2641C175.028 54.0871 170.22 53.4933 164.778 53.4933C161.028 53.4933 157.788 53.8266 155.069 54.4933C152.345 55.1496 150.278 56.1131 148.861 57.3891C147.455 58.6704 146.757 60.2589 146.757 62.16C146.757 64.7173 147.757 66.5714 149.757 67.7225C151.757 68.8787 154.851 69.7798 159.048 70.4308L174.507 72.5975C182.45 73.6548 188.455 75.7381 192.528 78.8475C196.595 81.9621 198.632 86.3058 198.632 91.8891C198.632 96.2225 197.267 99.9829 194.548 103.16C191.825 106.342 187.913 108.775 182.819 110.452C177.736 112.118 171.72 112.952 164.778 112.952Z" fill="#C3EBDA"/>
<path d="M232.404 111.972V54.4933H202.383V42.5766H277.196V54.4933H247.175V111.972H232.404Z" fill="#C3EBDA"/>
<path d="M286.648 111.972V42.5766H344.128V53.9933H300.919V71.0141H340.878V82.4308H300.919V100.556H344.128V111.972H286.648Z" fill="#C3EBDA"/>
<path d="M359.685 111.972V42.5766H373.873L405.164 88.535H402.602L433.623 42.5766H447.894V111.972H434.206V61.4725H435.498L408.123 101.139H399.352L371.894 61.3683H373.373V111.972H359.685Z" fill="#C3EBDA"/>
<path d="M457.553 111.972L496.032 42.5766H509.032L547.428 111.972H532.261L521.824 92.5766L528.511 97.0141H476.241L482.949 92.5766L472.511 111.972H457.553ZM502.241 56.0558L484.72 89.035L481.074 85.785H523.699L520.053 89.035L502.532 56.0558H502.241Z" fill="#C3EBDA"/>
<path d="M28.9999 213.836V144.441H43.6665V213.836H28.9999Z" fill="black" fill-opacity="0.2196"/>
<path d="M62.3727 213.836V144.441H74.2894L123.706 195.628H121.831V144.441H135.998V213.836H123.789L74.7686 162.836H76.5394V213.836H62.3727Z" fill="black" fill-opacity="0.2196"/>
<path d="M175.584 213.836V156.357H145.563V144.441H220.375V156.357H190.354V213.836H175.584Z" fill="black" fill-opacity="0.2196"/>
<path d="M229.828 213.836V144.441H287.307V155.857H244.099V172.878H284.057V184.295H244.099V202.42H287.307V213.836H229.828Z" fill="black" fill-opacity="0.2196"/>
<path d="M343.323 214.816C334.266 214.816 326.474 213.43 319.948 210.649C313.417 207.857 308.396 203.805 304.886 198.482C301.37 193.165 299.615 186.769 299.615 179.295C299.615 171.81 301.334 165.394 304.782 160.045C308.24 154.701 313.183 150.602 319.615 147.753C326.042 144.894 333.62 143.462 342.344 143.462C346.605 143.462 350.625 143.79 354.407 144.441C358.183 145.097 361.688 146.045 364.927 147.295C368.177 148.545 370.98 150.123 373.344 152.024L368.032 163.045C364.365 160.42 360.474 158.555 356.365 157.441C352.266 156.316 347.724 155.753 342.74 155.753C333.808 155.753 326.912 157.743 322.052 161.712C317.203 165.685 314.782 171.545 314.782 179.295C314.782 187.102 317.24 192.977 322.157 196.92C327.084 200.852 334.308 202.816 343.823 202.816C347.5 202.816 351.032 202.555 354.407 202.024C357.782 201.498 361.105 200.711 364.386 199.67L361.844 203.107V186.086H341.761V175.357H374.427V209.211C371.802 210.394 368.802 211.394 365.427 212.211C362.052 213.034 358.49 213.67 354.74 214.128C351 214.586 347.198 214.816 343.323 214.816Z" fill="black" fill-opacity="0.2196"/>
<path d="M392.361 213.836V144.441H430.757C440.075 144.441 447.194 146.201 452.111 149.711C457.028 153.211 459.486 158.31 459.486 165.003C459.486 169.336 458.413 172.998 456.278 175.982C454.153 178.972 451.09 181.305 447.09 182.982C443.09 184.649 438.262 185.618 432.611 185.878L433.507 185.003L437.048 185.086C439.741 185.227 442.153 185.909 444.278 187.128C446.413 188.336 448.403 190.222 450.236 192.774L464.903 213.836H448.673L434.486 192.961C433.496 191.519 432.496 190.389 431.486 189.566C430.47 188.748 429.194 188.159 427.653 187.795C426.111 187.435 424.09 187.253 421.59 187.253H407.028V213.836H392.361ZM407.028 176.524H429.278C434.845 176.524 438.871 175.644 441.361 173.878C443.861 172.102 445.111 169.441 445.111 165.899C445.111 162.415 443.845 159.852 441.319 158.211C438.804 156.576 434.72 155.753 429.069 155.753H407.028V176.524Z" fill="black" fill-opacity="0.2196"/>
<path d="M466.986 213.836L505.465 144.441H518.465L556.861 213.836H541.695L531.257 194.441L537.945 198.878H485.674L492.382 194.441L481.945 213.836H466.986ZM511.674 157.92L494.153 190.899L490.507 187.649H533.132L529.486 190.899L511.965 157.92H511.674Z" fill="black" fill-opacity="0.2196"/>
<path d="M566.412 213.836V144.441H599.391C608.902 144.441 616.891 145.753 623.349 148.378C629.818 151.003 634.693 154.894 637.974 160.045C641.251 165.201 642.891 171.545 642.891 179.086C642.891 186.628 641.23 192.998 637.912 198.191C634.605 203.373 629.735 207.274 623.308 209.899C616.876 212.524 608.902 213.836 599.391 213.836H566.412ZM581.079 202.024H598.495C608.605 202.024 616.006 200.206 620.704 196.566C625.396 192.93 627.745 187.102 627.745 179.086C627.745 171.144 625.396 165.352 620.704 161.711C616.006 158.076 608.605 156.253 598.495 156.253H581.079V202.024Z" fill="black" fill-opacity="0.2196"/>
<path d="M697.051 214.816C690.744 214.816 685.061 213.993 680.009 212.357C674.952 210.722 670.582 208.347 666.905 205.232C663.238 202.107 660.431 198.352 658.488 193.961C656.556 189.56 655.593 184.639 655.593 179.191C655.593 173.748 656.577 168.847 658.551 164.482C660.52 160.107 663.327 156.352 666.968 153.212C670.603 150.06 674.968 147.649 680.051 145.982C685.145 144.305 690.843 143.462 697.134 143.462C703.369 143.462 709.014 144.316 714.072 146.024C719.124 147.722 723.457 150.097 727.072 153.149C730.681 156.206 733.488 159.935 735.488 164.337C737.488 168.727 738.488 173.607 738.488 178.982C738.488 184.441 737.499 189.373 735.53 193.774C733.556 198.165 730.749 201.935 727.113 205.086C723.473 208.227 719.124 210.639 714.072 212.316C709.014 213.982 703.343 214.816 697.051 214.816ZM697.051 202.711C702.494 202.711 707.165 201.764 711.072 199.857C714.973 197.956 717.988 195.232 720.113 191.691C722.249 188.149 723.322 183.951 723.322 179.086C723.322 174.17 722.27 169.941 720.176 166.399C718.077 162.847 715.056 160.149 711.113 158.316C707.181 156.482 702.494 155.566 697.051 155.566C691.593 155.566 686.91 156.503 683.009 158.378C679.103 160.243 676.082 162.941 673.947 166.482C671.822 170.024 670.759 174.264 670.759 179.191C670.759 184.107 671.806 188.326 673.905 191.836C675.999 195.352 679.014 198.045 682.947 199.92C686.889 201.784 691.593 202.711 697.051 202.711Z" fill="black" fill-opacity="0.2196"/>
<path d="M24.8827 209.264V139.868H39.5494V209.264H24.8827Z" fill="#C3EBDA"/>
<path d="M58.2555 209.264V139.868H70.1722L119.589 191.056H117.714V139.868H131.881V209.264H119.672L70.6514 158.264H72.4222V209.264H58.2555Z" fill="#C3EBDA"/>
<path d="M171.466 209.264V151.785H141.446V139.868H216.258V151.785H186.237V209.264H171.466Z" fill="#C3EBDA"/>
<path d="M225.711 209.264V139.868H283.19V151.285H239.982V168.306H279.94V179.722H239.982V197.847H283.19V209.264H225.711Z" fill="#C3EBDA"/>
<path d="M339.206 210.243C330.149 210.243 322.357 208.858 315.831 206.076C309.3 203.285 304.279 199.233 300.769 193.91C297.253 188.592 295.498 182.196 295.498 174.722C295.498 167.238 297.216 160.821 300.664 155.472C304.123 150.128 309.065 146.03 315.498 143.181C321.925 140.321 329.503 138.889 338.227 138.889C342.487 138.889 346.508 139.217 350.289 139.868C354.065 140.524 357.571 141.472 360.81 142.722C364.06 143.972 366.862 145.55 369.227 147.451L363.914 158.472C360.248 155.847 356.357 153.983 352.248 152.868C348.149 151.743 343.607 151.181 338.623 151.181C329.69 151.181 322.795 153.17 317.935 157.139C313.086 161.113 310.664 166.972 310.664 174.722C310.664 182.53 313.123 188.405 318.039 192.347C322.966 196.28 330.19 198.243 339.706 198.243C343.383 198.243 346.914 197.983 350.289 197.451C353.664 196.925 356.987 196.139 360.269 195.097L357.727 198.535V181.514H337.644V170.785H370.31V204.639C367.685 205.821 364.685 206.821 361.31 207.639C357.935 208.462 354.373 209.097 350.623 209.556C346.883 210.014 343.081 210.243 339.206 210.243Z" fill="#C3EBDA"/>
<path d="M388.244 209.264V139.868H426.64C435.957 139.868 443.077 141.628 447.994 145.139C452.91 148.639 455.369 153.738 455.369 160.431C455.369 164.764 454.296 168.425 452.16 171.41C450.035 174.399 446.973 176.733 442.973 178.41C438.973 180.076 434.145 181.045 428.494 181.306L429.39 180.431L432.931 180.514C435.624 180.655 438.035 181.337 440.16 182.556C442.296 183.764 444.285 185.649 446.119 188.201L460.785 209.264H444.556L430.369 188.389C429.379 186.946 428.379 185.816 427.369 184.993C426.353 184.175 425.077 183.587 423.535 183.222C421.994 182.863 419.973 182.681 417.473 182.681H402.91V209.264H388.244ZM402.91 171.951H425.16C430.728 171.951 434.754 171.071 437.244 169.306C439.744 167.53 440.994 164.868 440.994 161.326C440.994 157.842 439.728 155.28 437.202 153.639C434.686 152.003 430.603 151.181 424.952 151.181H402.91V171.951Z" fill="#C3EBDA"/>
<path d="M462.869 209.264L501.348 139.868H514.348L552.744 209.264H537.577L527.14 189.868L533.827 194.306H481.557L488.265 189.868L477.827 209.264H462.869ZM507.557 153.347L490.036 186.326L486.39 183.076H529.015L525.369 186.326L507.848 153.347H507.557Z" fill="#C3EBDA"/>
<path d="M562.295 209.264V139.868H595.274C604.784 139.868 612.774 141.181 619.232 143.806C625.701 146.431 630.576 150.321 633.857 155.472C637.133 160.628 638.774 166.972 638.774 174.514C638.774 182.056 637.113 188.425 633.795 193.618C630.488 198.8 625.618 202.701 619.191 205.326C612.758 207.951 604.784 209.264 595.274 209.264H562.295ZM576.961 197.451H594.378C604.488 197.451 611.889 195.634 616.586 191.993C621.279 188.358 623.628 182.53 623.628 174.514C623.628 166.571 621.279 160.78 616.586 157.139C611.889 153.503 604.488 151.681 594.378 151.681H576.961V197.451Z" fill="#C3EBDA"/>
<path d="M692.934 210.243C686.626 210.243 680.944 209.42 675.892 207.785C670.835 206.149 666.465 203.774 662.788 200.66C659.121 197.535 656.314 193.78 654.371 189.389C652.439 184.988 651.475 180.066 651.475 174.618C651.475 169.175 652.46 164.274 654.434 159.91C656.402 155.535 659.21 151.78 662.85 148.639C666.486 145.488 670.85 143.076 675.934 141.41C681.027 139.733 686.725 138.889 693.017 138.889C699.251 138.889 704.897 139.743 709.955 141.451C715.007 143.149 719.34 145.524 722.955 148.576C726.564 151.634 729.371 155.363 731.371 159.764C733.371 164.155 734.371 169.035 734.371 174.41C734.371 179.868 733.382 184.8 731.413 189.201C729.439 193.592 726.632 197.363 722.996 200.514C719.356 203.655 715.007 206.066 709.955 207.743C704.897 209.41 699.225 210.243 692.934 210.243ZM692.934 198.139C698.376 198.139 703.048 197.191 706.955 195.285C710.856 193.384 713.871 190.66 715.996 187.118C718.132 183.576 719.205 179.378 719.205 174.514C719.205 169.597 718.152 165.368 716.059 161.826C713.96 158.274 710.939 155.576 706.996 153.743C703.064 151.91 698.376 150.993 692.934 150.993C687.475 150.993 682.793 151.931 678.892 153.806C674.986 155.67 671.965 158.368 669.83 161.91C667.705 165.451 666.642 169.691 666.642 174.618C666.642 179.535 667.689 183.753 669.788 187.264C671.882 190.78 674.897 193.472 678.83 195.347C682.772 197.212 687.475 198.139 692.934 198.139Z" fill="#C3EBDA"/>
<path d="M28.9999 311.128V241.732H61.979C71.4895 241.732 79.479 243.045 85.9374 245.67C92.4061 248.295 97.2811 252.185 100.562 257.336C103.838 262.493 105.479 268.836 105.479 276.378C105.479 283.92 103.818 290.289 100.5 295.482C97.1926 300.664 92.3228 304.565 85.8957 307.19C79.4634 309.815 71.4895 311.128 61.979 311.128H28.9999ZM43.6665 299.315H61.0832C71.1926 299.315 78.5936 297.498 83.2915 293.857C87.9843 290.222 90.3332 284.394 90.3332 276.378C90.3332 268.435 87.9843 262.644 83.2915 259.003C78.5936 255.368 71.1926 253.545 61.0832 253.545H43.6665V299.315Z" fill="black" fill-opacity="0.2196"/>
<path d="M121.243 311.128V241.732H178.722V253.149H135.514V270.17H175.472V281.586H135.514V299.711H178.722V311.128H121.243Z" fill="black" fill-opacity="0.2196"/>
<path d="M255.231 312.107C250.757 312.107 246.403 311.795 242.169 311.17C237.945 310.545 234.028 309.618 230.419 308.378C226.804 307.128 223.627 305.618 220.877 303.836L225.794 292.628C228.945 294.461 232.075 295.94 235.19 297.065C238.299 298.18 241.575 298.982 245.023 299.482C248.481 299.972 252.137 300.211 256.002 300.211C261.846 300.211 266.377 299.503 269.585 298.086C272.804 296.67 274.419 294.519 274.419 291.628C274.419 289.727 273.924 288.289 272.94 287.315C271.95 286.331 270.523 285.597 268.648 285.107C266.783 284.607 264.544 284.19 261.919 283.857L245.481 281.69C237.731 280.706 231.986 278.576 228.252 275.295C224.512 272.019 222.648 267.659 222.648 262.211C222.648 257.743 224.033 253.899 226.815 250.69C229.606 247.472 233.492 245.013 238.481 243.315C243.466 241.607 249.278 240.753 255.919 240.753C260.044 240.753 263.992 241.081 267.773 241.732C271.549 242.388 275.007 243.352 278.148 244.628C281.299 245.909 284.091 247.498 286.523 249.399L281.502 260.232C277.762 257.539 273.815 255.602 269.648 254.42C265.481 253.243 260.674 252.649 255.231 252.649C251.481 252.649 248.242 252.982 245.523 253.649C242.799 254.305 240.731 255.269 239.315 256.545C237.908 257.826 237.21 259.414 237.21 261.315C237.21 263.873 238.21 265.727 240.21 266.878C242.21 268.034 245.304 268.935 249.502 269.586L264.96 271.753C272.903 272.81 278.908 274.894 282.981 278.003C287.049 281.118 289.085 285.461 289.085 291.045C289.085 295.378 287.721 299.138 285.002 302.315C282.278 305.498 278.367 307.93 273.273 309.607C268.19 311.274 262.174 312.107 255.231 312.107Z" fill="black" fill-opacity="0.2196"/>
<path d="M292.837 311.128L331.316 241.732H344.316L382.712 311.128H367.545L357.108 291.732L363.795 296.17H311.524L318.233 291.732L307.795 311.128H292.837ZM337.524 255.211L320.003 288.19L316.358 284.94H358.983L355.337 288.19L337.816 255.211H337.524Z" fill="black" fill-opacity="0.2196"/>
<path d="M427.804 312.107C415.789 312.107 406.726 309.638 400.617 304.69C394.518 299.732 391.471 292.461 391.471 282.878V241.732H406.137V282.482C406.137 288.19 407.955 292.493 411.596 295.378C415.247 298.269 420.648 299.711 427.804 299.711C435.012 299.711 440.398 298.269 443.971 295.378C447.554 292.493 449.346 288.19 449.346 282.482V241.732H463.929V282.878C463.929 292.461 460.908 299.732 454.867 304.69C448.825 309.638 439.804 312.107 427.804 312.107ZM422.387 235.815L436.846 217.899H452.304L433.117 235.815H422.387Z" fill="black" fill-opacity="0.2196"/>
<path d="M482.044 311.128V241.732H515.024C524.534 241.732 532.524 243.045 538.982 245.67C545.451 248.295 550.326 252.185 553.607 257.336C556.883 262.493 558.524 268.836 558.524 276.378C558.524 283.92 556.862 290.289 553.544 295.482C550.237 300.664 545.367 304.565 538.94 307.19C532.508 309.815 524.534 311.128 515.024 311.128H482.044ZM496.711 299.315H514.128C524.237 299.315 531.638 297.498 536.336 293.857C541.029 290.222 543.378 284.394 543.378 276.378C543.378 268.435 541.029 262.644 536.336 259.003C531.638 255.368 524.237 253.545 514.128 253.545H496.711V299.315Z" fill="black" fill-opacity="0.2196"/>
<path d="M574.288 311.128V241.732H631.767V253.149H588.558V270.17H628.517V281.586H588.558V299.711H631.767V311.128H574.288Z" fill="black" fill-opacity="0.2196"/>
<path d="M24.8827 306.555V237.16H57.8619C67.3723 237.16 75.3619 238.472 81.8202 241.097C88.2889 243.722 93.1639 247.613 96.4452 252.764C99.7212 257.92 101.362 264.264 101.362 271.805C101.362 279.347 99.7004 285.717 96.3827 290.91C93.0754 296.092 88.2056 299.993 81.7785 302.618C75.3462 305.243 67.3723 306.555 57.8619 306.555H24.8827ZM39.5494 294.743H56.966C67.0754 294.743 74.4764 292.925 79.1744 289.285C83.8671 285.649 86.216 279.821 86.216 271.805C86.216 263.863 83.8671 258.071 79.1744 254.43C74.4764 250.795 67.0754 248.972 56.966 248.972H39.5494V294.743Z" fill="#C3EBDA"/>
<path d="M117.126 306.555V237.16H174.605V248.576H131.397V265.597H171.355V277.014H131.397V295.139H174.605V306.555H117.126Z" fill="#C3EBDA"/>
<path d="M251.114 307.535C246.64 307.535 242.286 307.222 238.052 306.597C233.828 305.972 229.911 305.045 226.302 303.805C222.687 302.555 219.51 301.045 216.76 299.264L221.677 288.055C224.828 289.889 227.958 291.368 231.072 292.493C234.182 293.607 237.458 294.41 240.906 294.91C244.364 295.399 248.02 295.639 251.885 295.639C257.729 295.639 262.26 294.93 265.468 293.514C268.687 292.097 270.302 289.946 270.302 287.055C270.302 285.154 269.807 283.717 268.822 282.743C267.833 281.758 266.406 281.024 264.531 280.535C262.666 280.035 260.427 279.618 257.802 279.285L241.364 277.118C233.614 276.133 227.869 274.003 224.135 270.722C220.395 267.446 218.531 263.087 218.531 257.639C218.531 253.17 219.916 249.326 222.697 246.118C225.489 242.899 229.374 240.441 234.364 238.743C239.348 237.035 245.161 236.18 251.802 236.18C255.927 236.18 259.874 236.508 263.656 237.16C267.432 237.816 270.89 238.779 274.031 240.055C277.182 241.337 279.973 242.925 282.406 244.826L277.385 255.66C273.645 252.967 269.697 251.029 265.531 249.847C261.364 248.67 256.557 248.076 251.114 248.076C247.364 248.076 244.124 248.41 241.406 249.076C238.682 249.732 236.614 250.696 235.197 251.972C233.791 253.253 233.093 254.842 233.093 256.743C233.093 259.3 234.093 261.154 236.093 262.305C238.093 263.462 241.187 264.363 245.385 265.014L260.843 267.18C268.786 268.238 274.791 270.321 278.864 273.43C282.932 276.545 284.968 280.889 284.968 286.472C284.968 290.805 283.604 294.566 280.885 297.743C278.161 300.925 274.249 303.357 269.156 305.035C264.072 306.701 258.057 307.535 251.114 307.535Z" fill="#C3EBDA"/>
<path d="M288.72 306.555L327.199 237.16H340.199L378.595 306.555H363.428L352.99 287.16L359.678 291.597H307.407L314.115 287.16L303.678 306.555H288.72ZM333.407 250.639L315.886 283.618L312.24 280.368H354.865L351.22 283.618L333.699 250.639H333.407Z" fill="#C3EBDA"/>
<path d="M423.687 307.535C411.671 307.535 402.609 305.066 396.499 300.118C390.4 295.16 387.354 287.889 387.354 278.305V237.16H402.02V277.91C402.02 283.618 403.838 287.92 407.479 290.805C411.13 293.696 416.531 295.139 423.687 295.139C430.895 295.139 436.281 293.696 439.854 290.805C443.437 287.92 445.229 283.618 445.229 277.91V237.16H459.812V278.305C459.812 287.889 456.791 295.16 450.749 300.118C444.708 305.066 435.687 307.535 423.687 307.535ZM418.27 231.243L432.729 213.326H448.187L428.999 231.243H418.27Z" fill="#C3EBDA"/>
<path d="M477.927 306.555V237.16H510.906C520.417 237.16 528.406 238.472 534.865 241.097C541.333 243.722 546.208 247.613 549.49 252.764C552.766 257.92 554.406 264.264 554.406 271.805C554.406 279.347 552.745 285.717 549.427 290.91C546.12 296.092 541.25 299.993 534.823 302.618C528.391 305.243 520.417 306.555 510.906 306.555H477.927ZM492.594 294.743H510.011C520.12 294.743 527.521 292.925 532.219 289.285C536.912 285.649 539.261 279.821 539.261 271.805C539.261 263.863 536.912 258.071 532.219 254.43C527.521 250.795 520.12 248.972 510.011 248.972H492.594V294.743Z" fill="#C3EBDA"/>
<path d="M570.17 306.555V237.16H627.65V248.576H584.441V265.597H624.4V277.014H584.441V295.139H627.65V306.555H570.17Z" fill="#C3EBDA"/>
<path d="M28.9999 408.419V339.024H86.479V350.44H43.2707V367.461H83.229V378.878H43.2707V397.003H86.479V408.419H28.9999Z" fill="black" fill-opacity="0.2196"/>
<path d="M101.849 408.419V339.024H116.516V396.315H158.537V408.419H101.849Z" fill="black" fill-opacity="0.2196"/>
<path d="M169.678 408.419V339.024H227.157V350.44H183.949V367.461H223.907V378.878H183.949V397.003H227.157V408.419H169.678Z" fill="black" fill-opacity="0.2196"/>
<path d="M263.298 408.419V350.94H233.277V339.024H308.09V350.94H278.069V408.419H263.298Z" fill="black" fill-opacity="0.2196"/>
<path d="M317.543 408.419V339.024H355.938C365.256 339.024 372.376 340.784 377.293 344.294C382.209 347.794 384.668 352.893 384.668 359.586C384.668 363.919 383.595 367.581 381.459 370.565C379.334 373.555 376.272 375.888 372.272 377.565C368.272 379.232 363.444 380.201 357.793 380.461L358.688 379.586L362.23 379.669C364.923 379.81 367.334 380.492 369.459 381.711C371.595 382.919 373.584 384.805 375.418 387.357L390.084 408.419H373.855L359.668 387.544C358.678 386.102 357.678 384.972 356.668 384.149C355.652 383.331 354.376 382.742 352.834 382.378C351.293 382.018 349.272 381.836 346.772 381.836H332.209V408.419H317.543ZM332.209 371.107H354.459C360.027 371.107 364.053 370.227 366.543 368.461C369.043 366.685 370.293 364.024 370.293 360.482C370.293 356.998 369.027 354.435 366.501 352.794C363.985 351.159 359.902 350.336 354.251 350.336H332.209V371.107Z" fill="black" fill-opacity="0.2196"/>
<path d="M439.814 409.399C433.506 409.399 427.824 408.576 422.772 406.94C417.715 405.305 413.345 402.93 409.668 399.815C406.001 396.69 403.194 392.935 401.251 388.544C399.319 384.143 398.355 379.221 398.355 373.774C398.355 368.331 399.34 363.43 401.314 359.065C403.282 354.69 406.09 350.935 409.73 347.794C413.366 344.643 417.73 342.232 422.814 340.565C427.907 338.888 433.605 338.044 439.897 338.044C446.131 338.044 451.777 338.899 456.835 340.607C461.887 342.305 466.22 344.68 469.835 347.732C473.444 350.789 476.251 354.518 478.251 358.919C480.251 363.31 481.251 368.19 481.251 373.565C481.251 379.024 480.262 383.956 478.293 388.357C476.319 392.747 473.512 396.518 469.876 399.669C466.236 402.81 461.887 405.221 456.835 406.899C451.777 408.565 446.105 409.399 439.814 409.399ZM439.814 397.294C445.256 397.294 449.928 396.346 453.835 394.44C457.736 392.539 460.751 389.815 462.876 386.274C465.012 382.732 466.085 378.534 466.085 373.669C466.085 368.753 465.032 364.524 462.939 360.982C460.84 357.43 457.819 354.732 453.876 352.899C449.944 351.065 445.256 350.149 439.814 350.149C434.355 350.149 429.673 351.086 425.772 352.961C421.866 354.826 418.845 357.524 416.71 361.065C414.585 364.607 413.522 368.846 413.522 373.774C413.522 378.69 414.569 382.909 416.668 386.419C418.762 389.935 421.777 392.628 425.71 394.503C429.652 396.367 434.355 397.294 439.814 397.294ZM418.46 333.107L433.418 315.19H446.21L461.168 333.107H450.73L439.814 322.774L428.793 333.107H418.46Z" fill="black" fill-opacity="0.2196"/>
<path d="M496.91 408.419V339.024H508.826L558.243 390.211H556.368V339.024H570.535V408.419H558.326L509.306 357.419H511.076V408.419H496.91Z" fill="black" fill-opacity="0.2196"/>
<path d="M589.35 408.419V339.024H604.016V408.419H589.35Z" fill="black" fill-opacity="0.2196"/>
<path d="M661.306 409.399C652.9 409.399 645.566 407.977 639.306 405.128C633.04 402.268 628.202 398.164 624.785 392.815C621.368 387.471 619.66 381.122 619.66 373.774C619.66 366.43 621.379 360.081 624.827 354.732C628.285 349.372 633.124 345.253 639.348 342.378C645.582 339.492 652.936 338.044 661.41 338.044C667.577 338.044 673.202 338.784 678.285 340.253C683.368 341.727 687.681 343.977 691.223 347.003L686.014 358.024C682.332 355.399 678.587 353.482 674.785 352.274C670.978 351.055 666.712 350.44 661.993 350.44C653.535 350.44 646.92 352.44 642.16 356.44C637.394 360.44 635.014 366.221 635.014 373.774C635.014 381.247 637.374 386.992 642.098 391.003C646.832 395.003 653.462 397.003 661.993 397.003C666.712 397.003 670.978 396.399 674.785 395.19C678.587 393.971 682.332 392.044 686.014 389.419L691.223 400.44C687.681 403.399 683.348 405.638 678.223 407.149C673.108 408.649 667.473 409.399 661.306 409.399Z" fill="black" fill-opacity="0.2196"/>
<path d="M695.773 408.419L734.252 339.024H747.252L785.648 408.419H770.481L760.044 389.024L766.731 393.461H714.46L721.169 389.024L710.731 408.419H695.773ZM740.46 352.503L722.939 385.482L719.294 382.232H761.919L758.273 385.482L740.752 352.503H740.46Z" fill="black" fill-opacity="0.2196"/>
<path d="M24.8827 403.847V334.451H82.3619V345.868H39.1535V362.888H79.1119V374.305H39.1535V392.43H82.3619V403.847H24.8827Z" fill="#C3EBDA"/>
<path d="M97.7321 403.847V334.451H112.399V391.743H154.42V403.847H97.7321Z" fill="#C3EBDA"/>
<path d="M165.561 403.847V334.451H223.04V345.868H179.832V362.888H219.79V374.305H179.832V392.43H223.04V403.847H165.561Z" fill="#C3EBDA"/>
<path d="M259.181 403.847V346.368H229.16V334.451H303.973V346.368H273.952V403.847H259.181Z" fill="#C3EBDA"/>
<path d="M313.425 403.847V334.451H351.821C361.139 334.451 368.259 336.211 373.175 339.722C378.092 343.222 380.55 348.321 380.55 355.013C380.55 359.347 379.477 363.008 377.342 365.993C375.217 368.982 372.155 371.316 368.155 372.993C364.155 374.659 359.326 375.628 353.675 375.888L354.571 375.013L358.113 375.097C360.806 375.237 363.217 375.92 365.342 377.138C367.477 378.347 369.467 380.232 371.3 382.784L385.967 403.847H369.738L355.55 382.972C354.561 381.529 353.561 380.399 352.55 379.576C351.535 378.758 350.259 378.17 348.717 377.805C347.175 377.446 345.155 377.263 342.655 377.263H328.092V403.847H313.425ZM328.092 366.534H350.342C355.91 366.534 359.936 365.654 362.425 363.888C364.925 362.112 366.175 359.451 366.175 355.909C366.175 352.425 364.91 349.862 362.384 348.222C359.868 346.586 355.785 345.763 350.134 345.763H328.092V366.534Z" fill="#C3EBDA"/>
<path d="M435.696 404.826C429.389 404.826 423.707 404.003 418.655 402.368C413.598 400.732 409.228 398.357 405.551 395.243C401.884 392.118 399.077 388.362 397.134 383.972C395.202 379.571 394.238 374.649 394.238 369.201C394.238 363.758 395.223 358.857 397.196 354.493C399.165 350.118 401.973 346.362 405.613 343.222C409.249 340.071 413.613 337.659 418.696 335.993C423.79 334.316 429.488 333.472 435.78 333.472C442.014 333.472 447.66 334.326 452.717 336.034C457.769 337.732 462.103 340.107 465.717 343.159C469.327 346.217 472.134 349.946 474.134 354.347C476.134 358.737 477.134 363.618 477.134 368.993C477.134 374.451 476.144 379.383 474.176 383.784C472.202 388.175 469.394 391.946 465.759 395.097C462.118 398.237 457.769 400.649 452.717 402.326C447.66 403.993 441.988 404.826 435.696 404.826ZM435.696 392.722C441.139 392.722 445.811 391.774 449.717 389.868C453.618 387.967 456.634 385.243 458.759 381.701C460.894 378.159 461.967 373.961 461.967 369.097C461.967 364.18 460.915 359.951 458.821 356.409C456.723 352.857 453.702 350.159 449.759 348.326C445.827 346.493 441.139 345.576 435.696 345.576C430.238 345.576 425.556 346.513 421.655 348.388C417.749 350.253 414.728 352.951 412.592 356.493C410.467 360.034 409.405 364.274 409.405 369.201C409.405 374.118 410.452 378.336 412.551 381.847C414.644 385.362 417.66 388.055 421.592 389.93C425.535 391.795 430.238 392.722 435.696 392.722ZM414.342 328.534L429.301 310.618H442.092L457.051 328.534H446.613L435.696 318.201L424.676 328.534H414.342Z" fill="#C3EBDA"/>
<path d="M492.793 403.847V334.451H504.709L554.126 385.638H552.251V334.451H566.418V403.847H554.209L505.188 352.847H506.959V403.847H492.793Z" fill="#C3EBDA"/>
<path d="M585.232 403.847V334.451H599.899V403.847H585.232Z" fill="#C3EBDA"/>
<path d="M657.189 404.826C648.782 404.826 641.449 403.404 635.189 400.555C628.923 397.696 624.084 393.592 620.668 388.243C617.251 382.899 615.543 376.55 615.543 369.201C615.543 361.857 617.262 355.508 620.709 350.159C624.168 344.8 629.006 340.68 635.23 337.805C641.465 334.92 648.819 333.472 657.293 333.472C663.459 333.472 669.084 334.211 674.168 335.68C679.251 337.154 683.564 339.404 687.105 342.43L681.897 353.451C678.215 350.826 674.47 348.909 670.668 347.701C666.86 346.482 662.595 345.868 657.876 345.868C649.418 345.868 642.803 347.868 638.043 351.868C633.277 355.868 630.897 361.649 630.897 369.201C630.897 376.675 633.256 382.42 637.98 386.43C642.715 390.43 649.345 392.43 657.876 392.43C662.595 392.43 666.86 391.826 670.668 390.618C674.47 389.399 678.215 387.472 681.897 384.847L687.105 395.868C683.564 398.826 679.23 401.066 674.105 402.576C668.991 404.076 663.355 404.826 657.189 404.826Z" fill="#C3EBDA"/>
<path d="M691.655 403.847L730.135 334.451H743.135L781.53 403.847H766.364L755.926 384.451L762.614 388.888H710.343L717.051 384.451L706.614 403.847H691.655ZM736.343 347.93L718.822 380.909L715.176 377.659H757.801L754.155 380.909L736.635 347.93H736.343Z" fill="#C3EBDA"/>
</svg>
