<svg width="296" height="264" viewBox="0 0 296 264" fill="none" xmlns="http://www.w3.org/2000/svg">
<mask id="mask0_23_6117" style="mask-type:luminance" maskUnits="userSpaceOnUse" x="38" y="35" width="218" height="218">
<path d="M38.7031 35.6666H255.703V252.667H38.7031V35.6666Z" fill="white"/>
</mask>
<g mask="url(#mask0_23_6117)">
<mask id="mask1_23_6117" style="mask-type:luminance" maskUnits="userSpaceOnUse" x="38" y="35" width="218" height="218">
<path d="M255.688 144.161C255.688 145.937 255.641 147.708 255.557 149.484C255.469 151.255 255.339 153.026 255.167 154.792C254.99 156.562 254.771 158.323 254.51 160.078C254.25 161.833 253.948 163.583 253.604 165.323C253.255 167.068 252.865 168.797 252.438 170.521C252.005 172.245 251.531 173.953 251.016 175.651C250.5 177.354 249.943 179.036 249.344 180.708C248.745 182.38 248.109 184.036 247.427 185.677C246.75 187.318 246.031 188.943 245.271 190.547C244.51 192.151 243.714 193.734 242.875 195.302C242.036 196.87 241.161 198.411 240.25 199.937C239.339 201.458 238.391 202.958 237.401 204.432C236.417 205.911 235.396 207.365 234.339 208.786C233.276 210.213 232.188 211.615 231.063 212.984C229.932 214.359 228.776 215.703 227.583 217.021C226.391 218.333 225.167 219.62 223.911 220.875C222.656 222.13 221.37 223.354 220.052 224.547C218.74 225.74 217.396 226.901 216.021 228.026C214.651 229.151 213.25 230.245 211.823 231.302C210.396 232.359 208.948 233.38 207.469 234.37C205.995 235.354 204.495 236.302 202.969 237.219C201.448 238.13 199.901 239.005 198.339 239.844C196.771 240.677 195.188 241.474 193.583 242.234C191.974 242.995 190.354 243.713 188.714 244.396C187.073 245.073 185.417 245.713 183.745 246.307C182.073 246.906 180.385 247.463 178.688 247.979C176.99 248.495 175.276 248.969 173.557 249.401C171.833 249.833 170.104 250.219 168.359 250.568C166.62 250.911 164.87 251.219 163.115 251.479C161.359 251.74 159.594 251.953 157.828 252.13C156.063 252.302 154.292 252.432 152.516 252.521C150.745 252.609 148.969 252.651 147.193 252.651C145.417 252.651 143.646 252.609 141.87 252.521C140.099 252.432 138.328 252.302 136.563 252.13C134.792 251.953 133.031 251.74 131.276 251.479C129.521 251.219 127.771 250.911 126.031 250.568C124.286 250.219 122.557 249.833 120.833 249.401C119.109 248.969 117.401 248.495 115.703 247.979C114 247.463 112.318 246.906 110.646 246.307C108.974 245.713 107.318 245.073 105.677 244.396C104.036 243.713 102.411 242.995 100.807 242.234C99.2031 241.474 97.6198 240.677 96.0521 239.844C94.4844 239.005 92.9427 238.13 91.4167 237.219C89.8958 236.302 88.3958 235.354 86.9219 234.37C85.4427 233.38 83.9896 232.359 82.5677 231.302C81.1406 230.245 79.7396 229.151 78.3698 228.026C76.9948 226.901 75.651 225.74 74.3333 224.547C73.0208 223.354 71.7344 222.13 70.4792 220.875C69.224 219.62 68 218.333 66.8073 217.021C65.6146 215.703 64.4531 214.359 63.3281 212.984C62.2031 211.615 61.1094 210.213 60.0521 208.786C58.9948 207.365 57.974 205.911 56.9844 204.432C56 202.958 55.0521 201.458 54.1354 199.937C53.224 198.411 52.349 196.87 51.5104 195.302C50.6771 193.734 49.8802 192.151 49.1198 190.547C48.3594 188.943 47.6406 187.318 46.9583 185.677C46.2813 184.036 45.6406 182.38 45.0469 180.708C44.4479 179.036 43.8906 177.354 43.375 175.651C42.8594 173.953 42.3854 172.245 41.9531 170.521C41.5208 168.797 41.1354 167.068 40.7865 165.323C40.4427 163.583 40.1354 161.833 39.875 160.078C39.6146 158.323 39.401 156.562 39.224 154.792C39.0521 153.026 38.9219 151.255 38.8333 149.484C38.7448 147.708 38.7031 145.937 38.7031 144.161C38.7031 142.385 38.7448 140.609 38.8333 138.838C38.9219 137.062 39.0521 135.292 39.224 133.526C39.401 131.76 39.6146 129.995 39.875 128.24C40.1354 126.484 40.4427 124.734 40.7865 122.995C41.1354 121.25 41.5208 119.521 41.9531 117.797C42.3854 116.078 42.8594 114.365 43.375 112.667C43.8906 110.969 44.4479 109.281 45.0469 107.609C45.6406 105.937 46.2813 104.281 46.9583 102.641C47.6406 101 48.3594 99.3802 49.1198 97.7708C49.8802 96.1666 50.6771 94.5833 51.5104 93.0156C52.349 91.4531 53.224 89.9062 54.1354 88.3854C55.0521 86.8593 56 85.3593 56.9844 83.8854C57.974 82.4062 58.9948 80.9583 60.0521 79.5312C61.1094 78.1041 62.2031 76.7031 63.3281 75.3333C64.4531 73.9583 65.6146 72.6145 66.8073 71.302C68 69.9843 69.224 68.6979 70.4792 67.4427C71.7344 66.1875 73.0208 64.9635 74.3333 63.7708C75.651 62.5781 76.9948 61.4218 78.3698 60.2916C79.7396 59.1666 81.1406 58.0781 82.5677 57.0156C83.9896 55.9583 85.4427 54.9375 86.9219 53.9531C88.3958 52.9635 89.8958 52.0156 91.4167 51.1041C92.9427 50.1875 94.4844 49.3177 96.0521 48.4791C97.6198 47.6406 99.2031 46.8437 100.807 46.0833C102.411 45.3229 104.036 44.6041 105.677 43.927C107.318 43.2448 108.974 42.6093 110.646 42.0104C112.318 41.4114 114 40.8541 115.703 40.3385C117.401 39.8229 119.109 39.3489 120.833 38.9166C122.557 38.4895 124.286 38.0989 126.031 37.75C127.771 37.4062 129.521 37.1041 131.276 36.8437C133.031 36.5833 134.792 36.3645 136.563 36.1875C138.328 36.0156 140.099 35.8854 141.87 35.7968C143.646 35.7135 145.417 35.6666 147.193 35.6666C148.969 35.6666 150.745 35.7135 152.516 35.7968C154.292 35.8854 156.063 36.0156 157.828 36.1875C159.594 36.3645 161.359 36.5833 163.115 36.8437C164.87 37.1041 166.62 37.4062 168.359 37.75C170.104 38.0989 171.833 38.4895 173.557 38.9166C175.276 39.3489 176.99 39.8229 178.688 40.3385C180.385 40.8541 182.073 41.4114 183.745 42.0104C185.417 42.6093 187.073 43.2448 188.714 43.927C190.354 44.6041 191.974 45.3229 193.583 46.0833C195.188 46.8437 196.771 47.6406 198.339 48.4791C199.901 49.3177 201.448 50.1875 202.969 51.1041C204.495 52.0156 205.995 52.9635 207.469 53.9531C208.948 54.9375 210.396 55.9583 211.823 57.0156C213.25 58.0781 214.651 59.1666 216.021 60.2916C217.396 61.4218 218.74 62.5781 220.052 63.7708C221.37 64.9635 222.656 66.1875 223.911 67.4427C225.167 68.6979 226.391 69.9843 227.583 71.302C228.776 72.6145 229.932 73.9583 231.063 75.3333C232.188 76.7031 233.276 78.1041 234.339 79.5312C235.396 80.9583 236.417 82.4062 237.401 83.8854C238.391 85.3593 239.339 86.8593 240.25 88.3854C241.167 89.9062 242.036 91.4531 242.875 93.0156C243.714 94.5833 244.51 96.1666 245.271 97.7708C246.031 99.3802 246.75 101 247.427 102.641C248.109 104.281 248.745 105.937 249.344 107.609C249.943 109.281 250.5 110.969 251.016 112.667C251.531 114.365 252.005 116.078 252.438 117.797C252.865 119.521 253.255 121.25 253.604 122.995C253.948 124.734 254.25 126.484 254.51 128.24C254.771 129.995 254.99 131.76 255.167 133.526C255.339 135.292 255.469 137.062 255.557 138.838C255.641 140.609 255.688 142.385 255.688 144.161Z" fill="white"/>
</mask>
<g mask="url(#mask1_23_6117)">
<path d="M38.7031 35.6666V252.651H255.688V35.6666H38.7031Z" fill="url(#paint0_linear_23_6117)"/>
</g>
</g>
<mask id="mask2_23_6117" style="mask-type:luminance" maskUnits="userSpaceOnUse" x="109" y="71" width="76" height="75">
<path d="M109 71.0834H185V145.333H109V71.0834Z" fill="white"/>
</mask>
<g mask="url(#mask2_23_6117)">
<path d="M184.031 93.9427H161.51V71.4219H132.849V93.9427H110.328V122.604H132.849V145.125H161.51V122.604H184.031V93.9427Z" fill="white"/>
</g>
<mask id="mask3_23_6117" style="mask-type:luminance" maskUnits="userSpaceOnUse" x="155" y="130" width="54" height="88">
<path d="M155.667 130.667H208.807V217.083H155.667V130.667Z" fill="white"/>
</mask>
<g mask="url(#mask3_23_6117)">
<path d="M195.74 161.984V137.177C195.74 133.661 198.62 130.797 202.161 130.797C205.687 130.797 208.542 133.661 208.542 137.177V171.146C208.542 175.844 206.854 180.38 203.818 183.922L182.635 206.417C180.542 208.391 180.021 210.146 180.021 212.802V216.896H156.969L156.937 207.151C156.937 203.443 156.635 198.484 161.281 193.62L188.156 166.63C189.115 165.708 190.37 165.203 191.703 165.203C194.516 165.203 196.802 167.484 196.802 170.292C196.802 171.505 196.37 172.682 195.589 173.604L182.625 187.495C181.786 188.479 180.365 190.338 179.656 192.614C179.276 193.792 179.167 194.948 179.146 196.266H183.318C183.333 195.323 183.401 194.573 183.63 193.87C184.036 192.552 184.849 191.375 185.458 190.614L198.62 176.177C200.276 174.505 201.182 172.349 201.182 170.078C201.182 166.667 199.13 163.531 195.74 161.984Z" fill="white"/>
</g>
<mask id="mask4_23_6117" style="mask-type:luminance" maskUnits="userSpaceOnUse" x="85" y="130" width="54" height="88">
<path d="M85.8074 130.667H138.333V217.083H85.8074V130.667Z" fill="white"/>
</mask>
<g mask="url(#mask4_23_6117)">
<path d="M98.6147 161.984V137.177C98.6147 133.661 95.7292 130.797 92.1876 130.797C88.6615 130.797 85.8074 133.661 85.8074 137.177V171.146C85.8074 175.844 87.5001 180.38 90.5313 183.922L111.714 206.417C113.813 208.391 114.328 210.146 114.328 212.802V216.896H137.385L137.412 207.151C137.412 203.443 137.714 198.484 133.073 193.62L106.198 166.63C105.234 165.708 103.979 165.208 102.651 165.208C99.8386 165.208 97.547 167.489 97.547 170.292C97.547 171.51 97.9792 172.687 98.7657 173.609L111.729 187.495C112.568 188.484 113.99 190.338 114.698 192.609C115.078 193.792 115.182 194.948 115.208 196.266H111.037C111.021 195.323 110.948 194.568 110.724 193.87C110.318 192.552 109.5 191.375 108.891 190.62L95.7292 176.177C94.073 174.505 93.172 172.344 93.172 170.078C93.172 166.667 95.2188 163.531 98.6147 161.984Z" fill="white"/>
</g>
<defs>
<linearGradient id="paint0_linear_23_6117" x1="255.687" y1="252.652" x2="38.7023" y2="35.6674" gradientUnits="userSpaceOnUse">
<stop stop-color="#B2D6DD"/>
<stop offset="0.25" stop-color="#B2D6DD"/>
<stop offset="0.3125" stop-color="#B2D6DD"/>
<stop offset="0.34375" stop-color="#B2D6DD"/>
<stop offset="0.351562" stop-color="#B2D6DD"/>
<stop offset="0.359375" stop-color="#B1D7DC"/>
<stop offset="0.367187" stop-color="#B1D7DC"/>
<stop offset="0.375" stop-color="#B1D8DB"/>
<stop offset="0.382812" stop-color="#B1D8DB"/>
<stop offset="0.390625" stop-color="#B0D9DA"/>
<stop offset="0.398438" stop-color="#B0D9DA"/>
<stop offset="0.40625" stop-color="#B0DAD9"/>
<stop offset="0.414062" stop-color="#AFDAD9"/>
<stop offset="0.421875" stop-color="#AFDBD8"/>
<stop offset="0.429687" stop-color="#AFDBD8"/>
<stop offset="0.4375" stop-color="#AEDCD7"/>
<stop offset="0.445312" stop-color="#AEDCD7"/>
<stop offset="0.453125" stop-color="#AEDDD6"/>
<stop offset="0.460937" stop-color="#ADDDD6"/>
<stop offset="0.46875" stop-color="#ADDED5"/>
<stop offset="0.476562" stop-color="#ADDED5"/>
<stop offset="0.484375" stop-color="#ACDFD4"/>
<stop offset="0.492188" stop-color="#ACDFD4"/>
<stop offset="0.5" stop-color="#ABE0D3"/>
<stop offset="0.507812" stop-color="#ABE0D2"/>
<stop offset="0.515625" stop-color="#ABE0D2"/>
<stop offset="0.523438" stop-color="#ABE1D2"/>
<stop offset="0.53125" stop-color="#AAE1D1"/>
<stop offset="0.539062" stop-color="#AAE2D1"/>
<stop offset="0.546875" stop-color="#AAE2D0"/>
<stop offset="0.554688" stop-color="#A9E3CF"/>
<stop offset="0.5625" stop-color="#A9E3CF"/>
<stop offset="0.570312" stop-color="#A9E4CE"/>
<stop offset="0.578125" stop-color="#A8E4CE"/>
<stop offset="0.585937" stop-color="#A8E5CD"/>
<stop offset="0.59375" stop-color="#A8E5CD"/>
<stop offset="0.601562" stop-color="#A7E6CC"/>
<stop offset="0.609375" stop-color="#A7E6CC"/>
<stop offset="0.617188" stop-color="#A7E7CB"/>
<stop offset="0.625" stop-color="#A6E7CB"/>
<stop offset="0.632812" stop-color="#A6E8CA"/>
<stop offset="0.640625" stop-color="#A6E8CA"/>
<stop offset="0.648438" stop-color="#A6E9C9"/>
<stop offset="0.65625" stop-color="#A5E9C9"/>
<stop offset="0.664062" stop-color="#A5EAC8"/>
<stop offset="0.671875" stop-color="#A5EAC8"/>
<stop offset="0.6875" stop-color="#A4EBC7"/>
<stop offset="0.75" stop-color="#A4EBC7"/>
<stop offset="1" stop-color="#A4EBC7"/>
</linearGradient>
</defs>
</svg>
