<svg xmlns="http://www.w3.org/2000/svg" xmlns:xlink="http://www.w3.org/1999/xlink" width="218" zoomAndPan="magnify" viewBox="0 0 163.5 163.499993" height="218" preserveAspectRatio="xMidYMid meet" version="1.0"><defs><clipPath id="f0fb7351ac"><path d="M 0.421875 0.539062 L 162.675781 0.539062 L 162.675781 162.792969 L 0.421875 162.792969 Z M 0.421875 0.539062 " clip-rule="nonzero"/></clipPath><clipPath id="30ee5ffd76"><path d="M 162.664062 81.660156 C 162.664062 82.988281 162.628906 84.3125 162.566406 85.640625 C 162.5 86.964844 162.402344 88.289062 162.273438 89.609375 C 162.140625 90.929688 161.980469 92.25 161.785156 93.5625 C 161.589844 94.875 161.363281 96.183594 161.105469 97.484375 C 160.84375 98.785156 160.554688 100.082031 160.230469 101.371094 C 159.910156 102.65625 159.554688 103.9375 159.167969 105.207031 C 158.785156 106.476562 158.367188 107.738281 157.921875 108.988281 C 157.472656 110.238281 156.996094 111.476562 156.488281 112.703125 C 155.980469 113.929688 155.441406 115.140625 154.875 116.34375 C 154.308594 117.542969 153.710938 118.726562 153.085938 119.898438 C 152.457031 121.070312 151.804688 122.226562 151.121094 123.363281 C 150.4375 124.503906 149.730469 125.625 148.992188 126.726562 C 148.253906 127.832031 147.488281 128.917969 146.699219 129.984375 C 145.90625 131.050781 145.089844 132.09375 144.25 133.121094 C 143.40625 134.148438 142.539062 135.152344 141.648438 136.136719 C 140.757812 137.121094 139.839844 138.082031 138.902344 139.019531 C 137.964844 139.960938 137.003906 140.875 136.019531 141.765625 C 135.035156 142.65625 134.03125 143.523438 133.003906 144.367188 C 131.976562 145.207031 130.933594 146.023438 129.867188 146.816406 C 128.800781 147.605469 127.714844 148.371094 126.609375 149.109375 C 125.507812 149.847656 124.386719 150.554688 123.246094 151.238281 C 122.109375 151.921875 120.953125 152.574219 119.78125 153.203125 C 118.609375 153.828125 117.425781 154.425781 116.226562 154.992188 C 115.023438 155.558594 113.8125 156.097656 112.585938 156.605469 C 111.359375 157.113281 110.121094 157.589844 108.871094 158.039062 C 107.621094 158.484375 106.359375 158.902344 105.089844 159.285156 C 103.820312 159.671875 102.539062 160.027344 101.253906 160.347656 C 99.964844 160.671875 98.667969 160.960938 97.367188 161.222656 C 96.066406 161.480469 94.757812 161.707031 93.445312 161.902344 C 92.132812 162.097656 90.8125 162.257812 89.492188 162.390625 C 88.171875 162.519531 86.847656 162.617188 85.523438 162.683594 C 84.195312 162.746094 82.871094 162.78125 81.542969 162.78125 C 80.214844 162.78125 78.886719 162.746094 77.5625 162.683594 C 76.234375 162.617188 74.910156 162.519531 73.589844 162.390625 C 72.269531 162.257812 70.953125 162.097656 69.640625 161.902344 C 68.324219 161.707031 67.019531 161.480469 65.714844 161.222656 C 64.414062 160.960938 63.117188 160.671875 61.832031 160.347656 C 60.542969 160.027344 59.265625 159.671875 57.992188 159.285156 C 56.722656 158.902344 55.460938 158.484375 54.210938 158.039062 C 52.960938 157.589844 51.722656 157.113281 50.496094 156.605469 C 49.273438 156.097656 48.058594 155.558594 46.859375 154.992188 C 45.65625 154.425781 44.472656 153.828125 43.300781 153.203125 C 42.128906 152.574219 40.976562 151.921875 39.835938 151.238281 C 38.699219 150.554688 37.578125 149.847656 36.472656 149.109375 C 35.371094 148.371094 34.285156 147.605469 33.21875 146.816406 C 32.152344 146.023438 31.105469 145.207031 30.078125 144.367188 C 29.054688 143.523438 28.046875 142.65625 27.0625 141.765625 C 26.082031 140.875 25.121094 139.960938 24.179688 139.019531 C 23.242188 138.082031 22.328125 137.121094 21.433594 136.136719 C 20.542969 135.152344 19.675781 134.148438 18.835938 133.121094 C 17.992188 132.09375 17.175781 131.050781 16.382812 129.984375 C 15.59375 128.917969 14.828125 127.832031 14.09375 126.726562 C 13.355469 125.625 12.644531 124.503906 11.960938 123.363281 C 11.28125 122.226562 10.625 121.070312 10 119.898438 C 9.375 118.726562 8.777344 117.542969 8.210938 116.34375 C 7.640625 115.140625 7.105469 113.929688 6.59375 112.703125 C 6.085938 111.476562 5.609375 110.238281 5.164062 108.988281 C 4.714844 107.738281 4.300781 106.476562 3.914062 105.207031 C 3.527344 103.9375 3.175781 102.65625 2.851562 101.371094 C 2.527344 100.082031 2.238281 98.785156 1.980469 97.484375 C 1.71875 96.183594 1.492188 94.875 1.296875 93.5625 C 1.105469 92.25 0.941406 90.929688 0.8125 89.609375 C 0.679688 88.289062 0.582031 86.964844 0.519531 85.640625 C 0.453125 84.3125 0.421875 82.988281 0.421875 81.660156 C 0.421875 80.332031 0.453125 79.003906 0.519531 77.679688 C 0.582031 76.351562 0.679688 75.027344 0.8125 73.707031 C 0.941406 72.386719 1.105469 71.070312 1.296875 69.757812 C 1.492188 68.441406 1.71875 67.136719 1.980469 65.832031 C 2.238281 64.53125 2.527344 63.234375 2.851562 61.949219 C 3.175781 60.660156 3.527344 59.382812 3.914062 58.109375 C 4.300781 56.839844 4.714844 55.582031 5.164062 54.332031 C 5.609375 53.082031 6.085938 51.84375 6.59375 50.617188 C 7.105469 49.390625 7.640625 48.175781 8.210938 46.976562 C 8.777344 45.773438 9.375 44.589844 10 43.417969 C 10.625 42.246094 11.28125 41.09375 11.960938 39.953125 C 12.644531 38.816406 13.355469 37.695312 14.09375 36.589844 C 14.828125 35.488281 15.59375 34.402344 16.382812 33.335938 C 17.175781 32.269531 17.992188 31.222656 18.835938 30.195312 C 19.675781 29.171875 20.542969 28.164062 21.433594 27.179688 C 22.328125 26.199219 23.242188 25.238281 24.179688 24.296875 C 25.121094 23.359375 26.082031 22.445312 27.0625 21.550781 C 28.046875 20.660156 29.054688 19.792969 30.078125 18.953125 C 31.105469 18.109375 32.152344 17.292969 33.21875 16.503906 C 34.285156 15.710938 35.371094 14.945312 36.472656 14.210938 C 37.578125 13.472656 38.699219 12.761719 39.835938 12.078125 C 40.976562 11.398438 42.128906 10.742188 43.300781 10.117188 C 44.472656 9.492188 45.65625 8.894531 46.859375 8.328125 C 48.058594 7.757812 49.273438 7.222656 50.496094 6.714844 C 51.722656 6.203125 52.960938 5.726562 54.210938 5.28125 C 55.460938 4.832031 56.722656 4.417969 57.992188 4.03125 C 59.265625 3.644531 60.542969 3.292969 61.832031 2.96875 C 63.117188 2.644531 64.414062 2.355469 65.714844 2.097656 C 67.019531 1.835938 68.324219 1.609375 69.640625 1.414062 C 70.953125 1.222656 72.269531 1.058594 73.589844 0.929688 C 74.910156 0.796875 76.234375 0.699219 77.5625 0.636719 C 78.886719 0.570312 80.214844 0.539062 81.542969 0.539062 C 82.871094 0.539062 84.195312 0.570312 85.523438 0.636719 C 86.847656 0.699219 88.171875 0.796875 89.492188 0.929688 C 90.8125 1.058594 92.132812 1.222656 93.445312 1.414062 C 94.757812 1.609375 96.066406 1.835938 97.367188 2.097656 C 98.667969 2.355469 99.964844 2.644531 101.253906 2.96875 C 102.539062 3.292969 103.820312 3.644531 105.089844 4.03125 C 106.359375 4.417969 107.621094 4.832031 108.871094 5.28125 C 110.121094 5.726562 111.359375 6.203125 112.585938 6.714844 C 113.8125 7.222656 115.023438 7.757812 116.226562 8.328125 C 117.425781 8.894531 118.609375 9.492188 119.78125 10.117188 C 120.953125 10.742188 122.109375 11.398438 123.246094 12.078125 C 124.386719 12.761719 125.507812 13.472656 126.609375 14.210938 C 127.714844 14.945312 128.800781 15.710938 129.867188 16.503906 C 130.933594 17.292969 131.976562 18.109375 133.003906 18.953125 C 134.03125 19.792969 135.035156 20.660156 136.019531 21.550781 C 137.003906 22.445312 137.964844 23.359375 138.902344 24.296875 C 139.839844 25.238281 140.757812 26.199219 141.648438 27.179688 C 142.539062 28.164062 143.40625 29.171875 144.25 30.195312 C 145.089844 31.222656 145.90625 32.269531 146.699219 33.335938 C 147.488281 34.402344 148.253906 35.488281 148.992188 36.589844 C 149.730469 37.695312 150.4375 38.816406 151.121094 39.953125 C 151.804688 41.09375 152.457031 42.246094 153.085938 43.417969 C 153.710938 44.589844 154.308594 45.773438 154.875 46.976562 C 155.441406 48.175781 155.980469 49.390625 156.488281 50.617188 C 156.996094 51.84375 157.472656 53.082031 157.921875 54.332031 C 158.367188 55.582031 158.785156 56.839844 159.167969 58.109375 C 159.554688 59.382812 159.910156 60.660156 160.230469 61.949219 C 160.554688 63.234375 160.84375 64.53125 161.105469 65.832031 C 161.363281 67.136719 161.589844 68.441406 161.785156 69.757812 C 161.980469 71.070312 162.140625 72.386719 162.273438 73.707031 C 162.402344 75.027344 162.5 76.351562 162.566406 77.679688 C 162.628906 79.003906 162.664062 80.332031 162.664062 81.660156 Z M 162.664062 81.660156 " clip-rule="nonzero"/></clipPath><linearGradient x1="499.999979" gradientTransform="matrix(0.324484, 0, 0, 0.324484, 0.420683, 0.537945)" y1="499.999979" x2="0.0000125599" gradientUnits="userSpaceOnUse" y2="0.0000125599" id="be3bcec602"><stop stop-opacity="1" stop-color="rgb(69.799805%, 83.898926%, 86.698914%)" offset="0"/><stop stop-opacity="1" stop-color="rgb(69.799805%, 83.898926%, 86.698914%)" offset="0.25"/><stop stop-opacity="1" stop-color="rgb(69.799805%, 83.898926%, 86.698914%)" offset="0.3125"/><stop stop-opacity="1" stop-color="rgb(69.795227%, 83.905029%, 86.69281%)" offset="0.34375"/><stop stop-opacity="1" stop-color="rgb(69.726562%, 84.007263%, 86.585999%)" offset="0.351563"/><stop stop-opacity="1" stop-color="rgb(69.599915%, 84.197998%, 86.384583%)" offset="0.359375"/><stop stop-opacity="1" stop-color="rgb(69.473267%, 84.390259%, 86.183167%)" offset="0.367188"/><stop stop-opacity="1" stop-color="rgb(69.346619%, 84.580994%, 85.983276%)" offset="0.375"/><stop stop-opacity="1" stop-color="rgb(69.219971%, 84.773254%, 85.78186%)" offset="0.382813"/><stop stop-opacity="1" stop-color="rgb(69.091797%, 84.963989%, 85.58197%)" offset="0.390625"/><stop stop-opacity="1" stop-color="rgb(68.965149%, 85.15625%, 85.380554%)" offset="0.398438"/><stop stop-opacity="1" stop-color="rgb(68.838501%, 85.346985%, 85.180664%)" offset="0.40625"/><stop stop-opacity="1" stop-color="rgb(68.711853%, 85.539246%, 84.979248%)" offset="0.414063"/><stop stop-opacity="1" stop-color="rgb(68.585205%, 85.72998%, 84.779358%)" offset="0.421875"/><stop stop-opacity="1" stop-color="rgb(68.458557%, 85.922241%, 84.577942%)" offset="0.429688"/><stop stop-opacity="1" stop-color="rgb(68.331909%, 86.112976%, 84.378052%)" offset="0.4375"/><stop stop-opacity="1" stop-color="rgb(68.203735%, 86.305237%, 84.176636%)" offset="0.445313"/><stop stop-opacity="1" stop-color="rgb(68.077087%, 86.495972%, 83.976746%)" offset="0.453125"/><stop stop-opacity="1" stop-color="rgb(67.950439%, 86.688232%, 83.77533%)" offset="0.460938"/><stop stop-opacity="1" stop-color="rgb(67.823792%, 86.878967%, 83.575439%)" offset="0.46875"/><stop stop-opacity="1" stop-color="rgb(67.697144%, 87.069702%, 83.374023%)" offset="0.476563"/><stop stop-opacity="1" stop-color="rgb(67.570496%, 87.261963%, 83.174133%)" offset="0.484375"/><stop stop-opacity="1" stop-color="rgb(67.443848%, 87.452698%, 82.972717%)" offset="0.492188"/><stop stop-opacity="1" stop-color="rgb(67.315674%, 87.644958%, 82.772827%)" offset="0.5"/><stop stop-opacity="1" stop-color="rgb(67.189026%, 87.835693%, 82.571411%)" offset="0.5"/><stop stop-opacity="1" stop-color="rgb(67.126465%, 87.931824%, 82.472229%)" offset="0.507812"/><stop stop-opacity="1" stop-color="rgb(67.062378%, 88.027954%, 82.371521%)" offset="0.515625"/><stop stop-opacity="1" stop-color="rgb(66.93573%, 88.218689%, 82.170105%)" offset="0.523438"/><stop stop-opacity="1" stop-color="rgb(66.809082%, 88.41095%, 81.970215%)" offset="0.53125"/><stop stop-opacity="1" stop-color="rgb(66.682434%, 88.601685%, 81.768799%)" offset="0.539062"/><stop stop-opacity="1" stop-color="rgb(66.555786%, 88.793945%, 81.568909%)" offset="0.546875"/><stop stop-opacity="1" stop-color="rgb(66.427612%, 88.98468%, 81.367493%)" offset="0.554688"/><stop stop-opacity="1" stop-color="rgb(66.300964%, 89.176941%, 81.167603%)" offset="0.5625"/><stop stop-opacity="1" stop-color="rgb(66.174316%, 89.367676%, 80.966187%)" offset="0.570312"/><stop stop-opacity="1" stop-color="rgb(66.047668%, 89.559937%, 80.766296%)" offset="0.578125"/><stop stop-opacity="1" stop-color="rgb(65.921021%, 89.750671%, 80.56488%)" offset="0.585938"/><stop stop-opacity="1" stop-color="rgb(65.794373%, 89.941406%, 80.36499%)" offset="0.59375"/><stop stop-opacity="1" stop-color="rgb(65.667725%, 90.133667%, 80.163574%)" offset="0.601562"/><stop stop-opacity="1" stop-color="rgb(65.539551%, 90.324402%, 79.963684%)" offset="0.609375"/><stop stop-opacity="1" stop-color="rgb(65.412903%, 90.516663%, 79.762268%)" offset="0.617188"/><stop stop-opacity="1" stop-color="rgb(65.286255%, 90.707397%, 79.562378%)" offset="0.625"/><stop stop-opacity="1" stop-color="rgb(65.159607%, 90.899658%, 79.360962%)" offset="0.632812"/><stop stop-opacity="1" stop-color="rgb(65.032959%, 91.090393%, 79.161072%)" offset="0.640625"/><stop stop-opacity="1" stop-color="rgb(64.906311%, 91.282654%, 78.959656%)" offset="0.648438"/><stop stop-opacity="1" stop-color="rgb(64.779663%, 91.473389%, 78.759766%)" offset="0.65625"/><stop stop-opacity="1" stop-color="rgb(64.653015%, 91.665649%, 78.55835%)" offset="0.664062"/><stop stop-opacity="1" stop-color="rgb(64.524841%, 91.856384%, 78.356934%)" offset="0.671875"/><stop stop-opacity="1" stop-color="rgb(64.379883%, 92.076111%, 78.128052%)" offset="0.6875"/><stop stop-opacity="1" stop-color="rgb(64.299011%, 92.199707%, 77.999878%)" offset="0.75"/><stop stop-opacity="1" stop-color="rgb(64.299011%, 92.199707%, 77.999878%)" offset="1"/></linearGradient><clipPath id="6c8ea96153"><path d="M 112 53 L 144.796875 53 L 144.796875 108 L 112 108 Z M 112 53 " clip-rule="nonzero"/></clipPath><clipPath id="9cdac70e1f"><path d="M 61 68 L 124 68 L 124 122.917969 L 61 122.917969 Z M 61 68 " clip-rule="nonzero"/></clipPath><clipPath id="3765cb0ab5"><path d="M 20 68 L 68 68 L 68 122.917969 L 20 122.917969 Z M 20 68 " clip-rule="nonzero"/></clipPath></defs><g clip-path="url(#f0fb7351ac)"><g clip-path="url(#30ee5ffd76)"><path fill="url(#be3bcec602)" d="M 0.421875 0.539062 L 0.421875 162.78125 L 162.664062 162.78125 L 162.664062 0.539062 Z M 0.421875 0.539062 " fill-rule="nonzero"/></g></g><path fill="#ffffff" d="M 79.578125 99.113281 C 82.171875 98.605469 84.488281 97.917969 86.566406 97.117188 C 86.351562 92.363281 86.253906 87.675781 86.402344 83.785156 C 86.355469 83.785156 86.308594 83.785156 86.265625 83.785156 C 80.019531 83.785156 71.5625 85.195312 67.074219 86.039062 C 66.65625 86.117188 66.234375 86.15625 65.8125 86.15625 C 62.109375 86.15625 59.058594 83.125 59.015625 79.402344 C 58.980469 76.386719 61.046875 73.664062 64.035156 72.777344 C 72.925781 70.148438 80.800781 68.269531 87.605469 67.144531 C 87.476562 66.011719 87.332031 64.980469 87.179688 64.050781 C 85.128906 63.703125 83.597656 62.460938 82.992188 60.5625 C 82.980469 60.519531 82.964844 60.472656 82.953125 60.425781 C 82.726562 59.535156 82.777344 58.015625 83.714844 56.570312 C 79.367188 52.484375 72.523438 53.316406 72.523438 53.316406 C 56.164062 54.742188 54.65625 78.757812 55.4375 94.464844 C 58.054688 97.402344 61.414062 100.15625 65.742188 102.25 C 67.246094 102.976562 68.371094 104.222656 69.003906 105.757812 C 69.5 102.984375 71.648438 100.65625 74.578125 100.085938 Z M 79.578125 99.113281 " fill-opacity="1" fill-rule="nonzero"/><g clip-path="url(#6c8ea96153)"><path fill="#ffffff" d="M 142.414062 61.9375 C 139.925781 51.878906 125.8125 53.316406 125.8125 53.316406 C 123.429688 53.523438 121.375 54.234375 119.585938 55.304688 C 119.820312 55.878906 119.953125 56.484375 119.953125 57.085938 C 119.953125 57.527344 119.953125 58.65625 118.214844 60.480469 C 119.152344 61.796875 119.574219 63.449219 118.886719 65.191406 C 117.816406 67.910156 114.945312 68.90625 112.71875 68.941406 C 112.644531 68.945312 112.511719 68.949219 112.34375 68.949219 C 122.84375 76.101562 125.476562 94.367188 125.882812 107.929688 L 142.261719 107.929688 C 143.570312 107.929688 144.632812 106.878906 144.632812 105.570312 C 144.644531 97.414062 144.519531 70.433594 142.414062 61.9375 Z M 142.414062 61.9375 " fill-opacity="1" fill-rule="nonzero"/></g><path fill="#ffffff" d="M 73.898438 50.878906 C 80.441406 50.878906 85.746094 45.574219 85.746094 39.03125 C 85.746094 38.625 85.726562 38.222656 85.6875 37.828125 C 87.226562 39.472656 89.367188 40.808594 92.28125 40.808594 C 98.175781 40.808594 98.105469 36.1875 98.105469 36.1875 C 95.511719 36.027344 93.300781 36.28125 90.289062 26.617188 C 87.683594 18.253906 81.285156 19.089844 81.285156 19.089844 C 74.789062 19.089844 73.253906 25.777344 72.996094 27.222656 C 66.875 27.6875 62.046875 32.789062 62.046875 39.03125 C 62.046875 45.574219 67.351562 50.878906 73.898438 50.878906 Z M 65.398438 34.855469 C 67.101562 34.804688 69.777344 34.277344 71.617188 31.851562 C 72.058594 33.289062 73.433594 35.609375 77.644531 36.347656 C 76.445312 38.761719 75.789062 42.527344 80.417969 45.894531 C 78.71875 47.511719 76.425781 48.511719 73.898438 48.511719 C 68.667969 48.511719 64.417969 44.257812 64.417969 39.03125 C 64.417969 37.53125 64.777344 36.117188 65.398438 34.855469 Z M 65.398438 34.855469 " fill-opacity="1" fill-rule="nonzero"/><g clip-path="url(#9cdac70e1f)"><path fill="#ffffff" d="M 110.34375 70.457031 C 109.386719 69.878906 108.367188 69.40625 107.273438 69.046875 C 106.835938 68.894531 106.339844 68.757812 105.773438 68.644531 C 105.628906 68.613281 105.480469 68.589844 105.332031 68.5625 C 105.070312 68.519531 104.792969 68.476562 104.5 68.441406 C 104.253906 68.410156 104.015625 68.355469 103.757812 68.335938 C 103.757812 68.335938 103.179688 68.265625 102.253906 68.265625 C 102.078125 68.265625 101.890625 68.265625 101.695312 68.273438 C 101.425781 68.269531 101.152344 68.265625 100.871094 68.265625 C 97.640625 68.265625 93.382812 68.59375 87.847656 69.515625 C 81.792969 70.519531 74.210938 72.238281 64.707031 75.050781 C 62.785156 75.621094 61.363281 77.371094 61.386719 79.375 C 61.414062 81.902344 63.457031 83.785156 65.8125 83.785156 C 66.082031 83.785156 66.359375 83.761719 66.636719 83.707031 C 71.722656 82.753906 80.003906 81.414062 86.265625 81.414062 C 86.402344 81.414062 86.535156 81.421875 86.671875 81.421875 C 87.0625 77.511719 87.714844 74.902344 87.75 74.757812 C 87.820312 74.484375 87.992188 74.273438 88.199219 74.113281 C 88.476562 73.90625 88.828125 73.808594 89.191406 73.902344 C 89.824219 74.0625 90.207031 74.707031 90.050781 75.339844 C 90.039062 75.386719 88.933594 79.824219 88.765625 85.699219 C 88.765625 85.773438 88.734375 85.835938 88.71875 85.902344 C 88.71875 85.910156 88.71875 85.917969 88.714844 85.925781 C 88.664062 89.042969 88.742188 92.546875 88.890625 96.128906 C 88.902344 96.125 88.914062 96.117188 88.921875 96.113281 C 99.472656 91.171875 102.710938 83.332031 102.75 83.234375 C 102.988281 82.625 103.671875 82.324219 104.285156 82.566406 C 104.894531 82.804688 105.195312 83.488281 104.957031 84.097656 C 104.925781 84.179688 104.78125 84.535156 104.5 85.085938 C 103.210938 87.625 98.984375 94.394531 89.011719 98.699219 C 88.992188 98.707031 88.96875 98.714844 88.949219 98.726562 C 88.589844 98.878906 88.226562 99.03125 87.855469 99.179688 C 87.472656 99.328125 87.089844 99.476562 86.691406 99.621094 C 84.683594 100.34375 82.46875 100.964844 80.03125 101.4375 L 75.03125 102.414062 C 72.507812 102.90625 70.851562 105.355469 71.34375 107.878906 C 71.347656 107.898438 71.355469 107.910156 71.359375 107.929688 C 71.820312 110.175781 73.816406 111.738281 76.125 111.644531 C 79.132812 111.527344 83.085938 111.1875 87.414062 110.375 C 87.800781 110.304688 88.191406 110.226562 88.582031 110.144531 C 88.96875 110.066406 89.359375 109.984375 89.75 109.894531 C 96.246094 108.441406 103.320312 105.847656 109.230469 101.265625 C 109.789062 100.832031 110.34375 100.398438 110.878906 99.929688 C 110.96875 99.851562 111.074219 99.804688 111.175781 99.757812 C 111.636719 99.546875 112.195312 99.636719 112.550781 100.039062 C 112.980469 100.53125 112.929688 101.28125 112.4375 101.710938 C 111.5 102.53125 110.519531 103.28125 109.523438 103.996094 C 103.445312 108.359375 96.394531 110.859375 89.945312 112.273438 C 90.246094 115.898438 90.539062 118.929688 90.730469 120.824219 C 90.851562 122.035156 91.871094 122.945312 93.085938 122.945312 L 120.949219 122.945312 C 122.203125 122.945312 123.234375 121.976562 123.3125 120.726562 C 123.476562 118.121094 123.679688 113.445312 123.511719 107.929688 C 123.109375 94.714844 120.59375 76.644531 110.34375 70.457031 Z M 110.34375 70.457031 " fill-opacity="1" fill-rule="nonzero"/></g><g clip-path="url(#3765cb0ab5)"><path fill="#ffffff" d="M 66.953125 106.953125 C 66.578125 105.8125 65.78125 104.898438 64.710938 104.382812 C 61.101562 102.636719 58.132812 100.488281 55.671875 98.160156 C 54.25 96.816406 52.996094 95.417969 51.902344 93.996094 C 46.570312 87.082031 44.871094 79.789062 44.402344 77.121094 C 44.300781 76.546875 44.253906 76.179688 44.242188 76.085938 C 44.167969 75.433594 44.636719 74.847656 45.285156 74.773438 C 45.941406 74.699219 46.523438 75.164062 46.597656 75.816406 C 46.613281 75.925781 47.472656 82.695312 51.949219 89.808594 C 51.996094 87.886719 52.074219 85.902344 52.199219 83.832031 C 52.625 76.816406 49.636719 68.265625 41.417969 68.265625 C 34.875 68.265625 25.332031 71.601562 22.0625 83.480469 C 18.46875 96.539062 22.429688 115.296875 23.835938 121.140625 C 24.089844 122.203125 25.042969 122.945312 26.136719 122.945312 L 52.226562 122.945312 C 53.75 122.945312 54.878906 121.539062 54.535156 120.054688 C 54.082031 118.085938 53.496094 115.132812 52.992188 111.289062 C 45.957031 107.40625 37.332031 101.125 31.332031 91.582031 C 30.984375 91.027344 31.148438 90.296875 31.703125 89.949219 C 32.15625 89.664062 32.71875 89.738281 33.101562 90.074219 C 33.1875 90.148438 33.273438 90.21875 33.339844 90.320312 C 38.664062 98.789062 46.183594 104.589844 52.648438 108.371094 C 55.804688 110.214844 58.714844 111.585938 60.988281 112.53125 C 63.136719 113.425781 65.578125 112.539062 66.664062 110.464844 C 67.082031 109.671875 67.242188 108.796875 67.152344 107.929688 C 67.121094 107.601562 67.058594 107.273438 66.953125 106.953125 Z M 66.953125 106.953125 " fill-opacity="1" fill-rule="nonzero"/></g><path fill="#ffffff" d="M 43.828125 65.898438 C 48.125 65.898438 51.878906 63.605469 53.957031 60.183594 C 54.007812 60.183594 54.054688 60.191406 54.109375 60.191406 C 57.902344 60.191406 58.960938 58.683594 59.25 57.710938 C 59.351562 57.363281 59.015625 57.054688 58.667969 57.148438 C 56.3125 57.796875 55.691406 55.546875 55.691406 55.546875 L 55.683594 55.546875 C 55.65625 55.507812 55.621094 55.476562 55.59375 55.4375 C 55.644531 54.980469 55.679688 54.519531 55.679688 54.046875 C 55.679688 47.503906 50.375 42.195312 43.828125 42.195312 C 37.285156 42.195312 31.980469 47.503906 31.980469 54.046875 C 31.980469 60.59375 37.285156 65.898438 43.828125 65.898438 Z M 43.828125 44.566406 C 49.058594 44.566406 53.308594 48.820312 53.308594 54.046875 C 53.308594 54.0625 53.308594 54.078125 53.308594 54.097656 C 53.179688 54.082031 53.058594 54.046875 52.925781 54.046875 C 52.125 54.046875 51.398438 54.34375 50.828125 54.820312 C 50.253906 54.34375 49.53125 54.046875 48.726562 54.046875 C 47.570312 54.046875 46.558594 54.644531 45.96875 55.546875 L 45.960938 55.546875 C 45.960938 55.546875 45.410156 57.730469 42.964844 57.117188 C 42.621094 57.03125 42.300781 57.339844 42.394531 57.679688 C 42.671875 58.65625 43.714844 60.191406 47.542969 60.191406 C 49.898438 60.191406 50.828125 59.015625 50.828125 58.363281 C 50.828125 58.671875 51.097656 59.097656 51.601562 59.460938 C 49.886719 61.914062 47.042969 63.527344 43.828125 63.527344 C 38.601562 63.527344 34.347656 59.273438 34.347656 54.046875 C 34.347656 48.820312 38.601562 44.566406 43.828125 44.566406 Z M 43.828125 44.566406 " fill-opacity="1" fill-rule="nonzero"/><path fill="#ffffff" d="M 92.433594 46.175781 C 92.332031 46.257812 92.253906 46.339844 92.203125 46.417969 C 92.140625 46.511719 92.066406 46.613281 91.984375 46.722656 C 91.890625 46.835938 91.789062 46.945312 91.703125 47.0625 C 90.6875 48.242188 88.734375 49.78125 85.832031 50.34375 C 82.203125 51.042969 82.335938 53.488281 82.335938 53.488281 C 82.476562 54.757812 83.453125 55.414062 84.351562 55.753906 C 84.921875 55.964844 85.453125 56.054688 85.730469 56.089844 C 85.855469 56.101562 85.9375 56.109375 85.9375 56.109375 C 86.761719 56.109375 87.53125 56.0625 88.265625 55.984375 C 88.199219 56.015625 88.140625 56.050781 88.070312 56.078125 C 86.296875 56.800781 85.609375 57.78125 85.351562 58.5625 C 85.113281 59.289062 85.25 59.84375 85.25 59.84375 C 85.511719 60.664062 86.03125 61.148438 86.609375 61.429688 C 87.207031 61.71875 87.867188 61.792969 88.382812 61.792969 C 88.914062 61.792969 89.289062 61.714844 89.289062 61.714844 C 90.175781 61.542969 90.972656 61.316406 91.734375 61.074219 C 91.988281 61.417969 92.257812 61.742188 92.542969 62.054688 C 92.84375 62.382812 93.164062 62.695312 93.5 62.988281 C 95.578125 64.796875 98.289062 65.898438 101.261719 65.898438 C 102.222656 65.898438 103.152344 65.769531 104.046875 65.554688 C 104.480469 65.449219 104.902344 65.320312 105.316406 65.171875 C 105.71875 65.023438 106.109375 64.859375 106.488281 64.671875 C 108.105469 66.066406 110.195312 66.449219 111.472656 66.546875 C 111.785156 66.570312 112.066406 66.582031 112.261719 66.582031 C 112.496094 66.582031 112.632812 66.574219 112.632812 66.574219 L 112.640625 66.574219 C 112.816406 66.574219 115.808594 66.539062 116.683594 64.320312 C 117.582031 62.035156 114.671875 60.445312 114.671875 60.445312 C 114.671875 60.445312 117.582031 58.226562 117.582031 57.085938 C 117.582031 56.976562 117.566406 56.863281 117.546875 56.753906 C 117.378906 55.695312 116.4375 54.59375 114.777344 54.59375 C 113.578125 54.59375 113.199219 53.855469 113.078125 53.34375 C 113.042969 52.785156 112.984375 52.230469 112.878906 51.695312 C 112.863281 51.636719 112.847656 51.578125 112.835938 51.519531 C 113.601562 51.492188 114.234375 51.398438 114.734375 51.246094 C 116.984375 50.566406 116.839844 48.921875 116.839844 48.921875 C 116.839844 48.921875 116.984375 45.980469 112.550781 45.144531 C 109.6875 44.601562 107.695312 43.917969 106.632812 43.492188 C 105.019531 42.671875 103.199219 42.195312 101.261719 42.195312 C 97.746094 42.195312 94.601562 43.742188 92.433594 46.175781 Z M 101.261719 63.527344 C 98.882812 63.527344 96.710938 62.640625 95.046875 61.1875 C 94.433594 60.652344 93.882812 60.046875 93.421875 59.371094 C 92.730469 58.359375 92.230469 57.203125 91.976562 55.960938 C 91.925781 55.726562 91.894531 55.484375 91.863281 55.242188 C 92.191406 55.132812 92.503906 55.015625 92.808594 54.894531 C 97.910156 52.789062 99.636719 48.433594 100.21875 45.644531 C 100.296875 45.8125 100.359375 45.914062 100.359375 45.914062 C 100.359375 45.914062 101.4375 54.847656 107.367188 59.300781 C 107.683594 59.539062 108.011719 59.757812 108.351562 59.964844 C 108.421875 60.007812 108.492188 60.046875 108.558594 60.089844 C 107.859375 60.933594 107.011719 61.648438 106.0625 62.207031 C 105.265625 62.679688 104.394531 63.035156 103.472656 63.257812 C 102.761719 63.425781 102.023438 63.527344 101.261719 63.527344 Z M 101.261719 63.527344 " fill-opacity="1" fill-rule="nonzero"/><path fill="#ffffff" d="M 116.554688 34.960938 C 116.089844 36.230469 115.820312 37.597656 115.820312 39.03125 C 115.820312 45.574219 121.128906 50.878906 127.671875 50.878906 C 134.21875 50.878906 139.523438 45.574219 139.523438 39.03125 C 139.523438 32.484375 134.21875 27.179688 127.671875 27.179688 C 127.671875 27.179688 124.488281 26.859375 121.808594 28.414062 C 117.648438 30.824219 115.316406 28.570312 114.234375 26.824219 C 113.855469 26.21875 112.933594 26.351562 112.726562 27.035156 C 112.191406 28.78125 111.90625 31.453125 114.136719 33.347656 C 114.984375 34.070312 115.789062 34.582031 116.554688 34.960938 Z M 127.671875 48.511719 C 122.445312 48.511719 118.191406 44.257812 118.191406 39.03125 C 118.191406 37.851562 118.417969 36.726562 118.8125 35.6875 C 121.417969 36.082031 123.28125 34.8125 124.046875 34.140625 C 124.339844 37.363281 126.398438 42.242188 135.675781 44.089844 C 133.992188 46.742188 131.039062 48.511719 127.671875 48.511719 Z M 127.671875 48.511719 " fill-opacity="1" fill-rule="nonzero"/></svg>