<svg xmlns="http://www.w3.org/2000/svg" xmlns:xlink="http://www.w3.org/1999/xlink" width="302" zoomAndPan="magnify" viewBox="0 0 226.5 226.499992" height="302" preserveAspectRatio="xMidYMid meet" version="1.0"><defs><clipPath id="cda3b376f4"><path d="M 0.269531 0.261719 L 225.523438 0.261719 L 225.523438 225.515625 L 0.269531 225.515625 Z M 0.269531 0.261719 " clip-rule="nonzero"/></clipPath><clipPath id="8f084e326f"><path d="M 225.792969 113.023438 C 225.792969 114.867188 225.746094 116.710938 225.65625 118.554688 C 225.566406 120.398438 225.429688 122.238281 225.25 124.074219 C 225.066406 125.910156 224.839844 127.742188 224.570312 129.566406 C 224.300781 131.394531 223.984375 133.210938 223.625 135.019531 C 223.265625 136.832031 222.859375 138.632812 222.410156 140.421875 C 221.964844 142.210938 221.472656 143.988281 220.9375 145.753906 C 220.398438 147.519531 219.820312 149.273438 219.199219 151.011719 C 218.578125 152.75 217.914062 154.46875 217.207031 156.175781 C 216.5 157.878906 215.753906 159.566406 214.964844 161.234375 C 214.175781 162.902344 213.347656 164.550781 212.476562 166.179688 C 211.605469 167.804688 210.695312 169.410156 209.75 170.992188 C 208.800781 172.578125 207.8125 174.136719 206.789062 175.667969 C 205.761719 177.203125 204.699219 178.710938 203.601562 180.195312 C 202.5 181.675781 201.367188 183.132812 200.195312 184.558594 C 199.023438 185.984375 197.820312 187.382812 196.582031 188.75 C 195.339844 190.117188 194.070312 191.453125 192.765625 192.757812 C 191.460938 194.0625 190.125 195.332031 188.753906 196.574219 C 187.386719 197.8125 185.992188 199.015625 184.566406 200.1875 C 183.136719 201.359375 181.683594 202.492188 180.203125 203.59375 C 178.71875 204.691406 177.210938 205.753906 175.675781 206.78125 C 174.140625 207.804688 172.582031 208.792969 171 209.742188 C 169.417969 210.691406 167.8125 211.597656 166.183594 212.46875 C 164.558594 213.339844 162.910156 214.167969 161.242188 214.957031 C 159.574219 215.746094 157.886719 216.492188 156.183594 217.199219 C 154.476562 217.90625 152.753906 218.570312 151.019531 219.191406 C 149.28125 219.8125 147.527344 220.390625 145.761719 220.929688 C 143.996094 221.464844 142.21875 221.957031 140.429688 222.402344 C 138.640625 222.851562 136.839844 223.257812 135.027344 223.617188 C 133.21875 223.976562 131.402344 224.292969 129.574219 224.5625 C 127.75 224.832031 125.917969 225.058594 124.082031 225.242188 C 122.246094 225.421875 120.40625 225.558594 118.5625 225.648438 C 116.71875 225.738281 114.875 225.785156 113.03125 225.785156 C 111.183594 225.785156 109.339844 225.738281 107.496094 225.648438 C 105.652344 225.558594 103.8125 225.421875 101.976562 225.242188 C 100.140625 225.058594 98.308594 224.832031 96.484375 224.5625 C 94.660156 224.292969 92.839844 223.976562 91.03125 223.617188 C 89.222656 223.257812 87.421875 222.851562 85.632812 222.402344 C 83.839844 221.957031 82.0625 221.464844 80.296875 220.929688 C 78.53125 220.390625 76.78125 219.8125 75.042969 219.191406 C 73.304688 218.570312 71.582031 217.90625 69.878906 217.199219 C 68.171875 216.492188 66.488281 215.746094 64.820312 214.957031 C 63.152344 214.167969 61.503906 213.339844 59.875 212.46875 C 58.246094 211.597656 56.640625 210.691406 55.058594 209.742188 C 53.476562 208.792969 51.917969 207.804688 50.382812 206.78125 C 48.847656 205.753906 47.339844 204.691406 45.859375 203.59375 C 44.375 202.492188 42.921875 201.359375 41.496094 200.1875 C 40.070312 199.015625 38.671875 197.8125 37.304688 196.574219 C 35.9375 195.332031 34.601562 194.0625 33.296875 192.757812 C 31.992188 191.453125 30.71875 190.117188 29.480469 188.75 C 28.242188 187.382812 27.035156 185.984375 25.863281 184.558594 C 24.695312 183.132812 23.558594 181.675781 22.460938 180.195312 C 21.359375 178.710938 20.296875 177.203125 19.273438 175.667969 C 18.246094 174.136719 17.261719 172.578125 16.3125 170.992188 C 15.363281 169.410156 14.453125 167.804688 13.585938 166.179688 C 12.714844 164.550781 11.882812 162.902344 11.09375 161.234375 C 10.304688 159.566406 9.558594 157.878906 8.851562 156.175781 C 8.148438 154.46875 7.484375 152.75 6.859375 151.011719 C 6.238281 149.273438 5.660156 147.519531 5.125 145.753906 C 4.589844 143.988281 4.097656 142.210938 3.648438 140.421875 C 3.199219 138.632812 2.796875 136.832031 2.4375 135.019531 C 2.074219 133.210938 1.761719 131.394531 1.488281 129.566406 C 1.21875 127.742188 0.992188 125.910156 0.8125 124.074219 C 0.632812 122.238281 0.496094 120.398438 0.40625 118.554688 C 0.316406 116.710938 0.269531 114.867188 0.269531 113.023438 C 0.269531 111.175781 0.316406 109.332031 0.40625 107.488281 C 0.496094 105.648438 0.632812 103.808594 0.8125 101.96875 C 0.992188 100.132812 1.21875 98.300781 1.488281 96.476562 C 1.761719 94.652344 2.074219 92.835938 2.4375 91.023438 C 2.796875 89.214844 3.199219 87.414062 3.648438 85.625 C 4.097656 83.832031 4.589844 82.054688 5.125 80.289062 C 5.660156 78.523438 6.238281 76.773438 6.859375 75.035156 C 7.484375 73.296875 8.148438 71.574219 8.851562 69.871094 C 9.558594 68.167969 10.304688 66.480469 11.09375 64.8125 C 11.882812 63.144531 12.714844 61.496094 13.585938 59.867188 C 14.453125 58.238281 15.363281 56.636719 16.3125 55.050781 C 17.261719 53.46875 18.246094 51.910156 19.273438 50.375 C 20.296875 48.839844 21.359375 47.332031 22.460938 45.851562 C 23.558594 44.367188 24.695312 42.914062 25.863281 41.488281 C 27.035156 40.0625 28.242188 38.664062 29.480469 37.296875 C 30.71875 35.929688 31.992188 34.59375 33.296875 33.289062 C 34.601562 31.984375 35.9375 30.710938 37.304688 29.472656 C 38.671875 28.234375 40.070312 27.027344 41.496094 25.855469 C 42.921875 24.6875 44.375 23.550781 45.859375 22.453125 C 47.339844 21.351562 48.847656 20.289062 50.382812 19.265625 C 51.917969 18.242188 53.476562 17.253906 55.058594 16.304688 C 56.640625 15.355469 58.246094 14.445312 59.875 13.578125 C 61.503906 12.707031 63.152344 11.878906 64.820312 11.089844 C 66.488281 10.300781 68.171875 9.550781 69.878906 8.84375 C 71.582031 8.140625 73.304688 7.476562 75.042969 6.851562 C 76.78125 6.230469 78.53125 5.652344 80.296875 5.117188 C 82.0625 4.582031 83.839844 4.089844 85.632812 3.640625 C 87.421875 3.191406 89.222656 2.789062 91.03125 2.429688 C 92.839844 2.070312 94.660156 1.753906 96.484375 1.480469 C 98.308594 1.210938 100.140625 0.984375 101.976562 0.804688 C 103.8125 0.625 105.652344 0.488281 107.496094 0.398438 C 109.339844 0.308594 111.183594 0.261719 113.03125 0.261719 C 114.875 0.261719 116.71875 0.308594 118.5625 0.398438 C 120.40625 0.488281 122.246094 0.625 124.082031 0.804688 C 125.917969 0.984375 127.75 1.210938 129.574219 1.480469 C 131.402344 1.753906 133.21875 2.070312 135.027344 2.429688 C 136.839844 2.789062 138.640625 3.191406 140.429688 3.640625 C 142.21875 4.089844 143.996094 4.582031 145.761719 5.117188 C 147.527344 5.652344 149.28125 6.230469 151.019531 6.851562 C 152.753906 7.476562 154.476562 8.140625 156.183594 8.84375 C 157.886719 9.550781 159.574219 10.300781 161.242188 11.089844 C 162.910156 11.878906 164.558594 12.707031 166.183594 13.578125 C 167.8125 14.445312 169.417969 15.355469 171 16.304688 C 172.582031 17.253906 174.140625 18.242188 175.675781 19.265625 C 177.210938 20.289062 178.71875 21.351562 180.203125 22.453125 C 181.683594 23.550781 183.136719 24.6875 184.566406 25.855469 C 185.992188 27.027344 187.386719 28.234375 188.753906 29.472656 C 190.125 30.710938 191.460938 31.984375 192.765625 33.289062 C 194.070312 34.59375 195.339844 35.929688 196.582031 37.296875 C 197.820312 38.664062 199.023438 40.0625 200.195312 41.488281 C 201.367188 42.914062 202.5 44.367188 203.601562 45.851562 C 204.699219 47.332031 205.761719 48.839844 206.789062 50.375 C 207.8125 51.910156 208.800781 53.46875 209.75 55.050781 C 210.695312 56.636719 211.605469 58.238281 212.476562 59.867188 C 213.347656 61.496094 214.175781 63.144531 214.964844 64.8125 C 215.753906 66.480469 216.5 68.167969 217.207031 69.871094 C 217.914062 71.574219 218.578125 73.296875 219.199219 75.035156 C 219.820312 76.773438 220.398438 78.523438 220.9375 80.289062 C 221.472656 82.054688 221.964844 83.832031 222.410156 85.625 C 222.859375 87.414062 223.265625 89.214844 223.625 91.023438 C 223.984375 92.835938 224.300781 94.652344 224.570312 96.476562 C 224.839844 98.300781 225.066406 100.132812 225.25 101.96875 C 225.429688 103.808594 225.566406 105.648438 225.65625 107.488281 C 225.746094 109.332031 225.792969 111.175781 225.792969 113.023438 Z M 225.792969 113.023438 " clip-rule="nonzero"/></clipPath><linearGradient x1="499.403734" gradientTransform="matrix(0.451043, 0, 0, 0.451043, 0.269374, 0.261872)" y1="499.403734" x2="0.00000816812" gradientUnits="userSpaceOnUse" y2="0.00000816812" id="30768ee83c"><stop stop-opacity="1" stop-color="rgb(69.799805%, 83.898926%, 86.698914%)" offset="0"/><stop stop-opacity="1" stop-color="rgb(69.799805%, 83.898926%, 86.698914%)" offset="0.25"/><stop stop-opacity="1" stop-color="rgb(69.799805%, 83.898926%, 86.698914%)" offset="0.3125"/><stop stop-opacity="1" stop-color="rgb(69.789124%, 83.914185%, 86.682129%)" offset="0.34375"/><stop stop-opacity="1" stop-color="rgb(69.714355%, 84.025574%, 86.564636%)" offset="0.351562"/><stop stop-opacity="1" stop-color="rgb(69.587708%, 84.217834%, 86.364746%)" offset="0.359375"/><stop stop-opacity="1" stop-color="rgb(69.46106%, 84.408569%, 86.164856%)" offset="0.367188"/><stop stop-opacity="1" stop-color="rgb(69.334412%, 84.599304%, 85.96344%)" offset="0.375"/><stop stop-opacity="1" stop-color="rgb(69.207764%, 84.791565%, 85.76355%)" offset="0.382812"/><stop stop-opacity="1" stop-color="rgb(69.081116%, 84.9823%, 85.56366%)" offset="0.390625"/><stop stop-opacity="1" stop-color="rgb(68.954468%, 85.173035%, 85.362244%)" offset="0.398438"/><stop stop-opacity="1" stop-color="rgb(68.82782%, 85.365295%, 85.162354%)" offset="0.40625"/><stop stop-opacity="1" stop-color="rgb(68.699646%, 85.55603%, 84.960938%)" offset="0.414063"/><stop stop-opacity="1" stop-color="rgb(68.572998%, 85.746765%, 84.761047%)" offset="0.421875"/><stop stop-opacity="1" stop-color="rgb(68.44635%, 85.939026%, 84.561157%)" offset="0.429688"/><stop stop-opacity="1" stop-color="rgb(68.319702%, 86.129761%, 84.359741%)" offset="0.4375"/><stop stop-opacity="1" stop-color="rgb(68.193054%, 86.320496%, 84.159851%)" offset="0.445312"/><stop stop-opacity="1" stop-color="rgb(68.066406%, 86.512756%, 83.959961%)" offset="0.453125"/><stop stop-opacity="1" stop-color="rgb(67.939758%, 86.703491%, 83.758545%)" offset="0.460938"/><stop stop-opacity="1" stop-color="rgb(67.81311%, 86.894226%, 83.558655%)" offset="0.46875"/><stop stop-opacity="1" stop-color="rgb(67.686462%, 87.084961%, 83.358765%)" offset="0.476562"/><stop stop-opacity="1" stop-color="rgb(67.559814%, 87.277222%, 83.157349%)" offset="0.484375"/><stop stop-opacity="1" stop-color="rgb(67.433167%, 87.467957%, 82.957458%)" offset="0.492188"/><stop stop-opacity="1" stop-color="rgb(67.306519%, 87.658691%, 82.757568%)" offset="0.5"/><stop stop-opacity="1" stop-color="rgb(67.179871%, 87.850952%, 82.556152%)" offset="0.5"/><stop stop-opacity="1" stop-color="rgb(67.11731%, 87.947083%, 82.45697%)" offset="0.507812"/><stop stop-opacity="1" stop-color="rgb(67.053223%, 88.041687%, 82.356262%)" offset="0.515625"/><stop stop-opacity="1" stop-color="rgb(66.926575%, 88.232422%, 82.154846%)" offset="0.523438"/><stop stop-opacity="1" stop-color="rgb(66.799927%, 88.424683%, 81.954956%)" offset="0.53125"/><stop stop-opacity="1" stop-color="rgb(66.673279%, 88.615417%, 81.755066%)" offset="0.539062"/><stop stop-opacity="1" stop-color="rgb(66.546631%, 88.806152%, 81.55365%)" offset="0.546875"/><stop stop-opacity="1" stop-color="rgb(66.419983%, 88.998413%, 81.35376%)" offset="0.554688"/><stop stop-opacity="1" stop-color="rgb(66.293335%, 89.189148%, 81.15387%)" offset="0.5625"/><stop stop-opacity="1" stop-color="rgb(66.166687%, 89.379883%, 80.952454%)" offset="0.570313"/><stop stop-opacity="1" stop-color="rgb(66.040039%, 89.572144%, 80.752563%)" offset="0.578125"/><stop stop-opacity="1" stop-color="rgb(65.913391%, 89.762878%, 80.552673%)" offset="0.585938"/><stop stop-opacity="1" stop-color="rgb(65.786743%, 89.953613%, 80.351257%)" offset="0.59375"/><stop stop-opacity="1" stop-color="rgb(65.658569%, 90.145874%, 80.151367%)" offset="0.601562"/><stop stop-opacity="1" stop-color="rgb(65.531921%, 90.336609%, 79.951477%)" offset="0.609375"/><stop stop-opacity="1" stop-color="rgb(65.405273%, 90.527344%, 79.750061%)" offset="0.617188"/><stop stop-opacity="1" stop-color="rgb(65.278625%, 90.718079%, 79.550171%)" offset="0.625"/><stop stop-opacity="1" stop-color="rgb(65.151978%, 90.910339%, 79.350281%)" offset="0.632812"/><stop stop-opacity="1" stop-color="rgb(65.02533%, 91.101074%, 79.148865%)" offset="0.640625"/><stop stop-opacity="1" stop-color="rgb(64.898682%, 91.291809%, 78.948975%)" offset="0.648438"/><stop stop-opacity="1" stop-color="rgb(64.772034%, 91.48407%, 78.747559%)" offset="0.65625"/><stop stop-opacity="1" stop-color="rgb(64.645386%, 91.674805%, 78.547668%)" offset="0.664062"/><stop stop-opacity="1" stop-color="rgb(64.518738%, 91.86554%, 78.347778%)" offset="0.671875"/><stop stop-opacity="1" stop-color="rgb(64.376831%, 92.080688%, 78.123474%)" offset="0.6875"/><stop stop-opacity="1" stop-color="rgb(64.299011%, 92.199707%, 77.999878%)" offset="0.75"/><stop stop-opacity="1" stop-color="rgb(64.299011%, 92.199707%, 77.999878%)" offset="1"/></linearGradient><clipPath id="0596ef4c31"><path d="M 156 83 L 183 83 L 183 184.558594 L 156 184.558594 Z M 156 83 " clip-rule="nonzero"/></clipPath><clipPath id="bcca4e6908"><path d="M 123 41.621094 L 155 41.621094 L 155 72 L 123 72 Z M 123 41.621094 " clip-rule="nonzero"/></clipPath></defs><g clip-path="url(#cda3b376f4)"><g clip-path="url(#8f084e326f)"><path fill="url(#30768ee83c)" d="M 0.269531 0.261719 L 0.269531 225.515625 L 225.523438 225.515625 L 225.523438 0.261719 Z M 0.269531 0.261719 " fill-rule="nonzero"/></g></g><path fill="#ffffff" d="M 126.152344 101.234375 C 123.707031 102.125 122.816406 105.019531 123.707031 107.019531 Z M 126.152344 101.234375 " fill-opacity="1" fill-rule="nonzero"/><path fill="#ffffff" d="M 141.5 105.90625 C 146.839844 107.242188 151.066406 106.796875 154.179688 105.683594 L 154.179688 97.675781 C 154.179688 97.230469 154.179688 97.011719 154.179688 96.566406 C 148.839844 99.679688 141.722656 102.125 133.046875 101.457031 L 129.488281 109.910156 C 130.824219 110.132812 132.15625 110.132812 133.492188 110.355469 C 134.828125 106.796875 138.164062 105.019531 141.5 105.90625 Z M 141.5 105.90625 " fill-opacity="1" fill-rule="nonzero"/><path fill="#ffffff" d="M 69.875 144.390625 C 70.097656 153.285156 69.652344 165.519531 67.875 176.421875 C 67.429688 179.980469 69.875 183.316406 73.433594 183.761719 C 77.214844 184.207031 80.328125 181.535156 80.773438 178.199219 C 82.777344 165.078125 83.222656 148.617188 82.777344 140.164062 C 87.003906 135.269531 85.667969 129.929688 86.113281 128.152344 C 81.21875 131.265625 73.878906 132.601562 67.429688 132.824219 L 64.980469 141.941406 C 66.316406 143.054688 68.09375 143.945312 69.875 144.390625 Z M 69.875 144.390625 " fill-opacity="1" fill-rule="nonzero"/><path fill="#ffffff" d="M 61.867188 91.003906 C 61.867188 91.003906 61.867188 90.78125 62.089844 91.449219 L 62.089844 91.894531 C 65.203125 89.667969 72.320312 85.664062 79.441406 86.332031 C 73.65625 82.773438 65.425781 84.554688 61.867188 91.003906 Z M 61.867188 91.003906 " fill-opacity="1" fill-rule="nonzero"/><path fill="#ffffff" d="M 85.222656 68.984375 C 85.222656 69.785156 85.144531 70.582031 84.988281 71.371094 C 84.832031 72.15625 84.597656 72.921875 84.292969 73.664062 C 83.984375 74.40625 83.609375 75.113281 83.160156 75.78125 C 82.714844 76.449219 82.207031 77.066406 81.640625 77.632812 C 81.070312 78.203125 80.453125 78.707031 79.785156 79.15625 C 79.117188 79.601562 78.414062 79.976562 77.671875 80.285156 C 76.929688 80.59375 76.164062 80.824219 75.375 80.980469 C 74.589844 81.136719 73.792969 81.214844 72.988281 81.214844 C 72.1875 81.214844 71.390625 81.136719 70.601562 80.980469 C 69.816406 80.824219 69.050781 80.59375 68.308594 80.285156 C 67.566406 79.976562 66.859375 79.601562 66.191406 79.15625 C 65.523438 78.707031 64.90625 78.203125 64.339844 77.632812 C 63.769531 77.066406 63.261719 76.449219 62.816406 75.78125 C 62.371094 75.113281 61.992188 74.40625 61.6875 73.664062 C 61.378906 72.921875 61.148438 72.15625 60.988281 71.371094 C 60.832031 70.582031 60.753906 69.785156 60.753906 68.984375 C 60.753906 68.179688 60.832031 67.382812 60.988281 66.597656 C 61.148438 65.808594 61.378906 65.042969 61.6875 64.300781 C 61.992188 63.558594 62.371094 62.855469 62.816406 62.1875 C 63.261719 61.519531 63.769531 60.898438 64.339844 60.332031 C 64.90625 59.765625 65.523438 59.257812 66.191406 58.808594 C 66.859375 58.363281 67.566406 57.988281 68.308594 57.679688 C 69.050781 57.371094 69.816406 57.140625 70.601562 56.984375 C 71.390625 56.828125 72.1875 56.75 72.988281 56.75 C 73.792969 56.75 74.589844 56.828125 75.375 56.984375 C 76.164062 57.140625 76.929688 57.371094 77.671875 57.679688 C 78.414062 57.988281 79.117188 58.363281 79.785156 58.808594 C 80.453125 59.257812 81.070312 59.765625 81.640625 60.332031 C 82.207031 60.898438 82.714844 61.519531 83.160156 62.1875 C 83.609375 62.855469 83.984375 63.558594 84.292969 64.300781 C 84.597656 65.042969 84.832031 65.808594 84.988281 66.597656 C 85.144531 67.382812 85.222656 68.179688 85.222656 68.984375 Z M 85.222656 68.984375 " fill-opacity="1" fill-rule="nonzero"/><path fill="#ffffff" d="M 126.820312 120.8125 L 113.027344 120.8125 L 113.027344 178.867188 L 126.820312 178.867188 L 126.820312 145.277344 L 143.503906 145.277344 L 143.503906 141.71875 L 126.820312 141.71875 Z M 126.820312 120.8125 " fill-opacity="1" fill-rule="nonzero"/><path fill="#ffffff" d="M 136.828125 118.808594 C 136.828125 117.03125 134.828125 115.695312 132.824219 115.695312 L 107.023438 115.695312 C 105.019531 115.695312 103.019531 117.03125 103.019531 118.808594 L 103.019531 120.589844 L 137.050781 120.589844 L 137.050781 118.808594 Z M 136.828125 118.808594 " fill-opacity="1" fill-rule="nonzero"/><path fill="#ffffff" d="M 64.089844 110.132812 C 64.089844 109.910156 59.644531 91.003906 59.867188 92.339844 C 57.863281 89.003906 55.195312 86.777344 51.191406 87.667969 C 47.855469 88.335938 45.40625 90.78125 45.40625 90.78125 L 43.183594 110.132812 L 46.074219 116.363281 C 46.074219 116.363281 45.851562 128.597656 45.628906 129.261719 C 45.628906 129.929688 51.191406 143.945312 51.191406 143.945312 L 51.414062 143.945312 L 62.535156 142.832031 L 63.203125 140.386719 L 67.207031 126.371094 C 64.757812 121.035156 64.089844 110.132812 64.089844 110.132812 Z M 64.089844 110.132812 " fill-opacity="1" fill-rule="nonzero"/><path fill="#ffffff" d="M 86.113281 125.703125 L 86.113281 117.695312 C 80.550781 116.363281 76.324219 113.46875 72.988281 110.132812 L 72.988281 106.796875 C 79.664062 114.804688 89.894531 118.363281 101.90625 115.25 C 104.128906 114.582031 105.6875 112.359375 105.019531 109.910156 C 104.351562 107.6875 102.128906 106.128906 99.683594 106.796875 C 87.894531 109.6875 79.886719 104.574219 76.769531 96.566406 C 75.882812 94.339844 73.433594 93.226562 71.210938 94.117188 C 68.984375 95.007812 67.875 97.453125 68.761719 99.679688 C 69.652344 101.902344 70.988281 104.351562 72.988281 106.796875 L 72.988281 110.132812 C 69.875 107.019531 67.875 103.460938 66.761719 100.570312 C 65.425781 97.230469 67.207031 93.449219 70.542969 92.117188 C 73.878906 90.78125 77.660156 92.5625 78.996094 95.898438 C 79.441406 97.230469 81.441406 101.457031 86.113281 103.90625 L 86.113281 97.675781 C 86.113281 94.339844 85 91.449219 83 89.222656 C 74.546875 86.554688 65.648438 92.339844 62.757812 94.339844 L 66.539062 109.910156 L 66.539062 110.132812 C 66.539062 110.132812 67.207031 120.589844 69.207031 125.257812 L 69.429688 125.925781 L 68.09375 130.820312 " fill-opacity="1" fill-rule="nonzero"/><g clip-path="url(#0596ef4c31)"><path fill="#ffffff" d="M 173.308594 85 C 171.753906 83.664062 169.75 83.664062 168.414062 84.554688 C 168.191406 84.554688 158.851562 85.441406 157.070312 95.007812 C 156.847656 95.898438 156.847656 96.566406 156.847656 97.453125 L 156.847656 104.351562 C 161.296875 101.679688 163.300781 97.230469 163.96875 95.898438 C 165.300781 92.5625 169.082031 90.78125 172.417969 92.117188 C 175.535156 93.226562 177.535156 97.011719 176.199219 100.347656 C 173.53125 107.910156 166.414062 115.695312 156.847656 118.363281 L 156.847656 131.710938 C 156.847656 135.046875 157.960938 137.9375 160.183594 140.386719 C 159.742188 151.507812 160.183594 165.519531 162.1875 178.421875 C 162.632812 181.757812 165.746094 184.429688 169.527344 183.984375 C 173.085938 183.539062 175.535156 180.203125 175.089844 176.644531 C 173.53125 165.742188 172.863281 153.507812 173.085938 144.613281 C 178.871094 143.277344 182.875 138.160156 182.875 131.933594 L 182.875 97.675781 C 182.652344 91.671875 178.648438 86.777344 173.308594 85 Z M 173.308594 85 " fill-opacity="1" fill-rule="nonzero"/></g><path fill="#ffffff" d="M 181.761719 68.984375 C 181.761719 69.785156 181.683594 70.582031 181.527344 71.371094 C 181.371094 72.15625 181.136719 72.921875 180.832031 73.664062 C 180.523438 74.40625 180.144531 75.113281 179.699219 75.78125 C 179.253906 76.449219 178.746094 77.066406 178.179688 77.632812 C 177.609375 78.203125 176.992188 78.707031 176.324219 79.15625 C 175.65625 79.601562 174.953125 79.976562 174.210938 80.285156 C 173.46875 80.59375 172.703125 80.824219 171.914062 80.980469 C 171.125 81.136719 170.332031 81.214844 169.527344 81.214844 C 168.722656 81.214844 167.929688 81.136719 167.140625 80.980469 C 166.351562 80.824219 165.589844 80.59375 164.847656 80.285156 C 164.105469 79.976562 163.398438 79.601562 162.730469 79.15625 C 162.0625 78.707031 161.445312 78.203125 160.875 77.632812 C 160.308594 77.066406 159.800781 76.449219 159.355469 75.78125 C 158.910156 75.113281 158.53125 74.40625 158.226562 73.664062 C 157.917969 72.921875 157.683594 72.15625 157.527344 71.371094 C 157.371094 70.582031 157.292969 69.785156 157.292969 68.984375 C 157.292969 68.179688 157.371094 67.382812 157.527344 66.597656 C 157.683594 65.808594 157.917969 65.042969 158.226562 64.300781 C 158.53125 63.558594 158.910156 62.855469 159.355469 62.1875 C 159.800781 61.519531 160.308594 60.898438 160.875 60.332031 C 161.445312 59.765625 162.0625 59.257812 162.730469 58.808594 C 163.398438 58.363281 164.105469 57.988281 164.847656 57.679688 C 165.589844 57.371094 166.351562 57.140625 167.140625 56.984375 C 167.929688 56.828125 168.722656 56.75 169.527344 56.75 C 170.332031 56.75 171.125 56.828125 171.914062 56.984375 C 172.703125 57.140625 173.46875 57.371094 174.210938 57.679688 C 174.953125 57.988281 175.65625 58.363281 176.324219 58.808594 C 176.992188 59.257812 177.609375 59.765625 178.179688 60.332031 C 178.746094 60.898438 179.253906 61.519531 179.699219 62.1875 C 180.144531 62.855469 180.523438 63.558594 180.832031 64.300781 C 181.136719 65.042969 181.371094 65.808594 181.527344 66.597656 C 181.683594 67.382812 181.761719 68.179688 181.761719 68.984375 Z M 181.761719 68.984375 " fill-opacity="1" fill-rule="nonzero"/><path fill="#ffffff" d="M 173.753906 99.679688 C 174.644531 97.453125 173.53125 95.007812 171.308594 94.117188 C 169.082031 93.226562 166.636719 94.339844 165.746094 96.566406 C 162.1875 105.683594 153.289062 110.800781 141.054688 107.6875 C 138.609375 107.019531 136.160156 108.800781 135.71875 110.800781 C 135.050781 113.027344 136.605469 115.472656 138.832031 116.140625 C 155.960938 120.8125 169.304688 111.691406 173.753906 99.679688 Z M 173.753906 99.679688 " fill-opacity="1" fill-rule="nonzero"/><path fill="#ffffff" d="M 131.492188 99.902344 C 131.714844 99.457031 131.492188 98.789062 130.824219 98.566406 C 130.15625 98.34375 129.710938 98.566406 129.488281 99.234375 C 129.488281 99.457031 124.148438 112.136719 124.148438 111.914062 C 123.484375 113.246094 125.484375 114.136719 126.152344 112.804688 C 136.605469 87.445312 123.707031 118.363281 131.492188 99.902344 Z M 131.492188 99.902344 " fill-opacity="1" fill-rule="nonzero"/><path fill="#ffffff" d="M 91.675781 82.105469 L 99.015625 81.214844 C 100.570312 81.882812 102.128906 82.105469 103.910156 82.105469 C 111.027344 82.105469 116.808594 76.324219 116.808594 69.203125 C 116.808594 62.085938 111.027344 56.082031 103.910156 56.082031 C 96.789062 56.082031 91.007812 61.863281 91.007812 69.203125 C 91.007812 71.652344 91.675781 73.875 92.785156 75.65625 Z M 100.347656 61.417969 C 101.460938 60.53125 102.574219 60.085938 104.128906 60.085938 C 105.6875 60.085938 106.800781 60.53125 107.914062 61.417969 C 108.800781 62.308594 109.46875 63.421875 109.46875 64.980469 C 109.46875 66.089844 109.246094 66.757812 108.578125 67.648438 C 108.355469 68.09375 107.914062 68.316406 107.914062 68.539062 L 107.246094 69.203125 C 107.023438 69.425781 106.800781 69.648438 106.578125 69.871094 C 106.355469 70.09375 106.132812 70.316406 106.132812 70.316406 C 105.910156 70.761719 105.6875 71.207031 105.6875 71.875 L 105.6875 72.988281 L 102.796875 72.988281 L 102.796875 71.429688 C 102.796875 70.761719 102.796875 70.316406 103.019531 69.871094 C 103.242188 69.648438 103.464844 68.984375 104.128906 68.539062 L 105.910156 66.757812 C 106.355469 66.3125 106.578125 65.867188 106.578125 65.199219 C 106.578125 64.535156 106.355469 64.089844 105.910156 63.644531 C 105.464844 63.199219 105.019531 62.976562 104.351562 62.976562 C 103.6875 62.976562 103.242188 63.199219 102.796875 63.644531 C 101.90625 63.867188 101.683594 64.3125 101.683594 64.980469 L 98.570312 64.980469 C 98.570312 63.421875 99.238281 62.308594 100.347656 61.417969 Z M 100.347656 61.417969 " fill-opacity="1" fill-rule="nonzero"/><g clip-path="url(#bcca4e6908)"><path fill="#ffffff" d="M 138.832031 71.875 C 140.832031 71.875 142.835938 71.429688 144.613281 70.761719 L 153.289062 71.875 L 152.175781 64.3125 C 153.511719 62.085938 154.179688 59.417969 154.179688 56.75 C 154.179688 48.296875 147.507812 41.621094 139.054688 41.621094 C 130.601562 41.621094 123.929688 48.296875 123.929688 56.75 C 123.707031 65.199219 130.378906 71.875 138.832031 71.875 Z M 133.269531 54.96875 L 135.941406 58.972656 L 143.726562 47.851562 C 143.726562 47.851562 149.507812 47.628906 150.175781 49.183594 L 135.273438 65.644531 L 127.488281 54.078125 C 127.488281 54.300781 132.378906 53.855469 133.269531 54.96875 Z M 133.269531 54.96875 " fill-opacity="1" fill-rule="nonzero"/></g></svg>