<svg width="256" height="99" viewBox="0 0 256 99" fill="none" xmlns="http://www.w3.org/2000/svg">
<path d="M94.7634 52.0918H101.118C101.118 46.8262 96.852 42.5657 91.5916 42.5657H75.7113V48.9147H91.5916C93.3572 48.9147 94.7634 50.3209 94.7634 52.0918ZM94.7634 67.972H101.118V64.7949C101.118 59.5293 96.852 55.2689 91.5916 55.2689H78.8884C77.1645 55.2689 75.7113 53.8626 75.7113 52.0918V48.9147H69.3572V52.0918C69.3572 57.3105 73.6697 61.6178 78.8884 61.6178H91.5916C93.3572 61.6178 94.7634 63.0241 94.7634 64.7949V67.972ZM78.8884 74.3209H94.7634V67.972H78.8884C77.1645 67.972 75.7113 66.5657 75.7113 64.7949H69.3572C69.3572 70.0137 73.6697 74.3209 78.8884 74.3209Z" fill="#FF00FF"/>
<path d="M104.743 48.9147H133.779V42.5657H104.743V48.9147ZM125.612 74.3209H133.779V67.972H125.612C123.888 67.972 122.435 66.5657 122.435 64.7949V52.0918H116.133V64.7949C116.133 70.0137 120.399 74.3209 125.612 74.3209ZM104.743 74.3209H116.086V67.972H104.743V74.3209Z" fill="#FF00FF"/>
<path d="M162.812 52.0918H169.166C169.166 46.8262 164.901 42.5657 159.64 42.5657H143.76V48.9147H159.64C161.406 48.9147 162.812 50.3209 162.812 52.0918ZM162.812 67.972H169.166V64.7949C169.166 59.5293 164.901 55.2689 159.64 55.2689H146.937C145.213 55.2689 143.76 53.8626 143.76 52.0918V48.9147H137.406V52.0918C137.406 57.3105 141.719 61.6178 146.937 61.6178H159.64C161.406 61.6178 162.812 63.0241 162.812 64.7949V67.972ZM146.937 74.3209H162.812V67.972H146.937C145.213 67.972 143.76 66.5657 143.76 64.7949H137.406C137.406 70.0137 141.719 74.3209 146.937 74.3209Z" fill="#FF00FF"/>
<path d="M179.146 48.9147H204.552V42.5657H179.146V48.9147ZM182.323 74.3209H204.552V67.972H182.323C180.599 67.972 179.146 66.5657 179.146 64.7949V48.9147H172.791V64.7949C172.791 70.0137 177.104 74.3209 182.323 74.3209ZM182.276 61.6178H201.375V55.2689H182.276V61.6178Z" fill="#FF00FF"/>
<path d="M90.1252 54.354H96.4794C96.4794 49.0884 92.2137 44.8279 86.9533 44.8279H71.0731V51.1769H86.9533C88.7189 51.1769 90.1252 52.5832 90.1252 54.354ZM90.1252 70.2342H96.4794V67.0571C96.4794 61.7915 92.2137 57.5311 86.9533 57.5311H74.2502C72.5262 57.5311 71.0731 56.1248 71.0731 54.354V51.1769H64.7189V54.354C64.7189 59.5727 69.0314 63.88 74.2502 63.88H86.9533C88.7189 63.88 90.1252 65.2863 90.1252 67.0571V70.2342ZM74.2502 76.5832H90.1252V70.2342H74.2502C72.5262 70.2342 71.0731 68.8279 71.0731 67.0571H64.7189C64.7189 72.2759 69.0314 76.5832 74.2502 76.5832Z" fill="#00FFFF"/>
<path d="M100.104 51.1769H129.141V44.8279H100.104V51.1769ZM120.974 76.5832H129.141V70.2342H120.974C119.25 70.2342 117.797 68.8279 117.797 67.0571V54.354H111.495V67.0571C111.495 72.2759 115.761 76.5832 120.974 76.5832ZM100.104 76.5832H111.448V70.2342H100.104V76.5832Z" fill="#00FFFF"/>
<path d="M158.174 54.354H164.528C164.528 49.0884 160.263 44.8279 155.002 44.8279H139.122V51.1769H155.002C156.768 51.1769 158.174 52.5832 158.174 54.354ZM158.174 70.2342H164.528V67.0571C164.528 61.7915 160.263 57.5311 155.002 57.5311H142.299C140.575 57.5311 139.122 56.1248 139.122 54.354V51.1769H132.768V54.354C132.768 59.5727 137.08 63.88 142.299 63.88H155.002C156.768 63.88 158.174 65.2863 158.174 67.0571V70.2342ZM142.299 76.5832H158.174V70.2342H142.299C140.575 70.2342 139.122 68.8279 139.122 67.0571H132.768C132.768 72.2759 137.08 76.5832 142.299 76.5832Z" fill="#00FFFF"/>
<path d="M174.507 51.1769H199.914V44.8279H174.507V51.1769ZM177.684 76.5832H199.914V70.2342H177.684C175.96 70.2342 174.507 68.8279 174.507 67.0571V51.1769H168.153V67.0571C168.153 72.2759 172.466 76.5832 177.684 76.5832ZM177.638 63.88H196.737V57.5311H177.638V63.88Z" fill="#00FFFF"/>
<path d="M92.4443 53.2229H98.7985C98.7985 47.9573 94.5329 43.6968 89.2724 43.6968H73.3922V50.0458H89.2724C91.0381 50.0458 92.4443 51.452 92.4443 53.2229ZM92.4443 69.1031H98.7985V65.926C98.7985 60.6604 94.5329 56.4 89.2724 56.4H76.5693C74.8453 56.4 73.3922 54.9937 73.3922 53.2229V50.0458H67.0381V53.2229C67.0381 58.4416 71.3506 62.7489 76.5693 62.7489H89.2724C91.0381 62.7489 92.4443 64.1552 92.4443 65.926V69.1031ZM76.5693 75.452H92.4443V69.1031H76.5693C74.8453 69.1031 73.3922 67.6968 73.3922 65.926H67.0381C67.0381 71.1448 71.3506 75.452 76.5693 75.452Z" fill="#024719"/>
<path d="M102.423 50.0458H131.46V43.6968H102.423V50.0458ZM123.293 75.452H131.46V69.1031H123.293C121.569 69.1031 120.116 67.6968 120.116 65.926V53.2229H113.814V65.926C113.814 71.1448 118.08 75.452 123.293 75.452ZM102.423 75.452H113.767V69.1031H102.423V75.452Z" fill="#024719"/>
<path d="M160.493 53.2229H166.847C166.847 47.9573 162.582 43.6968 157.321 43.6968H141.441V50.0458H157.321C159.087 50.0458 160.493 51.452 160.493 53.2229ZM160.493 69.1031H166.847V65.926C166.847 60.6604 162.582 56.4 157.321 56.4H144.618C142.894 56.4 141.441 54.9937 141.441 53.2229V50.0458H135.087V53.2229C135.087 58.4416 139.399 62.7489 144.618 62.7489H157.321C159.087 62.7489 160.493 64.1552 160.493 65.926V69.1031ZM144.618 75.452H160.493V69.1031H144.618C142.894 69.1031 141.441 67.6968 141.441 65.926H135.087C135.087 71.1448 139.399 75.452 144.618 75.452Z" fill="#024719"/>
<path d="M176.826 50.0458H202.233V43.6968H176.826V50.0458ZM180.004 75.452H202.233V69.1031H180.004C178.28 69.1031 176.826 67.6968 176.826 65.926V50.0458H170.472V65.926C170.472 71.1448 174.785 75.452 180.004 75.452ZM179.957 62.7489H199.056V56.4H179.957V62.7489Z" fill="#024719"/>
</svg>
